<?xml version="1.0" encoding="utf-8" standalone="no"?>
<!DOCTYPE svg PUBLIC "-//W3C//DTD SVG 1.1//EN"
  "http://www.w3.org/Graphics/SVG/1.1/DTD/svg11.dtd">
<svg xmlns:xlink="http://www.w3.org/1999/xlink" width="720pt" height="288pt" viewBox="0 0 720 288" xmlns="http://www.w3.org/2000/svg" version="1.1">
 <metadata>
  <rdf:RDF xmlns:dc="http://purl.org/dc/elements/1.1/" xmlns:cc="http://creativecommons.org/ns#" xmlns:rdf="http://www.w3.org/1999/02/22-rdf-syntax-ns#">
   <cc:Work>
    <dc:type rdf:resource="http://purl.org/dc/dcmitype/StillImage"/>
    <dc:date>2025-06-02T13:17:24.926345</dc:date>
    <dc:format>image/svg+xml</dc:format>
    <dc:creator>
     <cc:Agent>
      <dc:title>Matplotlib v3.10.3, https://matplotlib.org/</dc:title>
     </cc:Agent>
    </dc:creator>
   </cc:Work>
  </rdf:RDF>
 </metadata>
 <defs>
  <style type="text/css">*{stroke-linejoin: round; stroke-linecap: butt}</style>
 </defs>
 <g id="figure_1">
  <g id="patch_1">
   <path d="M 0 288 
L 720 288 
L 720 0 
L 0 0 
z
" style="fill: #ffffff"/>
  </g>
  <g id="axes_1">
   <g id="patch_2">
    <path d="M 98.621924 256.32 
L 335.01444 256.32 
L 335.01444 34.56 
L 98.621924 34.56 
z
" style="fill: #ffffff"/>
   </g>
   <g id="patch_3">
    <path d="M 222.958904 68.096796 
L 225.571949 88.318918 
L 225.11333 88.378179 
L 222.500286 68.156058 
M 222.729595 68.126427 
L 222.729595 68.126427 
" clip-path="url(#pca79cd8f1a)"/>
   </g>
   <g id="patch_4">
    <path d="M 134.119928 116.420212 
L 225.2741 88.127725 
L 225.411179 88.569372 
L 134.257007 116.86186 
M 134.188468 116.641036 
L 134.188468 116.641036 
" clip-path="url(#pca79cd8f1a)"/>
   </g>
   <g id="patch_5">
    <path d="M 202.622192 51.380337 
L 222.257279 63.342783 
L 222.016683 63.737696 
L 202.381596 51.77525 
M 202.501894 51.577793 
L 202.501894 51.577793 
" clip-path="url(#pca79cd8f1a)"/>
   </g>
   <g id="patch_6">
    <path d="M 179.320896 55.955856 
L 198.473378 48.954669 
L 198.632145 49.388992 
L 179.479663 56.390179 
M 179.40028 56.173018 
L 179.40028 56.173018 
" clip-path="url(#pca79cd8f1a)"/>
   </g>
   <g id="patch_7">
    <path d="M 266.846048 118.801205 
L 174.929422 57.953482 
L 175.184683 57.567885 
L 267.101309 118.415608 
M 266.973678 118.608407 
L 266.973678 118.608407 
" clip-path="url(#pca79cd8f1a)"/>
   </g>
   <g id="patch_8">
    <path d="M 268.427716 144.120494 
L 270.599458 121.13926 
L 271.059839 121.182766 
L 268.888096 144.164 
M 268.657906 144.142247 
L 268.657906 144.142247 
" clip-path="url(#pca79cd8f1a)"/>
   </g>
   <g id="patch_9">
    <path d="M 289.915705 162.762179 
L 268.099108 148.941374 
L 268.346579 148.550732 
L 290.163176 162.371538 
M 290.03944 162.566859 
L 290.03944 162.566859 
" clip-path="url(#pca79cd8f1a)"/>
   </g>
   <g id="patch_10">
    <path d="M 315.583583 155.951891 
L 294.037503 165.25385 
L 293.854212 164.829295 
L 315.400292 155.527335 
M 315.491938 155.739613 
L 315.491938 155.739613 
" clip-path="url(#pca79cd8f1a)"/>
   </g>
   <g id="patch_11">
    <path d="M 237.170843 214.835933 
L 319.599786 153.72097 
L 319.875203 154.092438 
L 237.446259 215.207402 
M 237.308551 215.021667 
L 237.308551 215.021667 
" clip-path="url(#pca79cd8f1a)"/>
   </g>
   <g id="patch_12">
    <path d="M 222.624723 235.493165 
L 233.395939 217.656309 
L 233.791793 217.895355 
L 223.020577 235.73221 
M 222.82265 235.612688 
L 222.82265 235.612688 
" clip-path="url(#pca79cd8f1a)"/>
   </g>
   <g id="patch_13">
    <path d="M 196.997332 241.126073 
L 220.414615 239.340678 
L 220.44977 239.801771 
L 197.032487 241.587166 
M 197.01491 241.35662 
L 197.01491 241.35662 
" clip-path="url(#pca79cd8f1a)"/>
   </g>
   <g id="patch_14">
    <path d="M 178.285035 226.196802 
L 192.573238 241.550655 
L 192.234713 241.865684 
L 177.94651 226.511831 
M 178.115773 226.354316 
L 178.115773 226.354316 
" clip-path="url(#pca79cd8f1a)"/>
   </g>
   <g id="patch_15">
    <path d="M 134.700172 180.049661 
L 175.133479 222.810204 
L 174.797474 223.127922 
L 134.364168 180.367378 
M 134.53217 180.20852 
L 134.53217 180.20852 
" clip-path="url(#pca79cd8f1a)"/>
   </g>
   <g id="patch_16">
    <path d="M 117.66139 165.656942 
L 131.498963 176.66755 
L 131.211033 177.029405 
L 117.37346 166.018798 
M 117.517425 165.83787 
L 117.517425 165.83787 
" clip-path="url(#pca79cd8f1a)"/>
   </g>
   <g id="patch_17">
    <path d="M 115.030867 142.763467 
L 114.129855 162.968872 
L 113.667883 162.948272 
L 114.568895 142.742867 
M 114.799881 142.753167 
L 114.799881 142.753167 
" clip-path="url(#pca79cd8f1a)"/>
   </g>
   <g id="patch_18">
    <path d="M 127.222513 121.876784 
L 115.192295 138.270235 
L 114.819479 137.996647 
L 126.849696 121.603196 
M 127.036105 121.73999 
L 127.036105 121.73999 
" clip-path="url(#pca79cd8f1a)"/>
   </g>
   <g id="matplotlib.axis_1"/>
   <g id="matplotlib.axis_2"/>
   <g id="patch_19">
    <path d="M 225.342639 92.880379 
C 226.544495 92.880379 227.697287 92.402877 228.547127 91.553036 
C 229.396968 90.703196 229.87447 89.550404 229.87447 88.348548 
C 229.87447 87.146693 229.396968 85.9939 228.547127 85.14406 
C 227.697287 84.29422 226.544495 83.816718 225.342639 83.816718 
C 224.140784 83.816718 222.987991 84.29422 222.138151 85.14406 
C 221.288311 85.9939 220.810809 87.146693 220.810809 88.348548 
C 220.810809 89.550404 221.288311 90.703196 222.138151 91.553036 
C 222.987991 92.402877 224.140784 92.880379 225.342639 92.880379 
z
" clip-path="url(#pca79cd8f1a)" style="fill: #53c7a8; stroke: #2c404c; stroke-width: 0.184973; stroke-linejoin: miter"/>
   </g>
   <g id="patch_20">
    <path d="M 222.136981 68.07207 
C 223.338837 68.07207 224.491629 67.594568 225.341469 66.744728 
C 226.19131 65.894887 226.668812 64.742095 226.668812 63.540239 
C 226.668812 62.338384 226.19131 61.185592 225.341469 60.335751 
C 224.491629 59.485911 223.338837 59.008409 222.136981 59.008409 
C 220.935126 59.008409 219.782333 59.485911 218.932493 60.335751 
C 218.082653 61.185592 217.605151 62.338384 217.605151 63.540239 
C 217.605151 64.742095 218.082653 65.894887 218.932493 66.744728 
C 219.782333 67.594568 220.935126 68.07207 222.136981 68.07207 
z
" clip-path="url(#pca79cd8f1a)" style="fill: #53c7a8; stroke: #2c404c; stroke-width: 0.184973; stroke-linejoin: miter"/>
   </g>
   <g id="patch_21">
    <path d="M 198.552761 53.703661 
C 199.754617 53.703661 200.907409 53.226159 201.757249 52.376319 
C 202.60709 51.526478 203.084592 50.373686 203.084592 49.171831 
C 203.084592 47.969975 202.60709 46.817183 201.757249 45.967342 
C 200.907409 45.117502 199.754617 44.64 198.552761 44.64 
C 197.350906 44.64 196.198113 45.117502 195.348273 45.967342 
C 194.498433 46.817183 194.020931 47.969975 194.020931 49.171831 
C 194.020931 50.373686 194.498433 51.526478 195.348273 52.376319 
C 196.198113 53.226159 197.350906 53.703661 198.552761 53.703661 
z
" clip-path="url(#pca79cd8f1a)" style="fill: #53c7a8; stroke: #2c404c; stroke-width: 0.184973; stroke-linejoin: miter"/>
   </g>
   <g id="patch_22">
    <path d="M 175.057052 62.292515 
C 176.258908 62.292515 177.4117 61.815012 178.26154 60.965172 
C 179.111381 60.115332 179.588883 58.962539 179.588883 57.760684 
C 179.588883 56.558828 179.111381 55.406036 178.26154 54.556196 
C 177.4117 53.706356 176.258908 53.228853 175.057052 53.228853 
C 173.855197 53.228853 172.702404 53.706356 171.852564 54.556196 
C 171.002724 55.406036 170.525222 56.558828 170.525222 57.760684 
C 170.525222 58.962539 171.002724 60.115332 171.852564 60.965172 
C 172.702404 61.815012 173.855197 62.292515 175.057052 62.292515 
z
" clip-path="url(#pca79cd8f1a)" style="fill: #53c7a8; stroke: #2c404c; stroke-width: 0.184973; stroke-linejoin: miter"/>
   </g>
   <g id="patch_23">
    <path d="M 270.829648 125.692844 
C 272.031504 125.692844 273.184296 125.215342 274.034137 124.365501 
C 274.883977 123.515661 275.361479 122.362869 275.361479 121.161013 
C 275.361479 119.959158 274.883977 118.806365 274.034137 117.956525 
C 273.184296 117.106685 272.031504 116.629183 270.829648 116.629183 
C 269.627793 116.629183 268.475 117.106685 267.62516 117.956525 
C 266.77532 118.806365 266.297818 119.959158 266.297818 121.161013 
C 266.297818 122.362869 266.77532 123.515661 267.62516 124.365501 
C 268.475 125.215342 269.627793 125.692844 270.829648 125.692844 
z
" clip-path="url(#pca79cd8f1a)" style="fill: #d7f04a; stroke: #2c404c; stroke-width: 0.184973; stroke-linejoin: miter"/>
   </g>
   <g id="patch_24">
    <path d="M 268.222843 153.277884 
C 269.424699 153.277884 270.577491 152.800381 271.427331 151.950541 
C 272.277172 151.100701 272.754674 149.947908 272.754674 148.746053 
C 272.754674 147.544197 272.277172 146.391405 271.427331 145.541565 
C 270.577491 144.691725 269.424699 144.214222 268.222843 144.214222 
C 267.020988 144.214222 265.868195 144.691725 265.018355 145.541565 
C 264.168515 146.391405 263.691013 147.544197 263.691013 148.746053 
C 263.691013 149.947908 264.168515 151.100701 265.018355 151.950541 
C 265.868195 152.800381 267.020988 153.277884 268.222843 153.277884 
z
" clip-path="url(#pca79cd8f1a)" style="fill: #d7f04a; stroke: #2c404c; stroke-width: 0.184973; stroke-linejoin: miter"/>
   </g>
   <g id="patch_25">
    <path d="M 293.945858 169.573403 
C 295.147713 169.573403 296.300506 169.095901 297.150346 168.246061 
C 298.000186 167.39622 298.477688 166.243428 298.477688 165.041573 
C 298.477688 163.839717 298.000186 162.686925 297.150346 161.837084 
C 296.300506 160.987244 295.147713 160.509742 293.945858 160.509742 
C 292.744002 160.509742 291.59121 160.987244 290.74137 161.837084 
C 289.89153 162.686925 289.414027 163.839717 289.414027 165.041573 
C 289.414027 166.243428 289.89153 167.39622 290.74137 168.246061 
C 291.59121 169.095901 292.744002 169.573403 293.945858 169.573403 
z
" clip-path="url(#pca79cd8f1a)" style="fill: #d7f04a; stroke: #2c404c; stroke-width: 0.184973; stroke-linejoin: miter"/>
   </g>
   <g id="patch_26">
    <path d="M 319.737495 158.438535 
C 320.93935 158.438535 322.092143 157.961032 322.941983 157.111192 
C 323.791823 156.261352 324.269325 155.10856 324.269325 153.906704 
C 324.269325 152.704848 323.791823 151.552056 322.941983 150.702216 
C 322.092143 149.852376 320.93935 149.374873 319.737495 149.374873 
C 318.535639 149.374873 317.382847 149.852376 316.533007 150.702216 
C 315.683166 151.552056 315.205664 152.704848 315.205664 153.906704 
C 315.205664 155.10856 315.683166 156.261352 316.533007 157.111192 
C 317.382847 157.961032 318.535639 158.438535 319.737495 158.438535 
z
" clip-path="url(#pca79cd8f1a)" style="fill: #d7f04a; stroke: #2c404c; stroke-width: 0.184973; stroke-linejoin: miter"/>
   </g>
   <g id="patch_27">
    <path d="M 233.593866 222.307662 
C 234.795721 222.307662 235.948514 221.83016 236.798354 220.98032 
C 237.648194 220.13048 238.125696 218.977687 238.125696 217.775832 
C 238.125696 216.573976 237.648194 215.421184 236.798354 214.571344 
C 235.948514 213.721503 234.795721 213.244001 233.593866 213.244001 
C 232.39201 213.244001 231.239218 213.721503 230.389378 214.571344 
C 229.539538 215.421184 229.062035 216.573976 229.062035 217.775832 
C 229.062035 218.977687 229.539538 220.13048 230.389378 220.98032 
C 231.239218 221.83016 232.39201 222.307662 233.593866 222.307662 
z
" clip-path="url(#pca79cd8f1a)" style="fill: #508a58; stroke: #2c404c; stroke-width: 0.184973; stroke-linejoin: miter"/>
   </g>
   <g id="patch_28">
    <path d="M 220.432192 244.103055 
C 221.634048 244.103055 222.78684 243.625553 223.63668 242.775713 
C 224.48652 241.925873 224.964023 240.77308 224.964023 239.571225 
C 224.964023 238.369369 224.48652 237.216577 223.63668 236.366737 
C 222.78684 235.516896 221.634048 235.039394 220.432192 235.039394 
C 219.230337 235.039394 218.077544 235.516896 217.227704 236.366737 
C 216.377864 237.216577 215.900362 238.369369 215.900362 239.571225 
C 215.900362 240.77308 216.377864 241.925873 217.227704 242.775713 
C 218.077544 243.625553 219.230337 244.103055 220.432192 244.103055 
z
" clip-path="url(#pca79cd8f1a)" style="fill: #508a58; stroke: #2c404c; stroke-width: 0.184973; stroke-linejoin: miter"/>
   </g>
   <g id="patch_29">
    <path d="M 192.403975 246.24 
C 193.605831 246.24 194.758623 245.762498 195.608463 244.912658 
C 196.458303 244.062817 196.935806 242.910025 196.935806 241.708169 
C 196.935806 240.506314 196.458303 239.353522 195.608463 238.503681 
C 194.758623 237.653841 193.605831 237.176339 192.403975 237.176339 
C 191.20212 237.176339 190.049327 237.653841 189.199487 238.503681 
C 188.349647 239.353522 187.872145 240.506314 187.872145 241.708169 
C 187.872145 242.910025 188.349647 244.062817 189.199487 244.912658 
C 190.049327 245.762498 191.20212 246.24 192.403975 246.24 
z
" clip-path="url(#pca79cd8f1a)" style="fill: #508a58; stroke: #2c404c; stroke-width: 0.184973; stroke-linejoin: miter"/>
   </g>
   <g id="patch_30">
    <path d="M 174.965477 227.500894 
C 176.167332 227.500894 177.320124 227.023391 178.169965 226.173551 
C 179.019805 225.323711 179.497307 224.170919 179.497307 222.969063 
C 179.497307 221.767208 179.019805 220.614415 178.169965 219.764575 
C 177.320124 218.914735 176.167332 218.437232 174.965477 218.437232 
C 173.763621 218.437232 172.610829 218.914735 171.760988 219.764575 
C 170.911148 220.614415 170.433646 221.767208 170.433646 222.969063 
C 170.433646 224.170919 170.911148 225.323711 171.760988 226.173551 
C 172.610829 227.023391 173.763621 227.500894 174.965477 227.500894 
z
" clip-path="url(#pca79cd8f1a)" style="fill: #508a58; stroke: #2c404c; stroke-width: 0.184973; stroke-linejoin: miter"/>
   </g>
   <g id="patch_31">
    <path d="M 131.354998 181.380308 
C 132.556853 181.380308 133.709646 180.902806 134.559486 180.052965 
C 135.409326 179.203125 135.886828 178.050333 135.886828 176.848477 
C 135.886828 175.646622 135.409326 174.493829 134.559486 173.643989 
C 133.709646 172.794149 132.556853 172.316647 131.354998 172.316647 
C 130.153142 172.316647 129.00035 172.794149 128.15051 173.643989 
C 127.30067 174.493829 126.823167 175.646622 126.823167 176.848477 
C 126.823167 178.050333 127.30067 179.203125 128.15051 180.052965 
C 129.00035 180.902806 130.153142 181.380308 131.354998 181.380308 
z
" clip-path="url(#pca79cd8f1a)" style="fill: #6062f5; stroke: #2c404c; stroke-width: 0.184973; stroke-linejoin: miter"/>
   </g>
   <g id="patch_32">
    <path d="M 113.898869 167.490402 
C 115.100724 167.490402 116.253517 167.0129 117.103357 166.16306 
C 117.953197 165.31322 118.430699 164.160427 118.430699 162.958572 
C 118.430699 161.756716 117.953197 160.603924 117.103357 159.754084 
C 116.253517 158.904244 115.100724 158.426741 113.898869 158.426741 
C 112.697013 158.426741 111.544221 158.904244 110.694381 159.754084 
C 109.844541 160.603924 109.367038 161.756716 109.367038 162.958572 
C 109.367038 164.160427 109.844541 165.31322 110.694381 166.16306 
C 111.544221 167.0129 112.697013 167.490402 113.898869 167.490402 
z
" clip-path="url(#pca79cd8f1a)" style="fill: #6062f5; stroke: #2c404c; stroke-width: 0.184973; stroke-linejoin: miter"/>
   </g>
   <g id="patch_33">
    <path d="M 115.005887 142.665271 
C 116.207742 142.665271 117.360535 142.187769 118.210375 141.337929 
C 119.060215 140.488089 119.537717 139.335296 119.537717 138.133441 
C 119.537717 136.931585 119.060215 135.778793 118.210375 134.928953 
C 117.360535 134.079113 116.207742 133.60161 115.005887 133.60161 
C 113.804031 133.60161 112.651239 134.079113 111.801399 134.928953 
C 110.951559 135.778793 110.474056 136.931585 110.474056 138.133441 
C 110.474056 139.335296 110.951559 140.488089 111.801399 141.337929 
C 112.651239 142.187769 113.804031 142.665271 115.005887 142.665271 
z
" clip-path="url(#pca79cd8f1a)" style="fill: #6062f5; stroke: #2c404c; stroke-width: 0.184973; stroke-linejoin: miter"/>
   </g>
   <g id="patch_34">
    <path d="M 129.771993 122.543654 
C 130.973849 122.543654 132.126641 122.066152 132.976481 121.216312 
C 133.826321 120.366472 134.303824 119.213679 134.303824 118.011824 
C 134.303824 116.809968 133.826321 115.657176 132.976481 114.807336 
C 132.126641 113.957496 130.973849 113.479993 129.771993 113.479993 
C 128.570138 113.479993 127.417345 113.957496 126.567505 114.807336 
C 125.717665 115.657176 125.240163 116.809968 125.240163 118.011824 
C 125.240163 119.213679 125.717665 120.366472 126.567505 121.216312 
C 127.417345 122.066152 128.570138 122.543654 129.771993 122.543654 
z
" clip-path="url(#pca79cd8f1a)" style="fill: #6062f5; stroke: #2c404c; stroke-width: 0.184973; stroke-linejoin: miter"/>
   </g>
   <g id="text_1">
    <!-- Community structure from Louvain (Q=0.5) -->
    <g transform="translate(85.898182 28.56) scale(0.12 -0.12)">
     <defs>
      <path id="DejaVuSans-43" d="M 4122 4306 
L 4122 3641 
Q 3803 3938 3442 4084 
Q 3081 4231 2675 4231 
Q 1875 4231 1450 3742 
Q 1025 3253 1025 2328 
Q 1025 1406 1450 917 
Q 1875 428 2675 428 
Q 3081 428 3442 575 
Q 3803 722 4122 1019 
L 4122 359 
Q 3791 134 3420 21 
Q 3050 -91 2638 -91 
Q 1578 -91 968 557 
Q 359 1206 359 2328 
Q 359 3453 968 4101 
Q 1578 4750 2638 4750 
Q 3056 4750 3426 4639 
Q 3797 4528 4122 4306 
z
" transform="scale(0.015625)"/>
      <path id="DejaVuSans-6f" d="M 1959 3097 
Q 1497 3097 1228 2736 
Q 959 2375 959 1747 
Q 959 1119 1226 758 
Q 1494 397 1959 397 
Q 2419 397 2687 759 
Q 2956 1122 2956 1747 
Q 2956 2369 2687 2733 
Q 2419 3097 1959 3097 
z
M 1959 3584 
Q 2709 3584 3137 3096 
Q 3566 2609 3566 1747 
Q 3566 888 3137 398 
Q 2709 -91 1959 -91 
Q 1206 -91 779 398 
Q 353 888 353 1747 
Q 353 2609 779 3096 
Q 1206 3584 1959 3584 
z
" transform="scale(0.015625)"/>
      <path id="DejaVuSans-6d" d="M 3328 2828 
Q 3544 3216 3844 3400 
Q 4144 3584 4550 3584 
Q 5097 3584 5394 3201 
Q 5691 2819 5691 2113 
L 5691 0 
L 5113 0 
L 5113 2094 
Q 5113 2597 4934 2840 
Q 4756 3084 4391 3084 
Q 3944 3084 3684 2787 
Q 3425 2491 3425 1978 
L 3425 0 
L 2847 0 
L 2847 2094 
Q 2847 2600 2669 2842 
Q 2491 3084 2119 3084 
Q 1678 3084 1418 2786 
Q 1159 2488 1159 1978 
L 1159 0 
L 581 0 
L 581 3500 
L 1159 3500 
L 1159 2956 
Q 1356 3278 1631 3431 
Q 1906 3584 2284 3584 
Q 2666 3584 2933 3390 
Q 3200 3197 3328 2828 
z
" transform="scale(0.015625)"/>
      <path id="DejaVuSans-75" d="M 544 1381 
L 544 3500 
L 1119 3500 
L 1119 1403 
Q 1119 906 1312 657 
Q 1506 409 1894 409 
Q 2359 409 2629 706 
Q 2900 1003 2900 1516 
L 2900 3500 
L 3475 3500 
L 3475 0 
L 2900 0 
L 2900 538 
Q 2691 219 2414 64 
Q 2138 -91 1772 -91 
Q 1169 -91 856 284 
Q 544 659 544 1381 
z
M 1991 3584 
L 1991 3584 
z
" transform="scale(0.015625)"/>
      <path id="DejaVuSans-6e" d="M 3513 2113 
L 3513 0 
L 2938 0 
L 2938 2094 
Q 2938 2591 2744 2837 
Q 2550 3084 2163 3084 
Q 1697 3084 1428 2787 
Q 1159 2491 1159 1978 
L 1159 0 
L 581 0 
L 581 3500 
L 1159 3500 
L 1159 2956 
Q 1366 3272 1645 3428 
Q 1925 3584 2291 3584 
Q 2894 3584 3203 3211 
Q 3513 2838 3513 2113 
z
" transform="scale(0.015625)"/>
      <path id="DejaVuSans-69" d="M 603 3500 
L 1178 3500 
L 1178 0 
L 603 0 
L 603 3500 
z
M 603 4863 
L 1178 4863 
L 1178 4134 
L 603 4134 
L 603 4863 
z
" transform="scale(0.015625)"/>
      <path id="DejaVuSans-74" d="M 1172 4494 
L 1172 3500 
L 2356 3500 
L 2356 3053 
L 1172 3053 
L 1172 1153 
Q 1172 725 1289 603 
Q 1406 481 1766 481 
L 2356 481 
L 2356 0 
L 1766 0 
Q 1100 0 847 248 
Q 594 497 594 1153 
L 594 3053 
L 172 3053 
L 172 3500 
L 594 3500 
L 594 4494 
L 1172 4494 
z
" transform="scale(0.015625)"/>
      <path id="DejaVuSans-79" d="M 2059 -325 
Q 1816 -950 1584 -1140 
Q 1353 -1331 966 -1331 
L 506 -1331 
L 506 -850 
L 844 -850 
Q 1081 -850 1212 -737 
Q 1344 -625 1503 -206 
L 1606 56 
L 191 3500 
L 800 3500 
L 1894 763 
L 2988 3500 
L 3597 3500 
L 2059 -325 
z
" transform="scale(0.015625)"/>
      <path id="DejaVuSans-20" transform="scale(0.015625)"/>
      <path id="DejaVuSans-73" d="M 2834 3397 
L 2834 2853 
Q 2591 2978 2328 3040 
Q 2066 3103 1784 3103 
Q 1356 3103 1142 2972 
Q 928 2841 928 2578 
Q 928 2378 1081 2264 
Q 1234 2150 1697 2047 
L 1894 2003 
Q 2506 1872 2764 1633 
Q 3022 1394 3022 966 
Q 3022 478 2636 193 
Q 2250 -91 1575 -91 
Q 1294 -91 989 -36 
Q 684 19 347 128 
L 347 722 
Q 666 556 975 473 
Q 1284 391 1588 391 
Q 1994 391 2212 530 
Q 2431 669 2431 922 
Q 2431 1156 2273 1281 
Q 2116 1406 1581 1522 
L 1381 1569 
Q 847 1681 609 1914 
Q 372 2147 372 2553 
Q 372 3047 722 3315 
Q 1072 3584 1716 3584 
Q 2034 3584 2315 3537 
Q 2597 3491 2834 3397 
z
" transform="scale(0.015625)"/>
      <path id="DejaVuSans-72" d="M 2631 2963 
Q 2534 3019 2420 3045 
Q 2306 3072 2169 3072 
Q 1681 3072 1420 2755 
Q 1159 2438 1159 1844 
L 1159 0 
L 581 0 
L 581 3500 
L 1159 3500 
L 1159 2956 
Q 1341 3275 1631 3429 
Q 1922 3584 2338 3584 
Q 2397 3584 2469 3576 
Q 2541 3569 2628 3553 
L 2631 2963 
z
" transform="scale(0.015625)"/>
      <path id="DejaVuSans-63" d="M 3122 3366 
L 3122 2828 
Q 2878 2963 2633 3030 
Q 2388 3097 2138 3097 
Q 1578 3097 1268 2742 
Q 959 2388 959 1747 
Q 959 1106 1268 751 
Q 1578 397 2138 397 
Q 2388 397 2633 464 
Q 2878 531 3122 666 
L 3122 134 
Q 2881 22 2623 -34 
Q 2366 -91 2075 -91 
Q 1284 -91 818 406 
Q 353 903 353 1747 
Q 353 2603 823 3093 
Q 1294 3584 2113 3584 
Q 2378 3584 2631 3529 
Q 2884 3475 3122 3366 
z
" transform="scale(0.015625)"/>
      <path id="DejaVuSans-65" d="M 3597 1894 
L 3597 1613 
L 953 1613 
Q 991 1019 1311 708 
Q 1631 397 2203 397 
Q 2534 397 2845 478 
Q 3156 559 3463 722 
L 3463 178 
Q 3153 47 2828 -22 
Q 2503 -91 2169 -91 
Q 1331 -91 842 396 
Q 353 884 353 1716 
Q 353 2575 817 3079 
Q 1281 3584 2069 3584 
Q 2775 3584 3186 3129 
Q 3597 2675 3597 1894 
z
M 3022 2063 
Q 3016 2534 2758 2815 
Q 2500 3097 2075 3097 
Q 1594 3097 1305 2825 
Q 1016 2553 972 2059 
L 3022 2063 
z
" transform="scale(0.015625)"/>
      <path id="DejaVuSans-66" d="M 2375 4863 
L 2375 4384 
L 1825 4384 
Q 1516 4384 1395 4259 
Q 1275 4134 1275 3809 
L 1275 3500 
L 2222 3500 
L 2222 3053 
L 1275 3053 
L 1275 0 
L 697 0 
L 697 3053 
L 147 3053 
L 147 3500 
L 697 3500 
L 697 3744 
Q 697 4328 969 4595 
Q 1241 4863 1831 4863 
L 2375 4863 
z
" transform="scale(0.015625)"/>
      <path id="DejaVuSans-4c" d="M 628 4666 
L 1259 4666 
L 1259 531 
L 3531 531 
L 3531 0 
L 628 0 
L 628 4666 
z
" transform="scale(0.015625)"/>
      <path id="DejaVuSans-76" d="M 191 3500 
L 800 3500 
L 1894 563 
L 2988 3500 
L 3597 3500 
L 2284 0 
L 1503 0 
L 191 3500 
z
" transform="scale(0.015625)"/>
      <path id="DejaVuSans-61" d="M 2194 1759 
Q 1497 1759 1228 1600 
Q 959 1441 959 1056 
Q 959 750 1161 570 
Q 1363 391 1709 391 
Q 2188 391 2477 730 
Q 2766 1069 2766 1631 
L 2766 1759 
L 2194 1759 
z
M 3341 1997 
L 3341 0 
L 2766 0 
L 2766 531 
Q 2569 213 2275 61 
Q 1981 -91 1556 -91 
Q 1019 -91 701 211 
Q 384 513 384 1019 
Q 384 1609 779 1909 
Q 1175 2209 1959 2209 
L 2766 2209 
L 2766 2266 
Q 2766 2663 2505 2880 
Q 2244 3097 1772 3097 
Q 1472 3097 1187 3025 
Q 903 2953 641 2809 
L 641 3341 
Q 956 3463 1253 3523 
Q 1550 3584 1831 3584 
Q 2591 3584 2966 3190 
Q 3341 2797 3341 1997 
z
" transform="scale(0.015625)"/>
      <path id="DejaVuSans-28" d="M 1984 4856 
Q 1566 4138 1362 3434 
Q 1159 2731 1159 2009 
Q 1159 1288 1364 580 
Q 1569 -128 1984 -844 
L 1484 -844 
Q 1016 -109 783 600 
Q 550 1309 550 2009 
Q 550 2706 781 3412 
Q 1013 4119 1484 4856 
L 1984 4856 
z
" transform="scale(0.015625)"/>
      <path id="DejaVuSans-51" d="M 2522 4238 
Q 1834 4238 1429 3725 
Q 1025 3213 1025 2328 
Q 1025 1447 1429 934 
Q 1834 422 2522 422 
Q 3209 422 3611 934 
Q 4013 1447 4013 2328 
Q 4013 3213 3611 3725 
Q 3209 4238 2522 4238 
z
M 3406 84 
L 4238 -825 
L 3475 -825 
L 2784 -78 
Q 2681 -84 2626 -87 
Q 2572 -91 2522 -91 
Q 1538 -91 948 567 
Q 359 1225 359 2328 
Q 359 3434 948 4092 
Q 1538 4750 2522 4750 
Q 3503 4750 4090 4092 
Q 4678 3434 4678 2328 
Q 4678 1516 4351 937 
Q 4025 359 3406 84 
z
" transform="scale(0.015625)"/>
      <path id="DejaVuSans-3d" d="M 678 2906 
L 4684 2906 
L 4684 2381 
L 678 2381 
L 678 2906 
z
M 678 1631 
L 4684 1631 
L 4684 1100 
L 678 1100 
L 678 1631 
z
" transform="scale(0.015625)"/>
      <path id="DejaVuSans-30" d="M 2034 4250 
Q 1547 4250 1301 3770 
Q 1056 3291 1056 2328 
Q 1056 1369 1301 889 
Q 1547 409 2034 409 
Q 2525 409 2770 889 
Q 3016 1369 3016 2328 
Q 3016 3291 2770 3770 
Q 2525 4250 2034 4250 
z
M 2034 4750 
Q 2819 4750 3233 4129 
Q 3647 3509 3647 2328 
Q 3647 1150 3233 529 
Q 2819 -91 2034 -91 
Q 1250 -91 836 529 
Q 422 1150 422 2328 
Q 422 3509 836 4129 
Q 1250 4750 2034 4750 
z
" transform="scale(0.015625)"/>
      <path id="DejaVuSans-2e" d="M 684 794 
L 1344 794 
L 1344 0 
L 684 0 
L 684 794 
z
" transform="scale(0.015625)"/>
      <path id="DejaVuSans-35" d="M 691 4666 
L 3169 4666 
L 3169 4134 
L 1269 4134 
L 1269 2991 
Q 1406 3038 1543 3061 
Q 1681 3084 1819 3084 
Q 2600 3084 3056 2656 
Q 3513 2228 3513 1497 
Q 3513 744 3044 326 
Q 2575 -91 1722 -91 
Q 1428 -91 1123 -41 
Q 819 9 494 109 
L 494 744 
Q 775 591 1075 516 
Q 1375 441 1709 441 
Q 2250 441 2565 725 
Q 2881 1009 2881 1497 
Q 2881 1984 2565 2268 
Q 2250 2553 1709 2553 
Q 1456 2553 1204 2497 
Q 953 2441 691 2322 
L 691 4666 
z
" transform="scale(0.015625)"/>
      <path id="DejaVuSans-29" d="M 513 4856 
L 1013 4856 
Q 1481 4119 1714 3412 
Q 1947 2706 1947 2009 
Q 1947 1309 1714 600 
Q 1481 -109 1013 -844 
L 513 -844 
Q 928 -128 1133 580 
Q 1338 1288 1338 2009 
Q 1338 2731 1133 3434 
Q 928 4138 513 4856 
z
" transform="scale(0.015625)"/>
     </defs>
     <use xlink:href="#DejaVuSans-43"/>
     <use xlink:href="#DejaVuSans-6f" transform="translate(69.824219 0)"/>
     <use xlink:href="#DejaVuSans-6d" transform="translate(131.005859 0)"/>
     <use xlink:href="#DejaVuSans-6d" transform="translate(228.417969 0)"/>
     <use xlink:href="#DejaVuSans-75" transform="translate(325.830078 0)"/>
     <use xlink:href="#DejaVuSans-6e" transform="translate(389.208984 0)"/>
     <use xlink:href="#DejaVuSans-69" transform="translate(452.587891 0)"/>
     <use xlink:href="#DejaVuSans-74" transform="translate(480.371094 0)"/>
     <use xlink:href="#DejaVuSans-79" transform="translate(519.580078 0)"/>
     <use xlink:href="#DejaVuSans-20" transform="translate(578.759766 0)"/>
     <use xlink:href="#DejaVuSans-73" transform="translate(610.546875 0)"/>
     <use xlink:href="#DejaVuSans-74" transform="translate(662.646484 0)"/>
     <use xlink:href="#DejaVuSans-72" transform="translate(701.855469 0)"/>
     <use xlink:href="#DejaVuSans-75" transform="translate(742.96875 0)"/>
     <use xlink:href="#DejaVuSans-63" transform="translate(806.347656 0)"/>
     <use xlink:href="#DejaVuSans-74" transform="translate(861.328125 0)"/>
     <use xlink:href="#DejaVuSans-75" transform="translate(900.537109 0)"/>
     <use xlink:href="#DejaVuSans-72" transform="translate(963.916016 0)"/>
     <use xlink:href="#DejaVuSans-65" transform="translate(1002.779297 0)"/>
     <use xlink:href="#DejaVuSans-20" transform="translate(1064.302734 0)"/>
     <use xlink:href="#DejaVuSans-66" transform="translate(1096.089844 0)"/>
     <use xlink:href="#DejaVuSans-72" transform="translate(1131.294922 0)"/>
     <use xlink:href="#DejaVuSans-6f" transform="translate(1170.158203 0)"/>
     <use xlink:href="#DejaVuSans-6d" transform="translate(1231.339844 0)"/>
     <use xlink:href="#DejaVuSans-20" transform="translate(1328.751953 0)"/>
     <use xlink:href="#DejaVuSans-4c" transform="translate(1360.539062 0)"/>
     <use xlink:href="#DejaVuSans-6f" transform="translate(1414.501953 0)"/>
     <use xlink:href="#DejaVuSans-75" transform="translate(1475.683594 0)"/>
     <use xlink:href="#DejaVuSans-76" transform="translate(1539.0625 0)"/>
     <use xlink:href="#DejaVuSans-61" transform="translate(1598.242188 0)"/>
     <use xlink:href="#DejaVuSans-69" transform="translate(1659.521484 0)"/>
     <use xlink:href="#DejaVuSans-6e" transform="translate(1687.304688 0)"/>
     <use xlink:href="#DejaVuSans-20" transform="translate(1750.683594 0)"/>
     <use xlink:href="#DejaVuSans-28" transform="translate(1782.470703 0)"/>
     <use xlink:href="#DejaVuSans-51" transform="translate(1821.484375 0)"/>
     <use xlink:href="#DejaVuSans-3d" transform="translate(1900.195312 0)"/>
     <use xlink:href="#DejaVuSans-30" transform="translate(1983.984375 0)"/>
     <use xlink:href="#DejaVuSans-2e" transform="translate(2047.607422 0)"/>
     <use xlink:href="#DejaVuSans-35" transform="translate(2079.394531 0)"/>
     <use xlink:href="#DejaVuSans-29" transform="translate(2143.017578 0)"/>
    </g>
   </g>
  </g>
  <g id="axes_2">
   <g id="patch_35">
    <path d="M 405.685041 256.32 
L 636.678596 256.32 
L 636.678596 34.56 
L 405.685041 34.56 
z
" style="fill: #ffffff"/>
   </g>
   <g id="patch_36">
    <path d="M 551.945423 90.472462 
L 558.709785 66.913207 
L 559.127548 67.033156 
L 552.363187 90.592411 
M 552.154305 90.532437 
L 552.154305 90.532437 
" clip-path="url(#p02a8a5b27b)"/>
   </g>
   <g id="patch_37">
    <path d="M 552.062919 60.054004 
L 559.069591 66.816815 
L 558.767742 67.129548 
L 551.761071 60.366736 
M 551.911995 60.21037 
L 551.911995 60.21037 
" clip-path="url(#p02a8a5b27b)"/>
   </g>
   <g id="patch_38">
    <path d="M 517.64616 182.694713 
L 550.751395 94.633599 
L 551.158239 94.786546 
L 518.053003 182.847659 
M 517.849582 182.771186 
L 517.849582 182.771186 
" clip-path="url(#p02a8a5b27b)"/>
   </g>
   <g id="patch_39">
    <path d="M 524.720855 200.701991 
L 516.135786 186.954732 
L 516.504446 186.724506 
L 525.089515 200.471765 
M 524.905185 200.586878 
L 524.905185 200.586878 
" clip-path="url(#p02a8a5b27b)"/>
   </g>
   <g id="patch_40">
    <path d="M 525.679868 222.649459 
L 526.99067 204.258029 
L 527.424213 204.288928 
L 526.113411 222.680358 
M 525.896639 222.664909 
L 525.896639 222.664909 
" clip-path="url(#p02a8a5b27b)"/>
   </g>
   <g id="patch_41">
    <path d="M 514.636383 238.629236 
L 525.427421 226.853512 
L 525.747865 227.147161 
L 514.956827 238.922885 
M 514.796605 238.77606 
L 514.796605 238.77606 
" clip-path="url(#p02a8a5b27b)"/>
   </g>
   <g id="patch_42">
    <path d="M 475.163288 170.965867 
L 512.052913 241.880211 
L 511.667323 242.080795 
L 474.777697 171.166451 
M 474.970493 171.066159 
L 474.970493 171.066159 
" clip-path="url(#p02a8a5b27b)"/>
   </g>
   <g id="patch_43">
    <path d="M 463.407638 155.308084 
L 473.132151 167.071788 
L 472.797151 167.348717 
L 463.072639 155.585013 
M 463.240139 155.446548 
L 463.240139 155.446548 
" clip-path="url(#p02a8a5b27b)"/>
   </g>
   <g id="patch_44">
    <path d="M 443.775327 146.447589 
L 460.537961 151.889853 
L 460.403744 152.303254 
L 443.64111 146.86099 
M 443.708219 146.65429 
L 443.708219 146.65429 
" clip-path="url(#p02a8a5b27b)"/>
   </g>
   <g id="patch_45">
    <path d="M 424.624254 148.620807 
L 439.524247 145.100619 
L 439.624182 145.523616 
L 424.724189 149.043805 
M 424.674222 148.832306 
L 424.674222 148.832306 
" clip-path="url(#p02a8a5b27b)"/>
   </g>
   <g id="patch_46">
    <path d="M 573.46032 166.606976 
L 420.420866 150.047717 
L 420.467623 149.615597 
L 573.507077 166.174856 
M 573.483699 166.390916 
L 573.483699 166.390916 
" clip-path="url(#p02a8a5b27b)"/>
   </g>
   <g id="patch_47">
    <path d="M 599.300828 172.426477 
L 577.75247 167.069383 
L 577.857333 166.64758 
L 599.405692 172.004674 
M 599.35326 172.215576 
L 599.35326 172.215576 
" clip-path="url(#p02a8a5b27b)"/>
   </g>
   <g id="patch_48">
    <path d="M 619.358845 154.047719 
L 603.740407 173.400695 
L 603.402172 173.127728 
L 619.020609 153.774752 
M 619.189727 153.911236 
L 619.189727 153.911236 
" clip-path="url(#p02a8a5b27b)"/>
   </g>
   <g id="patch_49">
    <path d="M 615.313538 128.924105 
L 622.126595 150.463338 
L 621.712189 150.594418 
L 614.899133 129.055185 
M 615.106336 128.989645 
L 615.106336 128.989645 
" clip-path="url(#p02a8a5b27b)"/>
   </g>
   <g id="patch_50">
    <path d="M 523.4574 51.464654 
L 613.932237 124.676649 
L 613.658828 125.014527 
L 523.18399 51.802532 
M 523.320695 51.633593 
L 523.320695 51.633593 
" clip-path="url(#p02a8a5b27b)"/>
   </g>
   <g id="patch_51">
    <path d="M 544.547408 56.199784 
L 519.881871 49.108357 
L 520.001967 48.690636 
L 544.667505 55.782063 
M 544.607457 55.990924 
L 544.607457 55.990924 
" clip-path="url(#p02a8a5b27b)"/>
   </g>
   <g id="matplotlib.axis_3"/>
   <g id="matplotlib.axis_4"/>
   <g id="patch_52">
    <path d="M 558.918667 71.232678 
C 560.048298 71.232678 561.131815 70.783871 561.930586 69.985101 
C 562.729356 69.18633 563.178163 68.102813 563.178163 66.973182 
C 563.178163 65.84355 562.729356 64.760033 561.930586 63.961263 
C 561.131815 63.162492 560.048298 62.713685 558.918667 62.713685 
C 557.789035 62.713685 556.705518 63.162492 555.906748 63.961263 
C 555.107977 64.760033 554.65917 65.84355 554.65917 66.973182 
C 554.65917 68.102813 555.107977 69.18633 555.906748 69.985101 
C 556.705518 70.783871 557.789035 71.232678 558.918667 71.232678 
z
" clip-path="url(#p02a8a5b27b)" style="fill: #10aad8; stroke: #2c404c; stroke-width: 0.173857; stroke-linejoin: miter"/>
   </g>
   <g id="patch_53">
    <path d="M 550.954817 98.969569 
C 552.084449 98.969569 553.167966 98.520762 553.966736 97.721992 
C 554.765506 96.923221 555.214314 95.839704 555.214314 94.710073 
C 555.214314 93.580441 554.765506 92.496924 553.966736 91.698154 
C 553.167966 90.899383 552.084449 90.450576 550.954817 90.450576 
C 549.825185 90.450576 548.741668 90.899383 547.942898 91.698154 
C 547.144128 92.496924 546.69532 93.580441 546.69532 94.710073 
C 546.69532 95.839704 547.144128 96.923221 547.942898 97.721992 
C 548.741668 98.520762 549.825185 98.969569 550.954817 98.969569 
z
" clip-path="url(#p02a8a5b27b)" style="fill: #10aad8; stroke: #2c404c; stroke-width: 0.173857; stroke-linejoin: miter"/>
   </g>
   <g id="patch_54">
    <path d="M 516.320116 191.099116 
C 517.449748 191.099116 518.533265 190.650308 519.332035 189.851538 
C 520.130806 189.052768 520.579613 187.969251 520.579613 186.839619 
C 520.579613 185.709987 520.130806 184.62647 519.332035 183.8277 
C 518.533265 183.02893 517.449748 182.580122 516.320116 182.580122 
C 515.190485 182.580122 514.106968 183.02893 513.308197 183.8277 
C 512.509427 184.62647 512.06062 185.709987 512.06062 186.839619 
C 512.06062 187.969251 512.509427 189.052768 513.308197 189.851538 
C 514.106968 190.650308 515.190485 191.099116 516.320116 191.099116 
z
" clip-path="url(#p02a8a5b27b)" style="fill: #fab4d9; stroke: #2c404c; stroke-width: 0.173857; stroke-linejoin: miter"/>
   </g>
   <g id="patch_55">
    <path d="M 527.207442 208.532975 
C 528.337073 208.532975 529.42059 208.084168 530.219361 207.285397 
C 531.018131 206.486627 531.466938 205.40311 531.466938 204.273479 
C 531.466938 203.143847 531.018131 202.06033 530.219361 201.26156 
C 529.42059 200.462789 528.337073 200.013982 527.207442 200.013982 
C 526.07781 200.013982 524.994293 200.462789 524.195523 201.26156 
C 523.396753 202.06033 522.947945 203.143847 522.947945 204.273479 
C 522.947945 205.40311 523.396753 206.486627 524.195523 207.285397 
C 524.994293 208.084168 526.07781 208.532975 527.207442 208.532975 
z
" clip-path="url(#p02a8a5b27b)" style="fill: #fab4d9; stroke: #2c404c; stroke-width: 0.173857; stroke-linejoin: miter"/>
   </g>
   <g id="patch_56">
    <path d="M 525.587643 231.259833 
C 526.717275 231.259833 527.800792 230.811026 528.599562 230.012255 
C 529.398332 229.213485 529.84714 228.129968 529.84714 227.000336 
C 529.84714 225.870705 529.398332 224.787188 528.599562 223.988417 
C 527.800792 223.189647 526.717275 222.74084 525.587643 222.74084 
C 524.458011 222.74084 523.374494 223.189647 522.575724 223.988417 
C 521.776954 224.787188 521.328146 225.870705 521.328146 227.000336 
C 521.328146 228.129968 521.776954 229.213485 522.575724 230.012255 
C 523.374494 230.811026 524.458011 231.259833 525.587643 231.259833 
z
" clip-path="url(#p02a8a5b27b)" style="fill: #fab4d9; stroke: #2c404c; stroke-width: 0.173857; stroke-linejoin: miter"/>
   </g>
   <g id="patch_57">
    <path d="M 511.860118 246.24 
C 512.98975 246.24 514.073267 245.791193 514.872037 244.992422 
C 515.670807 244.193652 516.119615 243.110135 516.119615 241.980503 
C 516.119615 240.850872 515.670807 239.767355 514.872037 238.968584 
C 514.073267 238.169814 512.98975 237.721007 511.860118 237.721007 
C 510.730486 237.721007 509.646969 238.169814 508.848199 238.968584 
C 508.049429 239.767355 507.600621 240.850872 507.600621 241.980503 
C 507.600621 243.110135 508.049429 244.193652 508.848199 244.992422 
C 509.646969 245.791193 510.730486 246.24 511.860118 246.24 
z
" clip-path="url(#p02a8a5b27b)" style="fill: #fab4d9; stroke: #2c404c; stroke-width: 0.173857; stroke-linejoin: miter"/>
   </g>
   <g id="patch_58">
    <path d="M 472.964651 171.469749 
C 474.094283 171.469749 475.1778 171.020942 475.97657 170.222172 
C 476.77534 169.423401 477.224148 168.339884 477.224148 167.210253 
C 477.224148 166.080621 476.77534 164.997104 475.97657 164.198334 
C 475.1778 163.399564 474.094283 162.950756 472.964651 162.950756 
C 471.835019 162.950756 470.751502 163.399564 469.952732 164.198334 
C 469.153962 164.997104 468.705155 166.080621 468.705155 167.210253 
C 468.705155 168.339884 469.153962 169.423401 469.952732 170.222172 
C 470.751502 171.020942 471.835019 171.469749 472.964651 171.469749 
z
" clip-path="url(#p02a8a5b27b)" style="fill: #803f75; stroke: #2c404c; stroke-width: 0.173857; stroke-linejoin: miter"/>
   </g>
   <g id="patch_59">
    <path d="M 460.470852 156.35605 
C 461.600484 156.35605 462.684001 155.907243 463.482771 155.108473 
C 464.281542 154.309702 464.730349 153.226185 464.730349 152.096554 
C 464.730349 150.966922 464.281542 149.883405 463.482771 149.084635 
C 462.684001 148.285864 461.600484 147.837057 460.470852 147.837057 
C 459.341221 147.837057 458.257704 148.285864 457.458933 149.084635 
C 456.660163 149.883405 456.211356 150.966922 456.211356 152.096554 
C 456.211356 153.226185 456.660163 154.309702 457.458933 155.108473 
C 458.257704 155.907243 459.341221 156.35605 460.470852 156.35605 
z
" clip-path="url(#p02a8a5b27b)" style="fill: #803f75; stroke: #2c404c; stroke-width: 0.173857; stroke-linejoin: miter"/>
   </g>
   <g id="patch_60">
    <path d="M 439.574215 149.571614 
C 440.703847 149.571614 441.787364 149.122807 442.586134 148.324036 
C 443.384904 147.525266 443.833712 146.441749 443.833712 145.312118 
C 443.833712 144.182486 443.384904 143.098969 442.586134 142.300199 
C 441.787364 141.501428 440.703847 141.052621 439.574215 141.052621 
C 438.444583 141.052621 437.361066 141.501428 436.562296 142.300199 
C 435.763526 143.098969 435.314718 144.182486 435.314718 145.312118 
C 435.314718 146.441749 435.763526 147.525266 436.562296 148.324036 
C 437.361066 149.122807 438.444583 149.571614 439.574215 149.571614 
z
" clip-path="url(#p02a8a5b27b)" style="fill: #803f75; stroke: #2c404c; stroke-width: 0.173857; stroke-linejoin: miter"/>
   </g>
   <g id="patch_61">
    <path d="M 420.444244 154.091154 
C 421.573876 154.091154 422.657393 153.642346 423.456163 152.843576 
C 424.254934 152.044806 424.703741 150.961289 424.703741 149.831657 
C 424.703741 148.702025 424.254934 147.618508 423.456163 146.819738 
C 422.657393 146.020968 421.573876 145.57216 420.444244 145.57216 
C 419.314613 145.57216 418.231096 146.020968 417.432325 146.819738 
C 416.633555 147.618508 416.184748 148.702025 416.184748 149.831657 
C 416.184748 150.961289 416.633555 152.044806 417.432325 152.843576 
C 418.231096 153.642346 419.314613 154.091154 420.444244 154.091154 
z
" clip-path="url(#p02a8a5b27b)" style="fill: #803f75; stroke: #2c404c; stroke-width: 0.173857; stroke-linejoin: miter"/>
   </g>
   <g id="patch_62">
    <path d="M 577.804902 171.117978 
C 578.934533 171.117978 580.01805 170.66917 580.816821 169.8704 
C 581.615591 169.07163 582.064398 167.988113 582.064398 166.858481 
C 582.064398 165.728849 581.615591 164.645332 580.816821 163.846562 
C 580.01805 163.047792 578.934533 162.598984 577.804902 162.598984 
C 576.67527 162.598984 575.591753 163.047792 574.792983 163.846562 
C 573.994212 164.645332 573.545405 165.728849 573.545405 166.858481 
C 573.545405 167.988113 573.994212 169.07163 574.792983 169.8704 
C 575.591753 170.66917 576.67527 171.117978 577.804902 171.117978 
z
" clip-path="url(#p02a8a5b27b)" style="fill: #41b2bf; stroke: #2c404c; stroke-width: 0.173857; stroke-linejoin: miter"/>
   </g>
   <g id="patch_63">
    <path d="M 603.57129 177.523708 
C 604.700921 177.523708 605.784438 177.074901 606.583209 176.27613 
C 607.381979 175.47736 607.830786 174.393843 607.830786 173.264211 
C 607.830786 172.13458 607.381979 171.051063 606.583209 170.252292 
C 605.784438 169.453522 604.700921 169.004715 603.57129 169.004715 
C 602.441658 169.004715 601.358141 169.453522 600.559371 170.252292 
C 599.7606 171.051063 599.311793 172.13458 599.311793 173.264211 
C 599.311793 174.393843 599.7606 175.47736 600.559371 176.27613 
C 601.358141 177.074901 602.441658 177.523708 603.57129 177.523708 
z
" clip-path="url(#p02a8a5b27b)" style="fill: #41b2bf; stroke: #2c404c; stroke-width: 0.173857; stroke-linejoin: miter"/>
   </g>
   <g id="patch_64">
    <path d="M 621.919392 154.788375 
C 623.049024 154.788375 624.132541 154.339568 624.931311 153.540797 
C 625.730081 152.742027 626.178889 151.65851 626.178889 150.528878 
C 626.178889 149.399247 625.730081 148.31573 624.931311 147.516959 
C 624.132541 146.718189 623.049024 146.269382 621.919392 146.269382 
C 620.78976 146.269382 619.706243 146.718189 618.907473 147.516959 
C 618.108703 148.31573 617.659895 149.399247 617.659895 150.528878 
C 617.659895 151.65851 618.108703 152.742027 618.907473 153.540797 
C 619.706243 154.339568 620.78976 154.788375 621.919392 154.788375 
z
" clip-path="url(#p02a8a5b27b)" style="fill: #41b2bf; stroke: #2c404c; stroke-width: 0.173857; stroke-linejoin: miter"/>
   </g>
   <g id="patch_65">
    <path d="M 613.795533 129.105084 
C 614.925164 129.105084 616.008681 128.656277 616.807452 127.857507 
C 617.606222 127.058737 618.055029 125.97522 618.055029 124.845588 
C 618.055029 123.715956 617.606222 122.632439 616.807452 121.833669 
C 616.008681 121.034899 614.925164 120.586091 613.795533 120.586091 
C 612.665901 120.586091 611.582384 121.034899 610.783614 121.833669 
C 609.984843 122.632439 609.536036 123.715956 609.536036 124.845588 
C 609.536036 125.97522 609.984843 127.058737 610.783614 127.857507 
C 611.582384 128.656277 612.665901 129.105084 613.795533 129.105084 
z
" clip-path="url(#p02a8a5b27b)" style="fill: #41b2bf; stroke: #2c404c; stroke-width: 0.173857; stroke-linejoin: miter"/>
   </g>
   <g id="patch_66">
    <path d="M 519.941919 53.158993 
C 521.071551 53.158993 522.155068 52.710186 522.953838 51.911416 
C 523.752608 51.112645 524.201415 50.029128 524.201415 48.899497 
C 524.201415 47.769865 523.752608 46.686348 522.953838 45.887578 
C 522.155068 45.088807 521.071551 44.64 519.941919 44.64 
C 518.812287 44.64 517.72877 45.088807 516.93 45.887578 
C 516.13123 46.686348 515.682422 47.769865 515.682422 48.899497 
C 515.682422 50.029128 516.13123 51.112645 516.93 51.911416 
C 517.72877 52.710186 518.812287 53.158993 519.941919 53.158993 
z
" clip-path="url(#p02a8a5b27b)" style="fill: #10aad8; stroke: #2c404c; stroke-width: 0.173857; stroke-linejoin: miter"/>
   </g>
   <g id="patch_67">
    <path d="M 548.784669 61.451383 
C 549.9143 61.451383 550.997817 61.002576 551.796588 60.203806 
C 552.595358 59.405035 553.044165 58.321518 553.044165 57.191887 
C 553.044165 56.062255 552.595358 54.978738 551.796588 54.179968 
C 550.997817 53.381197 549.9143 52.93239 548.784669 52.93239 
C 547.655037 52.93239 546.57152 53.381197 545.77275 54.179968 
C 544.973979 54.978738 544.525172 56.062255 544.525172 57.191887 
C 544.525172 58.321518 544.973979 59.405035 545.77275 60.203806 
C 546.57152 61.002576 547.655037 61.451383 548.784669 61.451383 
z
" clip-path="url(#p02a8a5b27b)" style="fill: #10aad8; stroke: #2c404c; stroke-width: 0.173857; stroke-linejoin: miter"/>
   </g>
   <g id="text_2">
    <!-- Community structure from Advantage (Q=0.5) -->
    <g transform="translate(381.302131 28.56) scale(0.12 -0.12)">
     <defs>
      <path id="DejaVuSans-41" d="M 2188 4044 
L 1331 1722 
L 3047 1722 
L 2188 4044 
z
M 1831 4666 
L 2547 4666 
L 4325 0 
L 3669 0 
L 3244 1197 
L 1141 1197 
L 716 0 
L 50 0 
L 1831 4666 
z
" transform="scale(0.015625)"/>
      <path id="DejaVuSans-64" d="M 2906 2969 
L 2906 4863 
L 3481 4863 
L 3481 0 
L 2906 0 
L 2906 525 
Q 2725 213 2448 61 
Q 2172 -91 1784 -91 
Q 1150 -91 751 415 
Q 353 922 353 1747 
Q 353 2572 751 3078 
Q 1150 3584 1784 3584 
Q 2172 3584 2448 3432 
Q 2725 3281 2906 2969 
z
M 947 1747 
Q 947 1113 1208 752 
Q 1469 391 1925 391 
Q 2381 391 2643 752 
Q 2906 1113 2906 1747 
Q 2906 2381 2643 2742 
Q 2381 3103 1925 3103 
Q 1469 3103 1208 2742 
Q 947 2381 947 1747 
z
" transform="scale(0.015625)"/>
      <path id="DejaVuSans-67" d="M 2906 1791 
Q 2906 2416 2648 2759 
Q 2391 3103 1925 3103 
Q 1463 3103 1205 2759 
Q 947 2416 947 1791 
Q 947 1169 1205 825 
Q 1463 481 1925 481 
Q 2391 481 2648 825 
Q 2906 1169 2906 1791 
z
M 3481 434 
Q 3481 -459 3084 -895 
Q 2688 -1331 1869 -1331 
Q 1566 -1331 1297 -1286 
Q 1028 -1241 775 -1147 
L 775 -588 
Q 1028 -725 1275 -790 
Q 1522 -856 1778 -856 
Q 2344 -856 2625 -561 
Q 2906 -266 2906 331 
L 2906 616 
Q 2728 306 2450 153 
Q 2172 0 1784 0 
Q 1141 0 747 490 
Q 353 981 353 1791 
Q 353 2603 747 3093 
Q 1141 3584 1784 3584 
Q 2172 3584 2450 3431 
Q 2728 3278 2906 2969 
L 2906 3500 
L 3481 3500 
L 3481 434 
z
" transform="scale(0.015625)"/>
     </defs>
     <use xlink:href="#DejaVuSans-43"/>
     <use xlink:href="#DejaVuSans-6f" transform="translate(69.824219 0)"/>
     <use xlink:href="#DejaVuSans-6d" transform="translate(131.005859 0)"/>
     <use xlink:href="#DejaVuSans-6d" transform="translate(228.417969 0)"/>
     <use xlink:href="#DejaVuSans-75" transform="translate(325.830078 0)"/>
     <use xlink:href="#DejaVuSans-6e" transform="translate(389.208984 0)"/>
     <use xlink:href="#DejaVuSans-69" transform="translate(452.587891 0)"/>
     <use xlink:href="#DejaVuSans-74" transform="translate(480.371094 0)"/>
     <use xlink:href="#DejaVuSans-79" transform="translate(519.580078 0)"/>
     <use xlink:href="#DejaVuSans-20" transform="translate(578.759766 0)"/>
     <use xlink:href="#DejaVuSans-73" transform="translate(610.546875 0)"/>
     <use xlink:href="#DejaVuSans-74" transform="translate(662.646484 0)"/>
     <use xlink:href="#DejaVuSans-72" transform="translate(701.855469 0)"/>
     <use xlink:href="#DejaVuSans-75" transform="translate(742.96875 0)"/>
     <use xlink:href="#DejaVuSans-63" transform="translate(806.347656 0)"/>
     <use xlink:href="#DejaVuSans-74" transform="translate(861.328125 0)"/>
     <use xlink:href="#DejaVuSans-75" transform="translate(900.537109 0)"/>
     <use xlink:href="#DejaVuSans-72" transform="translate(963.916016 0)"/>
     <use xlink:href="#DejaVuSans-65" transform="translate(1002.779297 0)"/>
     <use xlink:href="#DejaVuSans-20" transform="translate(1064.302734 0)"/>
     <use xlink:href="#DejaVuSans-66" transform="translate(1096.089844 0)"/>
     <use xlink:href="#DejaVuSans-72" transform="translate(1131.294922 0)"/>
     <use xlink:href="#DejaVuSans-6f" transform="translate(1170.158203 0)"/>
     <use xlink:href="#DejaVuSans-6d" transform="translate(1231.339844 0)"/>
     <use xlink:href="#DejaVuSans-20" transform="translate(1328.751953 0)"/>
     <use xlink:href="#DejaVuSans-41" transform="translate(1360.539062 0)"/>
     <use xlink:href="#DejaVuSans-64" transform="translate(1427.197266 0)"/>
     <use xlink:href="#DejaVuSans-76" transform="translate(1490.673828 0)"/>
     <use xlink:href="#DejaVuSans-61" transform="translate(1549.853516 0)"/>
     <use xlink:href="#DejaVuSans-6e" transform="translate(1611.132812 0)"/>
     <use xlink:href="#DejaVuSans-74" transform="translate(1674.511719 0)"/>
     <use xlink:href="#DejaVuSans-61" transform="translate(1713.720703 0)"/>
     <use xlink:href="#DejaVuSans-67" transform="translate(1775 0)"/>
     <use xlink:href="#DejaVuSans-65" transform="translate(1838.476562 0)"/>
     <use xlink:href="#DejaVuSans-20" transform="translate(1900 0)"/>
     <use xlink:href="#DejaVuSans-28" transform="translate(1931.787109 0)"/>
     <use xlink:href="#DejaVuSans-51" transform="translate(1970.800781 0)"/>
     <use xlink:href="#DejaVuSans-3d" transform="translate(2049.511719 0)"/>
     <use xlink:href="#DejaVuSans-30" transform="translate(2133.300781 0)"/>
     <use xlink:href="#DejaVuSans-2e" transform="translate(2196.923828 0)"/>
     <use xlink:href="#DejaVuSans-35" transform="translate(2228.710938 0)"/>
     <use xlink:href="#DejaVuSans-29" transform="translate(2292.333984 0)"/>
    </g>
   </g>
  </g>
 </g>
 <defs>
  <clipPath id="pca79cd8f1a">
   <rect x="98.621924" y="34.56" width="236.392516" height="221.76"/>
  </clipPath>
  <clipPath id="p02a8a5b27b">
   <rect x="405.685041" y="34.56" width="230.993555" height="221.76"/>
  </clipPath>
 </defs>
</svg>
