<?xml version="1.0" encoding="utf-8" standalone="no"?>
<!DOCTYPE svg PUBLIC "-//W3C//DTD SVG 1.1//EN"
  "http://www.w3.org/Graphics/SVG/1.1/DTD/svg11.dtd">
<svg xmlns:xlink="http://www.w3.org/1999/xlink" width="936pt" height="432pt" viewBox="0 0 936 432" xmlns="http://www.w3.org/2000/svg" version="1.1">
 <metadata>
  <rdf:RDF xmlns:dc="http://purl.org/dc/elements/1.1/" xmlns:cc="http://creativecommons.org/ns#" xmlns:rdf="http://www.w3.org/1999/02/22-rdf-syntax-ns#">
   <cc:Work>
    <dc:type rdf:resource="http://purl.org/dc/dcmitype/StillImage"/>
    <dc:date>2024-10-29T08:25:19.686018</dc:date>
    <dc:format>image/svg+xml</dc:format>
    <dc:creator>
     <cc:Agent>
      <dc:title>Matplotlib v3.9.2, https://matplotlib.org/</dc:title>
     </cc:Agent>
    </dc:creator>
   </cc:Work>
  </rdf:RDF>
 </metadata>
 <defs>
  <style type="text/css">*{stroke-linejoin: round; stroke-linecap: butt}</style>
 </defs>
 <g id="figure_1">
  <g id="patch_1">
   <path d="M 0 432 
L 936 432 
L 936 0 
L 0 0 
z
" style="fill: #ffffff"/>
  </g>
  <g id="axes_1">
   <g id="patch_2">
    <path d="M 69.77 289.456 
L 909.975 289.456 
L 909.975 26.88 
L 69.77 26.88 
z
" style="fill: #ffffff"/>
   </g>
   <g id="matplotlib.axis_1">
    <g id="ytick_1">
     <g id="line2d_1">
      <defs>
       <path id="mee39eb8b70" d="M 0 0 
L -3.5 0 
" style="stroke: #000000; stroke-width: 0.8"/>
      </defs>
      <g>
       <use xlink:href="#mee39eb8b70" x="69.77" y="277.520727" style="stroke: #000000; stroke-width: 0.8"/>
      </g>
     </g>
     <g id="text_1">
      <!-- 0.7779 -->
      <g transform="translate(27.779375 281.319946) scale(0.1 -0.1)">
       <defs>
        <path id="DejaVuSans-30" d="M 2034 4250 
Q 1547 4250 1301 3770 
Q 1056 3291 1056 2328 
Q 1056 1369 1301 889 
Q 1547 409 2034 409 
Q 2525 409 2770 889 
Q 3016 1369 3016 2328 
Q 3016 3291 2770 3770 
Q 2525 4250 2034 4250 
z
M 2034 4750 
Q 2819 4750 3233 4129 
Q 3647 3509 3647 2328 
Q 3647 1150 3233 529 
Q 2819 -91 2034 -91 
Q 1250 -91 836 529 
Q 422 1150 422 2328 
Q 422 3509 836 4129 
Q 1250 4750 2034 4750 
z
" transform="scale(0.015625)"/>
        <path id="DejaVuSans-2e" d="M 684 794 
L 1344 794 
L 1344 0 
L 684 0 
L 684 794 
z
" transform="scale(0.015625)"/>
        <path id="DejaVuSans-37" d="M 525 4666 
L 3525 4666 
L 3525 4397 
L 1831 0 
L 1172 0 
L 2766 4134 
L 525 4134 
L 525 4666 
z
" transform="scale(0.015625)"/>
        <path id="DejaVuSans-39" d="M 703 97 
L 703 672 
Q 941 559 1184 500 
Q 1428 441 1663 441 
Q 2288 441 2617 861 
Q 2947 1281 2994 2138 
Q 2813 1869 2534 1725 
Q 2256 1581 1919 1581 
Q 1219 1581 811 2004 
Q 403 2428 403 3163 
Q 403 3881 828 4315 
Q 1253 4750 1959 4750 
Q 2769 4750 3195 4129 
Q 3622 3509 3622 2328 
Q 3622 1225 3098 567 
Q 2575 -91 1691 -91 
Q 1453 -91 1209 -44 
Q 966 3 703 97 
z
M 1959 2075 
Q 2384 2075 2632 2365 
Q 2881 2656 2881 3163 
Q 2881 3666 2632 3958 
Q 2384 4250 1959 4250 
Q 1534 4250 1286 3958 
Q 1038 3666 1038 3163 
Q 1038 2656 1286 2365 
Q 1534 2075 1959 2075 
z
" transform="scale(0.015625)"/>
       </defs>
       <use xlink:href="#DejaVuSans-30"/>
       <use xlink:href="#DejaVuSans-2e" x="63.623047"/>
       <use xlink:href="#DejaVuSans-37" x="95.410156"/>
       <use xlink:href="#DejaVuSans-37" x="159.033203"/>
       <use xlink:href="#DejaVuSans-37" x="222.65625"/>
       <use xlink:href="#DejaVuSans-39" x="286.279297"/>
      </g>
     </g>
    </g>
    <g id="ytick_2">
     <g id="line2d_2">
      <g>
       <use xlink:href="#mee39eb8b70" x="69.77" y="162.968963" style="stroke: #000000; stroke-width: 0.8"/>
      </g>
     </g>
     <g id="text_2">
      <!-- 0.7673 -->
      <g transform="translate(27.779375 166.768182) scale(0.1 -0.1)">
       <defs>
        <path id="DejaVuSans-36" d="M 2113 2584 
Q 1688 2584 1439 2293 
Q 1191 2003 1191 1497 
Q 1191 994 1439 701 
Q 1688 409 2113 409 
Q 2538 409 2786 701 
Q 3034 994 3034 1497 
Q 3034 2003 2786 2293 
Q 2538 2584 2113 2584 
z
M 3366 4563 
L 3366 3988 
Q 3128 4100 2886 4159 
Q 2644 4219 2406 4219 
Q 1781 4219 1451 3797 
Q 1122 3375 1075 2522 
Q 1259 2794 1537 2939 
Q 1816 3084 2150 3084 
Q 2853 3084 3261 2657 
Q 3669 2231 3669 1497 
Q 3669 778 3244 343 
Q 2819 -91 2113 -91 
Q 1303 -91 875 529 
Q 447 1150 447 2328 
Q 447 3434 972 4092 
Q 1497 4750 2381 4750 
Q 2619 4750 2861 4703 
Q 3103 4656 3366 4563 
z
" transform="scale(0.015625)"/>
        <path id="DejaVuSans-33" d="M 2597 2516 
Q 3050 2419 3304 2112 
Q 3559 1806 3559 1356 
Q 3559 666 3084 287 
Q 2609 -91 1734 -91 
Q 1441 -91 1130 -33 
Q 819 25 488 141 
L 488 750 
Q 750 597 1062 519 
Q 1375 441 1716 441 
Q 2309 441 2620 675 
Q 2931 909 2931 1356 
Q 2931 1769 2642 2001 
Q 2353 2234 1838 2234 
L 1294 2234 
L 1294 2753 
L 1863 2753 
Q 2328 2753 2575 2939 
Q 2822 3125 2822 3475 
Q 2822 3834 2567 4026 
Q 2313 4219 1838 4219 
Q 1578 4219 1281 4162 
Q 984 4106 628 3988 
L 628 4550 
Q 988 4650 1302 4700 
Q 1616 4750 1894 4750 
Q 2613 4750 3031 4423 
Q 3450 4097 3450 3541 
Q 3450 3153 3228 2886 
Q 3006 2619 2597 2516 
z
" transform="scale(0.015625)"/>
       </defs>
       <use xlink:href="#DejaVuSans-30"/>
       <use xlink:href="#DejaVuSans-2e" x="63.623047"/>
       <use xlink:href="#DejaVuSans-37" x="95.410156"/>
       <use xlink:href="#DejaVuSans-36" x="159.033203"/>
       <use xlink:href="#DejaVuSans-37" x="222.65625"/>
       <use xlink:href="#DejaVuSans-33" x="286.279297"/>
      </g>
     </g>
    </g>
    <g id="ytick_3">
     <g id="line2d_3">
      <g>
       <use xlink:href="#mee39eb8b70" x="69.77" y="95.50709" style="stroke: #000000; stroke-width: 0.8"/>
      </g>
     </g>
     <g id="text_3">
      <!-- 0.6988 -->
      <g transform="translate(27.779375 99.306309) scale(0.1 -0.1)">
       <defs>
        <path id="DejaVuSans-38" d="M 2034 2216 
Q 1584 2216 1326 1975 
Q 1069 1734 1069 1313 
Q 1069 891 1326 650 
Q 1584 409 2034 409 
Q 2484 409 2743 651 
Q 3003 894 3003 1313 
Q 3003 1734 2745 1975 
Q 2488 2216 2034 2216 
z
M 1403 2484 
Q 997 2584 770 2862 
Q 544 3141 544 3541 
Q 544 4100 942 4425 
Q 1341 4750 2034 4750 
Q 2731 4750 3128 4425 
Q 3525 4100 3525 3541 
Q 3525 3141 3298 2862 
Q 3072 2584 2669 2484 
Q 3125 2378 3379 2068 
Q 3634 1759 3634 1313 
Q 3634 634 3220 271 
Q 2806 -91 2034 -91 
Q 1263 -91 848 271 
Q 434 634 434 1313 
Q 434 1759 690 2068 
Q 947 2378 1403 2484 
z
M 1172 3481 
Q 1172 3119 1398 2916 
Q 1625 2713 2034 2713 
Q 2441 2713 2670 2916 
Q 2900 3119 2900 3481 
Q 2900 3844 2670 4047 
Q 2441 4250 2034 4250 
Q 1625 4250 1398 4047 
Q 1172 3844 1172 3481 
z
" transform="scale(0.015625)"/>
       </defs>
       <use xlink:href="#DejaVuSans-30"/>
       <use xlink:href="#DejaVuSans-2e" x="63.623047"/>
       <use xlink:href="#DejaVuSans-36" x="95.410156"/>
       <use xlink:href="#DejaVuSans-39" x="159.033203"/>
       <use xlink:href="#DejaVuSans-38" x="222.65625"/>
       <use xlink:href="#DejaVuSans-38" x="286.279297"/>
      </g>
     </g>
    </g>
    <g id="ytick_4">
     <g id="line2d_4">
      <g>
       <use xlink:href="#mee39eb8b70" x="69.77" y="57.32582" style="stroke: #000000; stroke-width: 0.8"/>
      </g>
     </g>
     <g id="text_4">
      <!-- 0.4793 -->
      <g transform="translate(27.779375 61.125039) scale(0.1 -0.1)">
       <defs>
        <path id="DejaVuSans-34" d="M 2419 4116 
L 825 1625 
L 2419 1625 
L 2419 4116 
z
M 2253 4666 
L 3047 4666 
L 3047 1625 
L 3713 1625 
L 3713 1100 
L 3047 1100 
L 3047 0 
L 2419 0 
L 2419 1100 
L 313 1100 
L 313 1709 
L 2253 4666 
z
" transform="scale(0.015625)"/>
       </defs>
       <use xlink:href="#DejaVuSans-30"/>
       <use xlink:href="#DejaVuSans-2e" x="63.623047"/>
       <use xlink:href="#DejaVuSans-34" x="95.410156"/>
       <use xlink:href="#DejaVuSans-37" x="159.033203"/>
       <use xlink:href="#DejaVuSans-39" x="222.65625"/>
       <use xlink:href="#DejaVuSans-33" x="286.279297"/>
      </g>
     </g>
    </g>
    <g id="ytick_5">
     <g id="line2d_5">
      <g>
       <use xlink:href="#mee39eb8b70" x="69.77" y="38.815273" style="stroke: #000000; stroke-width: 0.8"/>
      </g>
     </g>
     <g id="text_5">
      <!-- 0.0 -->
      <g transform="translate(46.866875 42.614491) scale(0.1 -0.1)">
       <use xlink:href="#DejaVuSans-30"/>
       <use xlink:href="#DejaVuSans-2e" x="63.623047"/>
       <use xlink:href="#DejaVuSans-30" x="95.410156"/>
      </g>
     </g>
    </g>
    <g id="text_6">
     <!-- Modularity (max $Q$) -->
     <g transform="translate(21.679375 206.618) rotate(-90) scale(0.1 -0.1)">
      <defs>
       <path id="DejaVuSans-4d" d="M 628 4666 
L 1569 4666 
L 2759 1491 
L 3956 4666 
L 4897 4666 
L 4897 0 
L 4281 0 
L 4281 4097 
L 3078 897 
L 2444 897 
L 1241 4097 
L 1241 0 
L 628 0 
L 628 4666 
z
" transform="scale(0.015625)"/>
       <path id="DejaVuSans-6f" d="M 1959 3097 
Q 1497 3097 1228 2736 
Q 959 2375 959 1747 
Q 959 1119 1226 758 
Q 1494 397 1959 397 
Q 2419 397 2687 759 
Q 2956 1122 2956 1747 
Q 2956 2369 2687 2733 
Q 2419 3097 1959 3097 
z
M 1959 3584 
Q 2709 3584 3137 3096 
Q 3566 2609 3566 1747 
Q 3566 888 3137 398 
Q 2709 -91 1959 -91 
Q 1206 -91 779 398 
Q 353 888 353 1747 
Q 353 2609 779 3096 
Q 1206 3584 1959 3584 
z
" transform="scale(0.015625)"/>
       <path id="DejaVuSans-64" d="M 2906 2969 
L 2906 4863 
L 3481 4863 
L 3481 0 
L 2906 0 
L 2906 525 
Q 2725 213 2448 61 
Q 2172 -91 1784 -91 
Q 1150 -91 751 415 
Q 353 922 353 1747 
Q 353 2572 751 3078 
Q 1150 3584 1784 3584 
Q 2172 3584 2448 3432 
Q 2725 3281 2906 2969 
z
M 947 1747 
Q 947 1113 1208 752 
Q 1469 391 1925 391 
Q 2381 391 2643 752 
Q 2906 1113 2906 1747 
Q 2906 2381 2643 2742 
Q 2381 3103 1925 3103 
Q 1469 3103 1208 2742 
Q 947 2381 947 1747 
z
" transform="scale(0.015625)"/>
       <path id="DejaVuSans-75" d="M 544 1381 
L 544 3500 
L 1119 3500 
L 1119 1403 
Q 1119 906 1312 657 
Q 1506 409 1894 409 
Q 2359 409 2629 706 
Q 2900 1003 2900 1516 
L 2900 3500 
L 3475 3500 
L 3475 0 
L 2900 0 
L 2900 538 
Q 2691 219 2414 64 
Q 2138 -91 1772 -91 
Q 1169 -91 856 284 
Q 544 659 544 1381 
z
M 1991 3584 
L 1991 3584 
z
" transform="scale(0.015625)"/>
       <path id="DejaVuSans-6c" d="M 603 4863 
L 1178 4863 
L 1178 0 
L 603 0 
L 603 4863 
z
" transform="scale(0.015625)"/>
       <path id="DejaVuSans-61" d="M 2194 1759 
Q 1497 1759 1228 1600 
Q 959 1441 959 1056 
Q 959 750 1161 570 
Q 1363 391 1709 391 
Q 2188 391 2477 730 
Q 2766 1069 2766 1631 
L 2766 1759 
L 2194 1759 
z
M 3341 1997 
L 3341 0 
L 2766 0 
L 2766 531 
Q 2569 213 2275 61 
Q 1981 -91 1556 -91 
Q 1019 -91 701 211 
Q 384 513 384 1019 
Q 384 1609 779 1909 
Q 1175 2209 1959 2209 
L 2766 2209 
L 2766 2266 
Q 2766 2663 2505 2880 
Q 2244 3097 1772 3097 
Q 1472 3097 1187 3025 
Q 903 2953 641 2809 
L 641 3341 
Q 956 3463 1253 3523 
Q 1550 3584 1831 3584 
Q 2591 3584 2966 3190 
Q 3341 2797 3341 1997 
z
" transform="scale(0.015625)"/>
       <path id="DejaVuSans-72" d="M 2631 2963 
Q 2534 3019 2420 3045 
Q 2306 3072 2169 3072 
Q 1681 3072 1420 2755 
Q 1159 2438 1159 1844 
L 1159 0 
L 581 0 
L 581 3500 
L 1159 3500 
L 1159 2956 
Q 1341 3275 1631 3429 
Q 1922 3584 2338 3584 
Q 2397 3584 2469 3576 
Q 2541 3569 2628 3553 
L 2631 2963 
z
" transform="scale(0.015625)"/>
       <path id="DejaVuSans-69" d="M 603 3500 
L 1178 3500 
L 1178 0 
L 603 0 
L 603 3500 
z
M 603 4863 
L 1178 4863 
L 1178 4134 
L 603 4134 
L 603 4863 
z
" transform="scale(0.015625)"/>
       <path id="DejaVuSans-74" d="M 1172 4494 
L 1172 3500 
L 2356 3500 
L 2356 3053 
L 1172 3053 
L 1172 1153 
Q 1172 725 1289 603 
Q 1406 481 1766 481 
L 2356 481 
L 2356 0 
L 1766 0 
Q 1100 0 847 248 
Q 594 497 594 1153 
L 594 3053 
L 172 3053 
L 172 3500 
L 594 3500 
L 594 4494 
L 1172 4494 
z
" transform="scale(0.015625)"/>
       <path id="DejaVuSans-79" d="M 2059 -325 
Q 1816 -950 1584 -1140 
Q 1353 -1331 966 -1331 
L 506 -1331 
L 506 -850 
L 844 -850 
Q 1081 -850 1212 -737 
Q 1344 -625 1503 -206 
L 1606 56 
L 191 3500 
L 800 3500 
L 1894 763 
L 2988 3500 
L 3597 3500 
L 2059 -325 
z
" transform="scale(0.015625)"/>
       <path id="DejaVuSans-20" transform="scale(0.015625)"/>
       <path id="DejaVuSans-28" d="M 1984 4856 
Q 1566 4138 1362 3434 
Q 1159 2731 1159 2009 
Q 1159 1288 1364 580 
Q 1569 -128 1984 -844 
L 1484 -844 
Q 1016 -109 783 600 
Q 550 1309 550 2009 
Q 550 2706 781 3412 
Q 1013 4119 1484 4856 
L 1984 4856 
z
" transform="scale(0.015625)"/>
       <path id="DejaVuSans-6d" d="M 3328 2828 
Q 3544 3216 3844 3400 
Q 4144 3584 4550 3584 
Q 5097 3584 5394 3201 
Q 5691 2819 5691 2113 
L 5691 0 
L 5113 0 
L 5113 2094 
Q 5113 2597 4934 2840 
Q 4756 3084 4391 3084 
Q 3944 3084 3684 2787 
Q 3425 2491 3425 1978 
L 3425 0 
L 2847 0 
L 2847 2094 
Q 2847 2600 2669 2842 
Q 2491 3084 2119 3084 
Q 1678 3084 1418 2786 
Q 1159 2488 1159 1978 
L 1159 0 
L 581 0 
L 581 3500 
L 1159 3500 
L 1159 2956 
Q 1356 3278 1631 3431 
Q 1906 3584 2284 3584 
Q 2666 3584 2933 3390 
Q 3200 3197 3328 2828 
z
" transform="scale(0.015625)"/>
       <path id="DejaVuSans-78" d="M 3513 3500 
L 2247 1797 
L 3578 0 
L 2900 0 
L 1881 1375 
L 863 0 
L 184 0 
L 1544 1831 
L 300 3500 
L 978 3500 
L 1906 2253 
L 2834 3500 
L 3513 3500 
z
" transform="scale(0.015625)"/>
       <path id="DejaVuSans-Oblique-51" d="M 2309 -84 
Q 2275 -88 2237 -89 
Q 2200 -91 2125 -91 
Q 1250 -91 756 411 
Q 263 913 263 1797 
Q 263 2319 452 2844 
Q 641 3369 978 3788 
Q 1369 4269 1858 4509 
Q 2347 4750 2938 4750 
Q 3794 4750 4287 4245 
Q 4781 3741 4781 2869 
Q 4781 1928 4265 1147 
Q 3750 366 2919 44 
L 3553 -825 
L 2847 -825 
L 2309 -84 
z
M 2919 4238 
Q 2400 4238 2003 3986 
Q 1606 3734 1313 3219 
Q 1125 2891 1026 2522 
Q 928 2153 928 1778 
Q 928 1128 1239 775 
Q 1550 422 2119 422 
Q 2631 422 3032 676 
Q 3434 931 3719 1434 
Q 3909 1772 4009 2142 
Q 4109 2513 4109 2881 
Q 4109 3528 3796 3883 
Q 3484 4238 2919 4238 
z
" transform="scale(0.015625)"/>
       <path id="DejaVuSans-29" d="M 513 4856 
L 1013 4856 
Q 1481 4119 1714 3412 
Q 1947 2706 1947 2009 
Q 1947 1309 1714 600 
Q 1481 -109 1013 -844 
L 513 -844 
Q 928 -128 1133 580 
Q 1338 1288 1338 2009 
Q 1338 2731 1133 3434 
Q 928 4138 513 4856 
z
" transform="scale(0.015625)"/>
      </defs>
      <use xlink:href="#DejaVuSans-4d" transform="translate(0 0.015625)"/>
      <use xlink:href="#DejaVuSans-6f" transform="translate(86.279297 0.015625)"/>
      <use xlink:href="#DejaVuSans-64" transform="translate(147.460938 0.015625)"/>
      <use xlink:href="#DejaVuSans-75" transform="translate(210.9375 0.015625)"/>
      <use xlink:href="#DejaVuSans-6c" transform="translate(274.316406 0.015625)"/>
      <use xlink:href="#DejaVuSans-61" transform="translate(302.099609 0.015625)"/>
      <use xlink:href="#DejaVuSans-72" transform="translate(363.378906 0.015625)"/>
      <use xlink:href="#DejaVuSans-69" transform="translate(404.492188 0.015625)"/>
      <use xlink:href="#DejaVuSans-74" transform="translate(432.275391 0.015625)"/>
      <use xlink:href="#DejaVuSans-79" transform="translate(471.484375 0.015625)"/>
      <use xlink:href="#DejaVuSans-20" transform="translate(530.664062 0.015625)"/>
      <use xlink:href="#DejaVuSans-28" transform="translate(562.451172 0.015625)"/>
      <use xlink:href="#DejaVuSans-6d" transform="translate(601.464844 0.015625)"/>
      <use xlink:href="#DejaVuSans-61" transform="translate(698.876953 0.015625)"/>
      <use xlink:href="#DejaVuSans-78" transform="translate(760.15625 0.015625)"/>
      <use xlink:href="#DejaVuSans-20" transform="translate(819.335938 0.015625)"/>
      <use xlink:href="#DejaVuSans-Oblique-51" transform="translate(851.123047 0.015625)"/>
      <use xlink:href="#DejaVuSans-29" transform="translate(929.833984 0.015625)"/>
     </g>
    </g>
   </g>
   <g id="LineCollection_1">
    <path d="M 126.86764 277.520727 
L 126.86764 162.968963 
" clip-path="url(#pc2a4238304)" style="fill: none; stroke: #808080; stroke-opacity: 0.8; stroke-width: 1.5"/>
   </g>
   <g id="LineCollection_2">
    <path d="M 107.961136 277.520727 
L 145.774143 277.520727 
" clip-path="url(#pc2a4238304)" style="fill: none; stroke: #6ab800; stroke-width: 5"/>
   </g>
   <g id="LineCollection_3">
    <path d="M 168.461946 277.520727 
L 168.461946 162.968963 
" clip-path="url(#pc2a4238304)" style="fill: none; stroke: #808080; stroke-opacity: 0.8; stroke-width: 1.5"/>
   </g>
   <g id="LineCollection_4">
    <path d="M 153.336744 277.520727 
L 183.587149 277.520727 
" clip-path="url(#pc2a4238304)" style="fill: none; stroke: #4d2518; stroke-width: 5"/>
   </g>
   <g id="LineCollection_5">
    <path d="M 206.274953 277.520727 
L 206.274953 162.968963 
" clip-path="url(#pc2a4238304)" style="fill: none; stroke: #808080; stroke-opacity: 0.8; stroke-width: 1.5"/>
   </g>
   <g id="LineCollection_6">
    <path d="M 191.14975 277.520727 
L 221.400155 277.520727 
" clip-path="url(#pc2a4238304)" style="fill: none; stroke: #2f5865; stroke-width: 5"/>
   </g>
   <g id="LineCollection_7">
    <path d="M 281.900965 277.520727 
L 281.900965 162.968963 
" clip-path="url(#pc2a4238304)" style="fill: none; stroke: #808080; stroke-opacity: 0.8; stroke-width: 1.5"/>
   </g>
   <g id="LineCollection_8">
    <path d="M 228.962757 277.520727 
L 334.839174 277.520727 
" clip-path="url(#pc2a4238304)" style="fill: none; stroke: #896baf; stroke-width: 5"/>
   </g>
   <g id="LineCollection_9">
    <path d="M 357.526978 277.520727 
L 357.526978 162.968963 
" clip-path="url(#pc2a4238304)" style="fill: none; stroke: #808080; stroke-opacity: 0.8; stroke-width: 1.5"/>
   </g>
   <g id="LineCollection_10">
    <path d="M 342.401775 277.520727 
L 372.65218 277.520727 
" clip-path="url(#pc2a4238304)" style="fill: none; stroke: #34e007; stroke-width: 5"/>
   </g>
   <g id="LineCollection_11">
    <path d="M 433.152991 277.520727 
L 433.152991 162.968963 
" clip-path="url(#pc2a4238304)" style="fill: none; stroke: #808080; stroke-opacity: 0.8; stroke-width: 1.5"/>
   </g>
   <g id="LineCollection_12">
    <path d="M 380.214782 277.520727 
L 486.091199 277.520727 
" clip-path="url(#pc2a4238304)" style="fill: none; stroke: #ab6a8e; stroke-width: 5"/>
   </g>
   <g id="LineCollection_13">
    <path d="M 504.997703 277.520727 
L 504.997703 162.968963 
" clip-path="url(#pc2a4238304)" style="fill: none; stroke: #808080; stroke-opacity: 0.8; stroke-width: 1.5"/>
   </g>
   <g id="LineCollection_14">
    <path d="M 493.653801 277.520727 
L 516.341604 277.520727 
" clip-path="url(#pc2a4238304)" style="fill: none; stroke: #2433cc; stroke-width: 5"/>
   </g>
   <g id="LineCollection_15">
    <path d="M 580.623715 277.520727 
L 580.623715 162.968963 
" clip-path="url(#pc2a4238304)" style="fill: none; stroke: #808080; stroke-opacity: 0.8; stroke-width: 1.5"/>
   </g>
   <g id="LineCollection_16">
    <path d="M 523.904206 277.520727 
L 637.343225 277.520727 
" clip-path="url(#pc2a4238304)" style="fill: none; stroke: #f750b1; stroke-width: 5"/>
   </g>
   <g id="LineCollection_17">
    <path d="M 690.281433 277.520727 
L 690.281433 162.968963 
" clip-path="url(#pc2a4238304)" style="fill: none; stroke: #808080; stroke-opacity: 0.8; stroke-width: 1.5"/>
   </g>
   <g id="LineCollection_18">
    <path d="M 644.905826 277.520727 
L 735.657041 277.520727 
" clip-path="url(#pc2a4238304)" style="fill: none; stroke: #dfe416; stroke-width: 5"/>
   </g>
   <g id="LineCollection_19">
    <path d="M 799.939152 277.520727 
L 799.939152 162.968963 
" clip-path="url(#pc2a4238304)" style="fill: none; stroke: #808080; stroke-opacity: 0.8; stroke-width: 1.5"/>
   </g>
   <g id="LineCollection_20">
    <path d="M 743.219642 277.520727 
L 856.658661 277.520727 
" clip-path="url(#pc2a4238304)" style="fill: none; stroke: #0a2be0; stroke-width: 5"/>
   </g>
   <g id="LineCollection_21">
    <path d="M 147.664793 162.968963 
L 147.664793 95.50709 
" clip-path="url(#pc2a4238304)" style="fill: none; stroke: #808080; stroke-opacity: 0.8; stroke-width: 1.5"/>
   </g>
   <g id="LineCollection_22">
    <path d="M 126.86764 162.968963 
L 168.461946 162.968963 
" clip-path="url(#pc2a4238304)" style="fill: none; stroke: #808080; stroke-opacity: 0.8; stroke-width: 1.5"/>
   </g>
   <g id="LineCollection_23">
    <path d="M 244.087959 162.968963 
L 244.087959 95.50709 
" clip-path="url(#pc2a4238304)" style="fill: none; stroke: #808080; stroke-opacity: 0.8; stroke-width: 1.5"/>
   </g>
   <g id="LineCollection_24">
    <path d="M 206.274953 162.968963 
L 281.900965 162.968963 
" clip-path="url(#pc2a4238304)" style="fill: none; stroke: #808080; stroke-opacity: 0.8; stroke-width: 1.5"/>
   </g>
   <g id="LineCollection_25">
    <path d="M 357.526978 162.968963 
L 357.526978 95.50709 
" clip-path="url(#pc2a4238304)" style="fill: none; stroke: #808080; stroke-opacity: 0.8; stroke-width: 1.5"/>
   </g>
   <g id="LineCollection_26">
    <path d="M 433.152991 162.968963 
L 433.152991 95.50709 
" clip-path="url(#pc2a4238304)" style="fill: none; stroke: #808080; stroke-opacity: 0.8; stroke-width: 1.5"/>
   </g>
   <g id="LineCollection_27">
    <path d="M 504.997703 162.968963 
L 504.997703 95.50709 
" clip-path="url(#pc2a4238304)" style="fill: none; stroke: #808080; stroke-opacity: 0.8; stroke-width: 1.5"/>
   </g>
   <g id="LineCollection_28">
    <path d="M 580.623715 162.968963 
L 580.623715 95.50709 
" clip-path="url(#pc2a4238304)" style="fill: none; stroke: #808080; stroke-opacity: 0.8; stroke-width: 1.5"/>
   </g>
   <g id="LineCollection_29">
    <path d="M 690.281433 162.968963 
L 690.281433 95.50709 
" clip-path="url(#pc2a4238304)" style="fill: none; stroke: #808080; stroke-opacity: 0.8; stroke-width: 1.5"/>
   </g>
   <g id="LineCollection_30">
    <path d="M 799.939152 162.968963 
L 799.939152 95.50709 
" clip-path="url(#pc2a4238304)" style="fill: none; stroke: #808080; stroke-opacity: 0.8; stroke-width: 1.5"/>
   </g>
   <g id="LineCollection_31">
    <path d="M 195.876376 95.50709 
L 195.876376 57.32582 
" clip-path="url(#pc2a4238304)" style="fill: none; stroke: #808080; stroke-opacity: 0.8; stroke-width: 1.5"/>
   </g>
   <g id="LineCollection_32">
    <path d="M 147.664793 95.50709 
L 244.087959 95.50709 
" clip-path="url(#pc2a4238304)" style="fill: none; stroke: #808080; stroke-opacity: 0.8; stroke-width: 1.5"/>
   </g>
   <g id="LineCollection_33">
    <path d="M 395.339984 95.50709 
L 395.339984 57.32582 
" clip-path="url(#pc2a4238304)" style="fill: none; stroke: #808080; stroke-opacity: 0.8; stroke-width: 1.5"/>
   </g>
   <g id="LineCollection_34">
    <path d="M 357.526978 95.50709 
L 433.152991 95.50709 
" clip-path="url(#pc2a4238304)" style="fill: none; stroke: #808080; stroke-opacity: 0.8; stroke-width: 1.5"/>
   </g>
   <g id="LineCollection_35">
    <path d="M 542.810709 95.50709 
L 542.810709 57.32582 
" clip-path="url(#pc2a4238304)" style="fill: none; stroke: #808080; stroke-opacity: 0.8; stroke-width: 1.5"/>
   </g>
   <g id="LineCollection_36">
    <path d="M 504.997703 95.50709 
L 580.623715 95.50709 
" clip-path="url(#pc2a4238304)" style="fill: none; stroke: #808080; stroke-opacity: 0.8; stroke-width: 1.5"/>
   </g>
   <g id="LineCollection_37">
    <path d="M 745.110293 95.50709 
L 745.110293 57.32582 
" clip-path="url(#pc2a4238304)" style="fill: none; stroke: #808080; stroke-opacity: 0.8; stroke-width: 1.5"/>
   </g>
   <g id="LineCollection_38">
    <path d="M 690.281433 95.50709 
L 799.939152 95.50709 
" clip-path="url(#pc2a4238304)" style="fill: none; stroke: #808080; stroke-opacity: 0.8; stroke-width: 1.5"/>
   </g>
   <g id="LineCollection_39">
    <path d="M 295.60818 57.32582 
L 295.60818 38.815273 
" clip-path="url(#pc2a4238304)" style="fill: none; stroke: #808080; stroke-opacity: 0.8; stroke-width: 1.5"/>
   </g>
   <g id="LineCollection_40">
    <path d="M 195.876376 57.32582 
L 395.339984 57.32582 
" clip-path="url(#pc2a4238304)" style="fill: none; stroke: #808080; stroke-opacity: 0.8; stroke-width: 1.5"/>
   </g>
   <g id="LineCollection_41">
    <path d="M 643.960501 57.32582 
L 643.960501 38.815273 
" clip-path="url(#pc2a4238304)" style="fill: none; stroke: #808080; stroke-opacity: 0.8; stroke-width: 1.5"/>
   </g>
   <g id="LineCollection_42">
    <path d="M 542.810709 57.32582 
L 745.110293 57.32582 
" clip-path="url(#pc2a4238304)" style="fill: none; stroke: #808080; stroke-opacity: 0.8; stroke-width: 1.5"/>
   </g>
   <g id="LineCollection_43">
    <path d="M 295.60818 38.815273 
L 643.960501 38.815273 
" clip-path="url(#pc2a4238304)" style="fill: none; stroke: #808080; stroke-opacity: 0.8; stroke-width: 1.5"/>
   </g>
   <g id="LineCollection_44">
    <path d="M 871.783864 277.520727 
L 871.783864 162.968963 
" clip-path="url(#pc2a4238304)" style="fill: none; stroke-dasharray: 5.55,2.4; stroke-dashoffset: 0; stroke: #808080; stroke-opacity: 0.6; stroke-width: 1.5"/>
   </g>
   <g id="LineCollection_45">
    <path d="M 867.246303 277.520727 
L 871.783864 277.520727 
" clip-path="url(#pc2a4238304)" style="fill: none; stroke: #808080; stroke-opacity: 0.6; stroke-width: 1.5"/>
   </g>
   <g id="LineCollection_46">
    <path d="M 867.246303 162.968963 
L 871.783864 162.968963 
" clip-path="url(#pc2a4238304)" style="fill: none; stroke: #808080; stroke-opacity: 0.6; stroke-width: 1.5"/>
   </g>
   <g id="LineCollection_47">
    <path d="M 871.783864 162.968963 
L 871.783864 95.50709 
" clip-path="url(#pc2a4238304)" style="fill: none; stroke-dasharray: 5.55,2.4; stroke-dashoffset: 0; stroke: #808080; stroke-opacity: 0.6; stroke-width: 1.5"/>
   </g>
   <g id="LineCollection_48">
    <path d="M 867.246303 162.968963 
L 871.783864 162.968963 
" clip-path="url(#pc2a4238304)" style="fill: none; stroke: #808080; stroke-opacity: 0.6; stroke-width: 1.5"/>
   </g>
   <g id="LineCollection_49">
    <path d="M 867.246303 95.50709 
L 871.783864 95.50709 
" clip-path="url(#pc2a4238304)" style="fill: none; stroke: #808080; stroke-opacity: 0.6; stroke-width: 1.5"/>
   </g>
   <g id="LineCollection_50">
    <path d="M 871.783864 95.50709 
L 871.783864 57.32582 
" clip-path="url(#pc2a4238304)" style="fill: none; stroke-dasharray: 5.55,2.4; stroke-dashoffset: 0; stroke: #808080; stroke-opacity: 0.6; stroke-width: 1.5"/>
   </g>
   <g id="LineCollection_51">
    <path d="M 867.246303 95.50709 
L 871.783864 95.50709 
" clip-path="url(#pc2a4238304)" style="fill: none; stroke: #808080; stroke-opacity: 0.6; stroke-width: 1.5"/>
   </g>
   <g id="LineCollection_52">
    <path d="M 867.246303 57.32582 
L 871.783864 57.32582 
" clip-path="url(#pc2a4238304)" style="fill: none; stroke: #808080; stroke-opacity: 0.6; stroke-width: 1.5"/>
   </g>
   <g id="LineCollection_53">
    <path d="M 871.783864 57.32582 
L 871.783864 38.815273 
" clip-path="url(#pc2a4238304)" style="fill: none; stroke-dasharray: 5.55,2.4; stroke-dashoffset: 0; stroke: #808080; stroke-opacity: 0.6; stroke-width: 1.5"/>
   </g>
   <g id="LineCollection_54">
    <path d="M 867.246303 57.32582 
L 871.783864 57.32582 
" clip-path="url(#pc2a4238304)" style="fill: none; stroke: #808080; stroke-opacity: 0.6; stroke-width: 1.5"/>
   </g>
   <g id="LineCollection_55">
    <path d="M 867.246303 38.815273 
L 871.783864 38.815273 
" clip-path="url(#pc2a4238304)" style="fill: none; stroke: #808080; stroke-opacity: 0.6; stroke-width: 1.5"/>
   </g>
   <g id="line2d_6">
    <path d="M 69.77 277.520727 
L 909.975 277.520727 
" clip-path="url(#pc2a4238304)" style="fill: none; stroke-dasharray: 2.96,1.28; stroke-dashoffset: 0; stroke: #808080; stroke-width: 0.8"/>
   </g>
   <g id="patch_3">
    <path d="M 69.77 289.456 
L 69.77 26.88 
" style="fill: none; stroke: #000000; stroke-width: 0.8; stroke-linejoin: miter; stroke-linecap: square"/>
   </g>
   <g id="text_7">
    <!-- 0.0106 -->
    <g style="fill: #808080" transform="translate(879.440149 223.00422) scale(0.1 -0.1)">
     <defs>
      <path id="DejaVuSans-31" d="M 794 531 
L 1825 531 
L 1825 4091 
L 703 3866 
L 703 4441 
L 1819 4666 
L 2450 4666 
L 2450 531 
L 3481 531 
L 3481 0 
L 794 0 
L 794 531 
z
" transform="scale(0.015625)"/>
     </defs>
     <use xlink:href="#DejaVuSans-30"/>
     <use xlink:href="#DejaVuSans-2e" x="63.623047"/>
     <use xlink:href="#DejaVuSans-30" x="95.410156"/>
     <use xlink:href="#DejaVuSans-31" x="159.033203"/>
     <use xlink:href="#DejaVuSans-30" x="222.65625"/>
     <use xlink:href="#DejaVuSans-36" x="286.279297"/>
    </g>
   </g>
   <g id="text_8">
    <!-- 0.0686 -->
    <g style="fill: #808080" transform="translate(879.440149 131.997402) scale(0.1 -0.1)">
     <use xlink:href="#DejaVuSans-30"/>
     <use xlink:href="#DejaVuSans-2e" x="63.623047"/>
     <use xlink:href="#DejaVuSans-30" x="95.410156"/>
     <use xlink:href="#DejaVuSans-36" x="159.033203"/>
     <use xlink:href="#DejaVuSans-38" x="222.65625"/>
     <use xlink:href="#DejaVuSans-36" x="286.279297"/>
    </g>
   </g>
   <g id="text_9">
    <!-- 0.2194 -->
    <g style="fill: #808080" transform="translate(879.440149 79.17583) scale(0.1 -0.1)">
     <defs>
      <path id="DejaVuSans-32" d="M 1228 531 
L 3431 531 
L 3431 0 
L 469 0 
L 469 531 
Q 828 903 1448 1529 
Q 2069 2156 2228 2338 
Q 2531 2678 2651 2914 
Q 2772 3150 2772 3378 
Q 2772 3750 2511 3984 
Q 2250 4219 1831 4219 
Q 1534 4219 1204 4116 
Q 875 4013 500 3803 
L 500 4441 
Q 881 4594 1212 4672 
Q 1544 4750 1819 4750 
Q 2544 4750 2975 4387 
Q 3406 4025 3406 3419 
Q 3406 3131 3298 2873 
Q 3191 2616 2906 2266 
Q 2828 2175 2409 1742 
Q 1991 1309 1228 531 
z
" transform="scale(0.015625)"/>
     </defs>
     <use xlink:href="#DejaVuSans-30"/>
     <use xlink:href="#DejaVuSans-2e" x="63.623047"/>
     <use xlink:href="#DejaVuSans-32" x="95.410156"/>
     <use xlink:href="#DejaVuSans-31" x="159.033203"/>
     <use xlink:href="#DejaVuSans-39" x="222.65625"/>
     <use xlink:href="#DejaVuSans-34" x="286.279297"/>
    </g>
   </g>
   <g id="text_10">
    <!-- 0.4793 -->
    <g style="fill: #808080" transform="translate(879.440149 50.829921) scale(0.1 -0.1)">
     <use xlink:href="#DejaVuSans-30"/>
     <use xlink:href="#DejaVuSans-2e" x="63.623047"/>
     <use xlink:href="#DejaVuSans-34" x="95.410156"/>
     <use xlink:href="#DejaVuSans-37" x="159.033203"/>
     <use xlink:href="#DejaVuSans-39" x="222.65625"/>
     <use xlink:href="#DejaVuSans-33" x="286.279297"/>
    </g>
   </g>
   <g id="text_11">
    <!-- Group 1 -->
    <g style="fill: #6ab800" transform="translate(110.233836 339.105429) rotate(-45) scale(0.12 -0.12)">
     <defs>
      <path id="DejaVuSans-Bold-47" d="M 4781 347 
Q 4331 128 3847 18 
Q 3363 -91 2847 -91 
Q 1681 -91 1000 561 
Q 319 1213 319 2328 
Q 319 3456 1012 4103 
Q 1706 4750 2913 4750 
Q 3378 4750 3804 4662 
Q 4231 4575 4609 4403 
L 4609 3438 
Q 4219 3659 3833 3768 
Q 3447 3878 3059 3878 
Q 2341 3878 1952 3476 
Q 1563 3075 1563 2328 
Q 1563 1588 1938 1184 
Q 2313 781 3003 781 
Q 3191 781 3352 804 
Q 3513 828 3641 878 
L 3641 1784 
L 2906 1784 
L 2906 2591 
L 4781 2591 
L 4781 347 
z
" transform="scale(0.015625)"/>
      <path id="DejaVuSans-Bold-72" d="M 3138 2547 
Q 2991 2616 2845 2648 
Q 2700 2681 2553 2681 
Q 2122 2681 1889 2404 
Q 1656 2128 1656 1613 
L 1656 0 
L 538 0 
L 538 3500 
L 1656 3500 
L 1656 2925 
Q 1872 3269 2151 3426 
Q 2431 3584 2822 3584 
Q 2878 3584 2943 3579 
Q 3009 3575 3134 3559 
L 3138 2547 
z
" transform="scale(0.015625)"/>
      <path id="DejaVuSans-Bold-6f" d="M 2203 2784 
Q 1831 2784 1636 2517 
Q 1441 2250 1441 1747 
Q 1441 1244 1636 976 
Q 1831 709 2203 709 
Q 2569 709 2762 976 
Q 2956 1244 2956 1747 
Q 2956 2250 2762 2517 
Q 2569 2784 2203 2784 
z
M 2203 3584 
Q 3106 3584 3614 3096 
Q 4122 2609 4122 1747 
Q 4122 884 3614 396 
Q 3106 -91 2203 -91 
Q 1297 -91 786 396 
Q 275 884 275 1747 
Q 275 2609 786 3096 
Q 1297 3584 2203 3584 
z
" transform="scale(0.015625)"/>
      <path id="DejaVuSans-Bold-75" d="M 500 1363 
L 500 3500 
L 1625 3500 
L 1625 3150 
Q 1625 2866 1622 2436 
Q 1619 2006 1619 1863 
Q 1619 1441 1641 1255 
Q 1663 1069 1716 984 
Q 1784 875 1895 815 
Q 2006 756 2150 756 
Q 2500 756 2700 1025 
Q 2900 1294 2900 1772 
L 2900 3500 
L 4019 3500 
L 4019 0 
L 2900 0 
L 2900 506 
Q 2647 200 2364 54 
Q 2081 -91 1741 -91 
Q 1134 -91 817 281 
Q 500 653 500 1363 
z
" transform="scale(0.015625)"/>
      <path id="DejaVuSans-Bold-70" d="M 1656 506 
L 1656 -1331 
L 538 -1331 
L 538 3500 
L 1656 3500 
L 1656 2988 
Q 1888 3294 2169 3439 
Q 2450 3584 2816 3584 
Q 3463 3584 3878 3070 
Q 4294 2556 4294 1747 
Q 4294 938 3878 423 
Q 3463 -91 2816 -91 
Q 2450 -91 2169 54 
Q 1888 200 1656 506 
z
M 2400 2772 
Q 2041 2772 1848 2508 
Q 1656 2244 1656 1747 
Q 1656 1250 1848 986 
Q 2041 722 2400 722 
Q 2759 722 2948 984 
Q 3138 1247 3138 1747 
Q 3138 2247 2948 2509 
Q 2759 2772 2400 2772 
z
" transform="scale(0.015625)"/>
      <path id="DejaVuSans-Bold-20" transform="scale(0.015625)"/>
      <path id="DejaVuSans-Bold-31" d="M 750 831 
L 1813 831 
L 1813 3847 
L 722 3622 
L 722 4441 
L 1806 4666 
L 2950 4666 
L 2950 831 
L 4013 831 
L 4013 0 
L 750 0 
L 750 831 
z
" transform="scale(0.015625)"/>
     </defs>
     <use xlink:href="#DejaVuSans-Bold-47"/>
     <use xlink:href="#DejaVuSans-Bold-72" x="82.080078"/>
     <use xlink:href="#DejaVuSans-Bold-6f" x="131.396484"/>
     <use xlink:href="#DejaVuSans-Bold-75" x="200.097656"/>
     <use xlink:href="#DejaVuSans-Bold-70" x="271.289062"/>
     <use xlink:href="#DejaVuSans-Bold-20" x="342.871094"/>
     <use xlink:href="#DejaVuSans-Bold-31" x="377.685547"/>
    </g>
   </g>
   <g id="text_12">
    <!-- Group 2 -->
    <g style="fill: #4d2518" transform="translate(151.828143 339.105429) rotate(-45) scale(0.12 -0.12)">
     <defs>
      <path id="DejaVuSans-Bold-32" d="M 1844 884 
L 3897 884 
L 3897 0 
L 506 0 
L 506 884 
L 2209 2388 
Q 2438 2594 2547 2791 
Q 2656 2988 2656 3200 
Q 2656 3528 2436 3728 
Q 2216 3928 1850 3928 
Q 1569 3928 1234 3808 
Q 900 3688 519 3450 
L 519 4475 
Q 925 4609 1322 4679 
Q 1719 4750 2100 4750 
Q 2938 4750 3402 4381 
Q 3866 4013 3866 3353 
Q 3866 2972 3669 2642 
Q 3472 2313 2841 1759 
L 1844 884 
z
" transform="scale(0.015625)"/>
     </defs>
     <use xlink:href="#DejaVuSans-Bold-47"/>
     <use xlink:href="#DejaVuSans-Bold-72" x="82.080078"/>
     <use xlink:href="#DejaVuSans-Bold-6f" x="131.396484"/>
     <use xlink:href="#DejaVuSans-Bold-75" x="200.097656"/>
     <use xlink:href="#DejaVuSans-Bold-70" x="271.289062"/>
     <use xlink:href="#DejaVuSans-Bold-20" x="342.871094"/>
     <use xlink:href="#DejaVuSans-Bold-32" x="377.685547"/>
    </g>
   </g>
   <g id="text_13">
    <!-- Group 3 -->
    <g style="fill: #2f5865" transform="translate(189.64115 339.105429) rotate(-45) scale(0.12 -0.12)">
     <defs>
      <path id="DejaVuSans-Bold-33" d="M 2981 2516 
Q 3453 2394 3698 2092 
Q 3944 1791 3944 1325 
Q 3944 631 3412 270 
Q 2881 -91 1863 -91 
Q 1503 -91 1142 -33 
Q 781 25 428 141 
L 428 1069 
Q 766 900 1098 814 
Q 1431 728 1753 728 
Q 2231 728 2486 893 
Q 2741 1059 2741 1369 
Q 2741 1688 2480 1852 
Q 2219 2016 1709 2016 
L 1228 2016 
L 1228 2791 
L 1734 2791 
Q 2188 2791 2409 2933 
Q 2631 3075 2631 3366 
Q 2631 3634 2415 3781 
Q 2200 3928 1806 3928 
Q 1516 3928 1219 3862 
Q 922 3797 628 3669 
L 628 4550 
Q 984 4650 1334 4700 
Q 1684 4750 2022 4750 
Q 2931 4750 3382 4451 
Q 3834 4153 3834 3553 
Q 3834 3144 3618 2883 
Q 3403 2622 2981 2516 
z
" transform="scale(0.015625)"/>
     </defs>
     <use xlink:href="#DejaVuSans-Bold-47"/>
     <use xlink:href="#DejaVuSans-Bold-72" x="82.080078"/>
     <use xlink:href="#DejaVuSans-Bold-6f" x="131.396484"/>
     <use xlink:href="#DejaVuSans-Bold-75" x="200.097656"/>
     <use xlink:href="#DejaVuSans-Bold-70" x="271.289062"/>
     <use xlink:href="#DejaVuSans-Bold-20" x="342.871094"/>
     <use xlink:href="#DejaVuSans-Bold-33" x="377.685547"/>
    </g>
   </g>
   <g id="text_14">
    <!-- Group 4 -->
    <g style="fill: #896baf" transform="translate(265.267162 339.105429) rotate(-45) scale(0.12 -0.12)">
     <defs>
      <path id="DejaVuSans-Bold-34" d="M 2356 3675 
L 1038 1722 
L 2356 1722 
L 2356 3675 
z
M 2156 4666 
L 3494 4666 
L 3494 1722 
L 4159 1722 
L 4159 850 
L 3494 850 
L 3494 0 
L 2356 0 
L 2356 850 
L 288 850 
L 288 1881 
L 2156 4666 
z
" transform="scale(0.015625)"/>
     </defs>
     <use xlink:href="#DejaVuSans-Bold-47"/>
     <use xlink:href="#DejaVuSans-Bold-72" x="82.080078"/>
     <use xlink:href="#DejaVuSans-Bold-6f" x="131.396484"/>
     <use xlink:href="#DejaVuSans-Bold-75" x="200.097656"/>
     <use xlink:href="#DejaVuSans-Bold-70" x="271.289062"/>
     <use xlink:href="#DejaVuSans-Bold-20" x="342.871094"/>
     <use xlink:href="#DejaVuSans-Bold-34" x="377.685547"/>
    </g>
   </g>
   <g id="text_15">
    <!-- Group 5 -->
    <g style="fill: #34e007" transform="translate(340.893175 339.105429) rotate(-45) scale(0.12 -0.12)">
     <defs>
      <path id="DejaVuSans-Bold-35" d="M 678 4666 
L 3669 4666 
L 3669 3781 
L 1638 3781 
L 1638 3059 
Q 1775 3097 1914 3117 
Q 2053 3138 2203 3138 
Q 3056 3138 3531 2711 
Q 4006 2284 4006 1522 
Q 4006 766 3489 337 
Q 2972 -91 2053 -91 
Q 1656 -91 1267 -14 
Q 878 63 494 219 
L 494 1166 
Q 875 947 1217 837 
Q 1559 728 1863 728 
Q 2300 728 2551 942 
Q 2803 1156 2803 1522 
Q 2803 1891 2551 2103 
Q 2300 2316 1863 2316 
Q 1603 2316 1309 2248 
Q 1016 2181 678 2041 
L 678 4666 
z
" transform="scale(0.015625)"/>
     </defs>
     <use xlink:href="#DejaVuSans-Bold-47"/>
     <use xlink:href="#DejaVuSans-Bold-72" x="82.080078"/>
     <use xlink:href="#DejaVuSans-Bold-6f" x="131.396484"/>
     <use xlink:href="#DejaVuSans-Bold-75" x="200.097656"/>
     <use xlink:href="#DejaVuSans-Bold-70" x="271.289062"/>
     <use xlink:href="#DejaVuSans-Bold-20" x="342.871094"/>
     <use xlink:href="#DejaVuSans-Bold-35" x="377.685547"/>
    </g>
   </g>
   <g id="text_16">
    <!-- Group 6 -->
    <g style="fill: #ab6a8e" transform="translate(416.519187 339.105429) rotate(-45) scale(0.12 -0.12)">
     <defs>
      <path id="DejaVuSans-Bold-36" d="M 2316 2303 
Q 2000 2303 1842 2098 
Q 1684 1894 1684 1484 
Q 1684 1075 1842 870 
Q 2000 666 2316 666 
Q 2634 666 2792 870 
Q 2950 1075 2950 1484 
Q 2950 1894 2792 2098 
Q 2634 2303 2316 2303 
z
M 3803 4544 
L 3803 3681 
Q 3506 3822 3243 3889 
Q 2981 3956 2731 3956 
Q 2194 3956 1894 3657 
Q 1594 3359 1544 2772 
Q 1750 2925 1990 3001 
Q 2231 3078 2516 3078 
Q 3231 3078 3670 2659 
Q 4109 2241 4109 1563 
Q 4109 813 3618 361 
Q 3128 -91 2303 -91 
Q 1394 -91 895 523 
Q 397 1138 397 2266 
Q 397 3422 980 4083 
Q 1563 4744 2578 4744 
Q 2900 4744 3203 4694 
Q 3506 4644 3803 4544 
z
" transform="scale(0.015625)"/>
     </defs>
     <use xlink:href="#DejaVuSans-Bold-47"/>
     <use xlink:href="#DejaVuSans-Bold-72" x="82.080078"/>
     <use xlink:href="#DejaVuSans-Bold-6f" x="131.396484"/>
     <use xlink:href="#DejaVuSans-Bold-75" x="200.097656"/>
     <use xlink:href="#DejaVuSans-Bold-70" x="271.289062"/>
     <use xlink:href="#DejaVuSans-Bold-20" x="342.871094"/>
     <use xlink:href="#DejaVuSans-Bold-36" x="377.685547"/>
    </g>
   </g>
   <g id="text_17">
    <!-- Group 7 -->
    <g style="fill: #2433cc" transform="translate(488.363899 339.105429) rotate(-45) scale(0.12 -0.12)">
     <defs>
      <path id="DejaVuSans-Bold-37" d="M 428 4666 
L 3944 4666 
L 3944 3988 
L 2125 0 
L 953 0 
L 2675 3781 
L 428 3781 
L 428 4666 
z
" transform="scale(0.015625)"/>
     </defs>
     <use xlink:href="#DejaVuSans-Bold-47"/>
     <use xlink:href="#DejaVuSans-Bold-72" x="82.080078"/>
     <use xlink:href="#DejaVuSans-Bold-6f" x="131.396484"/>
     <use xlink:href="#DejaVuSans-Bold-75" x="200.097656"/>
     <use xlink:href="#DejaVuSans-Bold-70" x="271.289062"/>
     <use xlink:href="#DejaVuSans-Bold-20" x="342.871094"/>
     <use xlink:href="#DejaVuSans-Bold-37" x="377.685547"/>
    </g>
   </g>
   <g id="text_18">
    <!-- Group 8 -->
    <g style="fill: #f750b1" transform="translate(563.989912 339.105429) rotate(-45) scale(0.12 -0.12)">
     <defs>
      <path id="DejaVuSans-Bold-38" d="M 2228 2088 
Q 1891 2088 1709 1903 
Q 1528 1719 1528 1375 
Q 1528 1031 1709 848 
Q 1891 666 2228 666 
Q 2563 666 2741 848 
Q 2919 1031 2919 1375 
Q 2919 1722 2741 1905 
Q 2563 2088 2228 2088 
z
M 1350 2484 
Q 925 2613 709 2878 
Q 494 3144 494 3541 
Q 494 4131 934 4440 
Q 1375 4750 2228 4750 
Q 3075 4750 3515 4442 
Q 3956 4134 3956 3541 
Q 3956 3144 3739 2878 
Q 3522 2613 3097 2484 
Q 3572 2353 3814 2058 
Q 4056 1763 4056 1313 
Q 4056 619 3595 264 
Q 3134 -91 2228 -91 
Q 1319 -91 855 264 
Q 391 619 391 1313 
Q 391 1763 633 2058 
Q 875 2353 1350 2484 
z
M 1631 3419 
Q 1631 3141 1786 2991 
Q 1941 2841 2228 2841 
Q 2509 2841 2662 2991 
Q 2816 3141 2816 3419 
Q 2816 3697 2662 3845 
Q 2509 3994 2228 3994 
Q 1941 3994 1786 3844 
Q 1631 3694 1631 3419 
z
" transform="scale(0.015625)"/>
     </defs>
     <use xlink:href="#DejaVuSans-Bold-47"/>
     <use xlink:href="#DejaVuSans-Bold-72" x="82.080078"/>
     <use xlink:href="#DejaVuSans-Bold-6f" x="131.396484"/>
     <use xlink:href="#DejaVuSans-Bold-75" x="200.097656"/>
     <use xlink:href="#DejaVuSans-Bold-70" x="271.289062"/>
     <use xlink:href="#DejaVuSans-Bold-20" x="342.871094"/>
     <use xlink:href="#DejaVuSans-Bold-38" x="377.685547"/>
    </g>
   </g>
   <g id="text_19">
    <!-- Group 9 -->
    <g style="fill: #dfe416" transform="translate(673.64763 339.105429) rotate(-45) scale(0.12 -0.12)">
     <defs>
      <path id="DejaVuSans-Bold-39" d="M 641 103 
L 641 966 
Q 928 831 1190 764 
Q 1453 697 1709 697 
Q 2247 697 2547 995 
Q 2847 1294 2900 1881 
Q 2688 1725 2447 1647 
Q 2206 1569 1925 1569 
Q 1209 1569 770 1986 
Q 331 2403 331 3084 
Q 331 3838 820 4291 
Q 1309 4744 2131 4744 
Q 3044 4744 3544 4128 
Q 4044 3513 4044 2388 
Q 4044 1231 3459 570 
Q 2875 -91 1856 -91 
Q 1528 -91 1228 -42 
Q 928 6 641 103 
z
M 2125 2350 
Q 2441 2350 2600 2554 
Q 2759 2759 2759 3169 
Q 2759 3575 2600 3781 
Q 2441 3988 2125 3988 
Q 1809 3988 1650 3781 
Q 1491 3575 1491 3169 
Q 1491 2759 1650 2554 
Q 1809 2350 2125 2350 
z
" transform="scale(0.015625)"/>
     </defs>
     <use xlink:href="#DejaVuSans-Bold-47"/>
     <use xlink:href="#DejaVuSans-Bold-72" x="82.080078"/>
     <use xlink:href="#DejaVuSans-Bold-6f" x="131.396484"/>
     <use xlink:href="#DejaVuSans-Bold-75" x="200.097656"/>
     <use xlink:href="#DejaVuSans-Bold-70" x="271.289062"/>
     <use xlink:href="#DejaVuSans-Bold-20" x="342.871094"/>
     <use xlink:href="#DejaVuSans-Bold-39" x="377.685547"/>
    </g>
   </g>
   <g id="text_20">
    <!-- Group 10 -->
    <g style="fill: #0a2be0" transform="translate(780.353399 345.009329) rotate(-45) scale(0.12 -0.12)">
     <defs>
      <path id="DejaVuSans-Bold-30" d="M 2944 2338 
Q 2944 3213 2780 3570 
Q 2616 3928 2228 3928 
Q 1841 3928 1675 3570 
Q 1509 3213 1509 2338 
Q 1509 1453 1675 1090 
Q 1841 728 2228 728 
Q 2613 728 2778 1090 
Q 2944 1453 2944 2338 
z
M 4147 2328 
Q 4147 1169 3647 539 
Q 3147 -91 2228 -91 
Q 1306 -91 806 539 
Q 306 1169 306 2328 
Q 306 3491 806 4120 
Q 1306 4750 2228 4750 
Q 3147 4750 3647 4120 
Q 4147 3491 4147 2328 
z
" transform="scale(0.015625)"/>
     </defs>
     <use xlink:href="#DejaVuSans-Bold-47"/>
     <use xlink:href="#DejaVuSans-Bold-72" x="82.080078"/>
     <use xlink:href="#DejaVuSans-Bold-6f" x="131.396484"/>
     <use xlink:href="#DejaVuSans-Bold-75" x="200.097656"/>
     <use xlink:href="#DejaVuSans-Bold-70" x="271.289062"/>
     <use xlink:href="#DejaVuSans-Bold-20" x="342.871094"/>
     <use xlink:href="#DejaVuSans-Bold-31" x="377.685547"/>
     <use xlink:href="#DejaVuSans-Bold-30" x="447.265625"/>
    </g>
   </g>
   <g id="text_21">
    <!-- Hierarchicies inside a clustered power-law network -->
    <g transform="translate(337.285937 20.88) scale(0.12 -0.12)">
     <defs>
      <path id="DejaVuSans-48" d="M 628 4666 
L 1259 4666 
L 1259 2753 
L 3553 2753 
L 3553 4666 
L 4184 4666 
L 4184 0 
L 3553 0 
L 3553 2222 
L 1259 2222 
L 1259 0 
L 628 0 
L 628 4666 
z
" transform="scale(0.015625)"/>
      <path id="DejaVuSans-65" d="M 3597 1894 
L 3597 1613 
L 953 1613 
Q 991 1019 1311 708 
Q 1631 397 2203 397 
Q 2534 397 2845 478 
Q 3156 559 3463 722 
L 3463 178 
Q 3153 47 2828 -22 
Q 2503 -91 2169 -91 
Q 1331 -91 842 396 
Q 353 884 353 1716 
Q 353 2575 817 3079 
Q 1281 3584 2069 3584 
Q 2775 3584 3186 3129 
Q 3597 2675 3597 1894 
z
M 3022 2063 
Q 3016 2534 2758 2815 
Q 2500 3097 2075 3097 
Q 1594 3097 1305 2825 
Q 1016 2553 972 2059 
L 3022 2063 
z
" transform="scale(0.015625)"/>
      <path id="DejaVuSans-63" d="M 3122 3366 
L 3122 2828 
Q 2878 2963 2633 3030 
Q 2388 3097 2138 3097 
Q 1578 3097 1268 2742 
Q 959 2388 959 1747 
Q 959 1106 1268 751 
Q 1578 397 2138 397 
Q 2388 397 2633 464 
Q 2878 531 3122 666 
L 3122 134 
Q 2881 22 2623 -34 
Q 2366 -91 2075 -91 
Q 1284 -91 818 406 
Q 353 903 353 1747 
Q 353 2603 823 3093 
Q 1294 3584 2113 3584 
Q 2378 3584 2631 3529 
Q 2884 3475 3122 3366 
z
" transform="scale(0.015625)"/>
      <path id="DejaVuSans-68" d="M 3513 2113 
L 3513 0 
L 2938 0 
L 2938 2094 
Q 2938 2591 2744 2837 
Q 2550 3084 2163 3084 
Q 1697 3084 1428 2787 
Q 1159 2491 1159 1978 
L 1159 0 
L 581 0 
L 581 4863 
L 1159 4863 
L 1159 2956 
Q 1366 3272 1645 3428 
Q 1925 3584 2291 3584 
Q 2894 3584 3203 3211 
Q 3513 2838 3513 2113 
z
" transform="scale(0.015625)"/>
      <path id="DejaVuSans-73" d="M 2834 3397 
L 2834 2853 
Q 2591 2978 2328 3040 
Q 2066 3103 1784 3103 
Q 1356 3103 1142 2972 
Q 928 2841 928 2578 
Q 928 2378 1081 2264 
Q 1234 2150 1697 2047 
L 1894 2003 
Q 2506 1872 2764 1633 
Q 3022 1394 3022 966 
Q 3022 478 2636 193 
Q 2250 -91 1575 -91 
Q 1294 -91 989 -36 
Q 684 19 347 128 
L 347 722 
Q 666 556 975 473 
Q 1284 391 1588 391 
Q 1994 391 2212 530 
Q 2431 669 2431 922 
Q 2431 1156 2273 1281 
Q 2116 1406 1581 1522 
L 1381 1569 
Q 847 1681 609 1914 
Q 372 2147 372 2553 
Q 372 3047 722 3315 
Q 1072 3584 1716 3584 
Q 2034 3584 2315 3537 
Q 2597 3491 2834 3397 
z
" transform="scale(0.015625)"/>
      <path id="DejaVuSans-6e" d="M 3513 2113 
L 3513 0 
L 2938 0 
L 2938 2094 
Q 2938 2591 2744 2837 
Q 2550 3084 2163 3084 
Q 1697 3084 1428 2787 
Q 1159 2491 1159 1978 
L 1159 0 
L 581 0 
L 581 3500 
L 1159 3500 
L 1159 2956 
Q 1366 3272 1645 3428 
Q 1925 3584 2291 3584 
Q 2894 3584 3203 3211 
Q 3513 2838 3513 2113 
z
" transform="scale(0.015625)"/>
      <path id="DejaVuSans-70" d="M 1159 525 
L 1159 -1331 
L 581 -1331 
L 581 3500 
L 1159 3500 
L 1159 2969 
Q 1341 3281 1617 3432 
Q 1894 3584 2278 3584 
Q 2916 3584 3314 3078 
Q 3713 2572 3713 1747 
Q 3713 922 3314 415 
Q 2916 -91 2278 -91 
Q 1894 -91 1617 61 
Q 1341 213 1159 525 
z
M 3116 1747 
Q 3116 2381 2855 2742 
Q 2594 3103 2138 3103 
Q 1681 3103 1420 2742 
Q 1159 2381 1159 1747 
Q 1159 1113 1420 752 
Q 1681 391 2138 391 
Q 2594 391 2855 752 
Q 3116 1113 3116 1747 
z
" transform="scale(0.015625)"/>
      <path id="DejaVuSans-77" d="M 269 3500 
L 844 3500 
L 1563 769 
L 2278 3500 
L 2956 3500 
L 3675 769 
L 4391 3500 
L 4966 3500 
L 4050 0 
L 3372 0 
L 2619 2869 
L 1863 0 
L 1184 0 
L 269 3500 
z
" transform="scale(0.015625)"/>
      <path id="DejaVuSans-2d" d="M 313 2009 
L 1997 2009 
L 1997 1497 
L 313 1497 
L 313 2009 
z
" transform="scale(0.015625)"/>
      <path id="DejaVuSans-6b" d="M 581 4863 
L 1159 4863 
L 1159 1991 
L 2875 3500 
L 3609 3500 
L 1753 1863 
L 3688 0 
L 2938 0 
L 1159 1709 
L 1159 0 
L 581 0 
L 581 4863 
z
" transform="scale(0.015625)"/>
     </defs>
     <use xlink:href="#DejaVuSans-48"/>
     <use xlink:href="#DejaVuSans-69" x="75.195312"/>
     <use xlink:href="#DejaVuSans-65" x="102.978516"/>
     <use xlink:href="#DejaVuSans-72" x="164.501953"/>
     <use xlink:href="#DejaVuSans-61" x="205.615234"/>
     <use xlink:href="#DejaVuSans-72" x="266.894531"/>
     <use xlink:href="#DejaVuSans-63" x="305.757812"/>
     <use xlink:href="#DejaVuSans-68" x="360.738281"/>
     <use xlink:href="#DejaVuSans-69" x="424.117188"/>
     <use xlink:href="#DejaVuSans-63" x="451.900391"/>
     <use xlink:href="#DejaVuSans-69" x="506.880859"/>
     <use xlink:href="#DejaVuSans-65" x="534.664062"/>
     <use xlink:href="#DejaVuSans-73" x="596.1875"/>
     <use xlink:href="#DejaVuSans-20" x="648.287109"/>
     <use xlink:href="#DejaVuSans-69" x="680.074219"/>
     <use xlink:href="#DejaVuSans-6e" x="707.857422"/>
     <use xlink:href="#DejaVuSans-73" x="771.236328"/>
     <use xlink:href="#DejaVuSans-69" x="823.335938"/>
     <use xlink:href="#DejaVuSans-64" x="851.119141"/>
     <use xlink:href="#DejaVuSans-65" x="914.595703"/>
     <use xlink:href="#DejaVuSans-20" x="976.119141"/>
     <use xlink:href="#DejaVuSans-61" x="1007.90625"/>
     <use xlink:href="#DejaVuSans-20" x="1069.185547"/>
     <use xlink:href="#DejaVuSans-63" x="1100.972656"/>
     <use xlink:href="#DejaVuSans-6c" x="1155.953125"/>
     <use xlink:href="#DejaVuSans-75" x="1183.736328"/>
     <use xlink:href="#DejaVuSans-73" x="1247.115234"/>
     <use xlink:href="#DejaVuSans-74" x="1299.214844"/>
     <use xlink:href="#DejaVuSans-65" x="1338.423828"/>
     <use xlink:href="#DejaVuSans-72" x="1399.947266"/>
     <use xlink:href="#DejaVuSans-65" x="1438.810547"/>
     <use xlink:href="#DejaVuSans-64" x="1500.333984"/>
     <use xlink:href="#DejaVuSans-20" x="1563.810547"/>
     <use xlink:href="#DejaVuSans-70" x="1595.597656"/>
     <use xlink:href="#DejaVuSans-6f" x="1659.074219"/>
     <use xlink:href="#DejaVuSans-77" x="1720.255859"/>
     <use xlink:href="#DejaVuSans-65" x="1802.042969"/>
     <use xlink:href="#DejaVuSans-72" x="1863.566406"/>
     <use xlink:href="#DejaVuSans-2d" x="1898.304688"/>
     <use xlink:href="#DejaVuSans-6c" x="1934.388672"/>
     <use xlink:href="#DejaVuSans-61" x="1962.171875"/>
     <use xlink:href="#DejaVuSans-77" x="2023.451172"/>
     <use xlink:href="#DejaVuSans-20" x="2105.238281"/>
     <use xlink:href="#DejaVuSans-6e" x="2137.025391"/>
     <use xlink:href="#DejaVuSans-65" x="2200.404297"/>
     <use xlink:href="#DejaVuSans-74" x="2261.927734"/>
     <use xlink:href="#DejaVuSans-77" x="2301.136719"/>
     <use xlink:href="#DejaVuSans-6f" x="2382.923828"/>
     <use xlink:href="#DejaVuSans-72" x="2444.105469"/>
     <use xlink:href="#DejaVuSans-6b" x="2485.21875"/>
    </g>
   </g>
   <g id="legend_1">
    <g id="patch_4">
     <path d="M 112.502187 411.78235 
L 867.242812 411.78235 
Q 869.242812 411.78235 869.242812 409.78235 
L 869.242812 322.7136 
Q 869.242812 320.7136 867.242812 320.7136 
L 112.502187 320.7136 
Q 110.502187 320.7136 110.502187 322.7136 
L 110.502187 409.78235 
Q 110.502187 411.78235 112.502187 411.78235 
z
" style="fill: #ffffff; opacity: 0.8; stroke: #cccccc; stroke-linejoin: miter"/>
    </g>
    <g id="text_22">
     <!-- Clusters and their Nodes -->
     <g transform="translate(428.042031 332.312037) scale(0.1 -0.1)">
      <defs>
       <path id="DejaVuSans-43" d="M 4122 4306 
L 4122 3641 
Q 3803 3938 3442 4084 
Q 3081 4231 2675 4231 
Q 1875 4231 1450 3742 
Q 1025 3253 1025 2328 
Q 1025 1406 1450 917 
Q 1875 428 2675 428 
Q 3081 428 3442 575 
Q 3803 722 4122 1019 
L 4122 359 
Q 3791 134 3420 21 
Q 3050 -91 2638 -91 
Q 1578 -91 968 557 
Q 359 1206 359 2328 
Q 359 3453 968 4101 
Q 1578 4750 2638 4750 
Q 3056 4750 3426 4639 
Q 3797 4528 4122 4306 
z
" transform="scale(0.015625)"/>
       <path id="DejaVuSans-4e" d="M 628 4666 
L 1478 4666 
L 3547 763 
L 3547 4666 
L 4159 4666 
L 4159 0 
L 3309 0 
L 1241 3903 
L 1241 0 
L 628 0 
L 628 4666 
z
" transform="scale(0.015625)"/>
      </defs>
      <use xlink:href="#DejaVuSans-43"/>
      <use xlink:href="#DejaVuSans-6c" x="69.824219"/>
      <use xlink:href="#DejaVuSans-75" x="97.607422"/>
      <use xlink:href="#DejaVuSans-73" x="160.986328"/>
      <use xlink:href="#DejaVuSans-74" x="213.085938"/>
      <use xlink:href="#DejaVuSans-65" x="252.294922"/>
      <use xlink:href="#DejaVuSans-72" x="313.818359"/>
      <use xlink:href="#DejaVuSans-73" x="354.931641"/>
      <use xlink:href="#DejaVuSans-20" x="407.03125"/>
      <use xlink:href="#DejaVuSans-61" x="438.818359"/>
      <use xlink:href="#DejaVuSans-6e" x="500.097656"/>
      <use xlink:href="#DejaVuSans-64" x="563.476562"/>
      <use xlink:href="#DejaVuSans-20" x="626.953125"/>
      <use xlink:href="#DejaVuSans-74" x="658.740234"/>
      <use xlink:href="#DejaVuSans-68" x="697.949219"/>
      <use xlink:href="#DejaVuSans-65" x="761.328125"/>
      <use xlink:href="#DejaVuSans-69" x="822.851562"/>
      <use xlink:href="#DejaVuSans-72" x="850.634766"/>
      <use xlink:href="#DejaVuSans-20" x="891.748047"/>
      <use xlink:href="#DejaVuSans-4e" x="923.535156"/>
      <use xlink:href="#DejaVuSans-6f" x="998.339844"/>
      <use xlink:href="#DejaVuSans-64" x="1059.521484"/>
      <use xlink:href="#DejaVuSans-65" x="1122.998047"/>
      <use xlink:href="#DejaVuSans-73" x="1184.521484"/>
     </g>
    </g>
    <g id="line2d_7">
     <path d="M 114.502187 343.490162 
L 124.502187 343.490162 
L 134.502187 343.490162 
" style="fill: none; stroke: #ffffff; stroke-width: 1.5; stroke-linecap: square"/>
     <defs>
      <path id="m308a56d65b" d="M 0 5 
C 1.326016 5 2.597899 4.473168 3.535534 3.535534 
C 4.473168 2.597899 5 1.326016 5 0 
C 5 -1.326016 4.473168 -2.597899 3.535534 -3.535534 
C 2.597899 -4.473168 1.326016 -5 0 -5 
C -1.326016 -5 -2.597899 -4.473168 -3.535534 -3.535534 
C -4.473168 -2.597899 -5 -1.326016 -5 0 
C -5 1.326016 -4.473168 2.597899 -3.535534 3.535534 
C -2.597899 4.473168 -1.326016 5 0 5 
z
" style="stroke: #ffffff"/>
     </defs>
     <g>
      <use xlink:href="#m308a56d65b" x="124.502187" y="343.490162" style="fill: #6ab800; stroke: #ffffff"/>
     </g>
    </g>
    <g id="text_23">
     <!-- Group 1: [4, 5, 24, 64, 67, 94] -->
     <g style="fill: #6ab800" transform="translate(142.502187 346.990162) scale(0.1 -0.1)">
      <defs>
       <path id="DejaVuSans-47" d="M 3809 666 
L 3809 1919 
L 2778 1919 
L 2778 2438 
L 4434 2438 
L 4434 434 
Q 4069 175 3628 42 
Q 3188 -91 2688 -91 
Q 1594 -91 976 548 
Q 359 1188 359 2328 
Q 359 3472 976 4111 
Q 1594 4750 2688 4750 
Q 3144 4750 3555 4637 
Q 3966 4525 4313 4306 
L 4313 3634 
Q 3963 3931 3569 4081 
Q 3175 4231 2741 4231 
Q 1884 4231 1454 3753 
Q 1025 3275 1025 2328 
Q 1025 1384 1454 906 
Q 1884 428 2741 428 
Q 3075 428 3337 486 
Q 3600 544 3809 666 
z
" transform="scale(0.015625)"/>
       <path id="DejaVuSans-3a" d="M 750 794 
L 1409 794 
L 1409 0 
L 750 0 
L 750 794 
z
M 750 3309 
L 1409 3309 
L 1409 2516 
L 750 2516 
L 750 3309 
z
" transform="scale(0.015625)"/>
       <path id="DejaVuSans-5b" d="M 550 4863 
L 1875 4863 
L 1875 4416 
L 1125 4416 
L 1125 -397 
L 1875 -397 
L 1875 -844 
L 550 -844 
L 550 4863 
z
" transform="scale(0.015625)"/>
       <path id="DejaVuSans-2c" d="M 750 794 
L 1409 794 
L 1409 256 
L 897 -744 
L 494 -744 
L 750 256 
L 750 794 
z
" transform="scale(0.015625)"/>
       <path id="DejaVuSans-35" d="M 691 4666 
L 3169 4666 
L 3169 4134 
L 1269 4134 
L 1269 2991 
Q 1406 3038 1543 3061 
Q 1681 3084 1819 3084 
Q 2600 3084 3056 2656 
Q 3513 2228 3513 1497 
Q 3513 744 3044 326 
Q 2575 -91 1722 -91 
Q 1428 -91 1123 -41 
Q 819 9 494 109 
L 494 744 
Q 775 591 1075 516 
Q 1375 441 1709 441 
Q 2250 441 2565 725 
Q 2881 1009 2881 1497 
Q 2881 1984 2565 2268 
Q 2250 2553 1709 2553 
Q 1456 2553 1204 2497 
Q 953 2441 691 2322 
L 691 4666 
z
" transform="scale(0.015625)"/>
       <path id="DejaVuSans-5d" d="M 1947 4863 
L 1947 -844 
L 622 -844 
L 622 -397 
L 1369 -397 
L 1369 4416 
L 622 4416 
L 622 4863 
L 1947 4863 
z
" transform="scale(0.015625)"/>
      </defs>
      <use xlink:href="#DejaVuSans-47"/>
      <use xlink:href="#DejaVuSans-72" x="77.490234"/>
      <use xlink:href="#DejaVuSans-6f" x="116.353516"/>
      <use xlink:href="#DejaVuSans-75" x="177.535156"/>
      <use xlink:href="#DejaVuSans-70" x="240.914062"/>
      <use xlink:href="#DejaVuSans-20" x="304.390625"/>
      <use xlink:href="#DejaVuSans-31" x="336.177734"/>
      <use xlink:href="#DejaVuSans-3a" x="399.800781"/>
      <use xlink:href="#DejaVuSans-20" x="433.492188"/>
      <use xlink:href="#DejaVuSans-5b" x="465.279297"/>
      <use xlink:href="#DejaVuSans-34" x="504.292969"/>
      <use xlink:href="#DejaVuSans-2c" x="567.916016"/>
      <use xlink:href="#DejaVuSans-20" x="599.703125"/>
      <use xlink:href="#DejaVuSans-35" x="631.490234"/>
      <use xlink:href="#DejaVuSans-2c" x="695.113281"/>
      <use xlink:href="#DejaVuSans-20" x="726.900391"/>
      <use xlink:href="#DejaVuSans-32" x="758.6875"/>
      <use xlink:href="#DejaVuSans-34" x="822.310547"/>
      <use xlink:href="#DejaVuSans-2c" x="885.933594"/>
      <use xlink:href="#DejaVuSans-20" x="917.720703"/>
      <use xlink:href="#DejaVuSans-36" x="949.507812"/>
      <use xlink:href="#DejaVuSans-34" x="1013.130859"/>
      <use xlink:href="#DejaVuSans-2c" x="1076.753906"/>
      <use xlink:href="#DejaVuSans-20" x="1108.541016"/>
      <use xlink:href="#DejaVuSans-36" x="1140.328125"/>
      <use xlink:href="#DejaVuSans-37" x="1203.951172"/>
      <use xlink:href="#DejaVuSans-2c" x="1267.574219"/>
      <use xlink:href="#DejaVuSans-20" x="1299.361328"/>
      <use xlink:href="#DejaVuSans-39" x="1331.148438"/>
      <use xlink:href="#DejaVuSans-34" x="1394.771484"/>
      <use xlink:href="#DejaVuSans-5d" x="1458.394531"/>
     </g>
    </g>
    <g id="line2d_8">
     <path d="M 114.502187 358.168288 
L 124.502187 358.168288 
L 134.502187 358.168288 
" style="fill: none; stroke: #ffffff; stroke-width: 1.5; stroke-linecap: square"/>
     <defs>
      <path id="mcc6673b6aa" d="M 0 5 
C 1.326016 5 2.597899 4.473168 3.535534 3.535534 
C 4.473168 2.597899 5 1.326016 5 0 
C 5 -1.326016 4.473168 -2.597899 3.535534 -3.535534 
C 2.597899 -4.473168 1.326016 -5 0 -5 
C -1.326016 -5 -2.597899 -4.473168 -3.535534 -3.535534 
C -4.473168 -2.597899 -5 -1.326016 -5 0 
C -5 1.326016 -4.473168 2.597899 -3.535534 3.535534 
C -2.597899 4.473168 -1.326016 5 0 5 
z
" style="stroke: #ffffff"/>
     </defs>
     <g>
      <use xlink:href="#mcc6673b6aa" x="124.502187" y="358.168288" style="fill: #4d2518; stroke: #ffffff"/>
     </g>
    </g>
    <g id="text_24">
     <!-- Group 2: [29, 34, 54, 55, 79] -->
     <g style="fill: #4d2518" transform="translate(142.502187 361.668288) scale(0.1 -0.1)">
      <use xlink:href="#DejaVuSans-47"/>
      <use xlink:href="#DejaVuSans-72" x="77.490234"/>
      <use xlink:href="#DejaVuSans-6f" x="116.353516"/>
      <use xlink:href="#DejaVuSans-75" x="177.535156"/>
      <use xlink:href="#DejaVuSans-70" x="240.914062"/>
      <use xlink:href="#DejaVuSans-20" x="304.390625"/>
      <use xlink:href="#DejaVuSans-32" x="336.177734"/>
      <use xlink:href="#DejaVuSans-3a" x="399.800781"/>
      <use xlink:href="#DejaVuSans-20" x="433.492188"/>
      <use xlink:href="#DejaVuSans-5b" x="465.279297"/>
      <use xlink:href="#DejaVuSans-32" x="504.292969"/>
      <use xlink:href="#DejaVuSans-39" x="567.916016"/>
      <use xlink:href="#DejaVuSans-2c" x="631.539062"/>
      <use xlink:href="#DejaVuSans-20" x="663.326172"/>
      <use xlink:href="#DejaVuSans-33" x="695.113281"/>
      <use xlink:href="#DejaVuSans-34" x="758.736328"/>
      <use xlink:href="#DejaVuSans-2c" x="822.359375"/>
      <use xlink:href="#DejaVuSans-20" x="854.146484"/>
      <use xlink:href="#DejaVuSans-35" x="885.933594"/>
      <use xlink:href="#DejaVuSans-34" x="949.556641"/>
      <use xlink:href="#DejaVuSans-2c" x="1013.179688"/>
      <use xlink:href="#DejaVuSans-20" x="1044.966797"/>
      <use xlink:href="#DejaVuSans-35" x="1076.753906"/>
      <use xlink:href="#DejaVuSans-35" x="1140.376953"/>
      <use xlink:href="#DejaVuSans-2c" x="1204"/>
      <use xlink:href="#DejaVuSans-20" x="1235.787109"/>
      <use xlink:href="#DejaVuSans-37" x="1267.574219"/>
      <use xlink:href="#DejaVuSans-39" x="1331.197266"/>
      <use xlink:href="#DejaVuSans-5d" x="1394.820312"/>
     </g>
    </g>
    <g id="line2d_9">
     <path d="M 114.502187 372.846412 
L 124.502187 372.846412 
L 134.502187 372.846412 
" style="fill: none; stroke: #ffffff; stroke-width: 1.5; stroke-linecap: square"/>
     <defs>
      <path id="mdb7911e20f" d="M 0 5 
C 1.326016 5 2.597899 4.473168 3.535534 3.535534 
C 4.473168 2.597899 5 1.326016 5 0 
C 5 -1.326016 4.473168 -2.597899 3.535534 -3.535534 
C 2.597899 -4.473168 1.326016 -5 0 -5 
C -1.326016 -5 -2.597899 -4.473168 -3.535534 -3.535534 
C -4.473168 -2.597899 -5 -1.326016 -5 0 
C -5 1.326016 -4.473168 2.597899 -3.535534 3.535534 
C -2.597899 4.473168 -1.326016 5 0 5 
z
" style="stroke: #ffffff"/>
     </defs>
     <g>
      <use xlink:href="#mdb7911e20f" x="124.502187" y="372.846412" style="fill: #2f5865; stroke: #ffffff"/>
     </g>
    </g>
    <g id="text_25">
     <!-- Group 3: [12, 17, 31, 38, 44] -->
     <g style="fill: #2f5865" transform="translate(142.502187 376.346412) scale(0.1 -0.1)">
      <use xlink:href="#DejaVuSans-47"/>
      <use xlink:href="#DejaVuSans-72" x="77.490234"/>
      <use xlink:href="#DejaVuSans-6f" x="116.353516"/>
      <use xlink:href="#DejaVuSans-75" x="177.535156"/>
      <use xlink:href="#DejaVuSans-70" x="240.914062"/>
      <use xlink:href="#DejaVuSans-20" x="304.390625"/>
      <use xlink:href="#DejaVuSans-33" x="336.177734"/>
      <use xlink:href="#DejaVuSans-3a" x="399.800781"/>
      <use xlink:href="#DejaVuSans-20" x="433.492188"/>
      <use xlink:href="#DejaVuSans-5b" x="465.279297"/>
      <use xlink:href="#DejaVuSans-31" x="504.292969"/>
      <use xlink:href="#DejaVuSans-32" x="567.916016"/>
      <use xlink:href="#DejaVuSans-2c" x="631.539062"/>
      <use xlink:href="#DejaVuSans-20" x="663.326172"/>
      <use xlink:href="#DejaVuSans-31" x="695.113281"/>
      <use xlink:href="#DejaVuSans-37" x="758.736328"/>
      <use xlink:href="#DejaVuSans-2c" x="822.359375"/>
      <use xlink:href="#DejaVuSans-20" x="854.146484"/>
      <use xlink:href="#DejaVuSans-33" x="885.933594"/>
      <use xlink:href="#DejaVuSans-31" x="949.556641"/>
      <use xlink:href="#DejaVuSans-2c" x="1013.179688"/>
      <use xlink:href="#DejaVuSans-20" x="1044.966797"/>
      <use xlink:href="#DejaVuSans-33" x="1076.753906"/>
      <use xlink:href="#DejaVuSans-38" x="1140.376953"/>
      <use xlink:href="#DejaVuSans-2c" x="1204"/>
      <use xlink:href="#DejaVuSans-20" x="1235.787109"/>
      <use xlink:href="#DejaVuSans-34" x="1267.574219"/>
      <use xlink:href="#DejaVuSans-34" x="1331.197266"/>
      <use xlink:href="#DejaVuSans-5d" x="1394.820312"/>
     </g>
    </g>
    <g id="line2d_10">
     <path d="M 114.502187 387.524538 
L 124.502187 387.524538 
L 134.502187 387.524538 
" style="fill: none; stroke: #ffffff; stroke-width: 1.5; stroke-linecap: square"/>
     <defs>
      <path id="m1a090ff380" d="M 0 5 
C 1.326016 5 2.597899 4.473168 3.535534 3.535534 
C 4.473168 2.597899 5 1.326016 5 0 
C 5 -1.326016 4.473168 -2.597899 3.535534 -3.535534 
C 2.597899 -4.473168 1.326016 -5 0 -5 
C -1.326016 -5 -2.597899 -4.473168 -3.535534 -3.535534 
C -4.473168 -2.597899 -5 -1.326016 -5 0 
C -5 1.326016 -4.473168 2.597899 -3.535534 3.535534 
C -2.597899 4.473168 -1.326016 5 0 5 
z
" style="stroke: #ffffff"/>
     </defs>
     <g>
      <use xlink:href="#m1a090ff380" x="124.502187" y="387.524538" style="fill: #896baf; stroke: #ffffff"/>
     </g>
    </g>
    <g id="text_26">
     <!-- Group 4: [2, 9, 11, 16, 36, 45, 53, 68, 73, 75, 89, 93, 95, 97, 98] -->
     <g style="fill: #896baf" transform="translate(142.502187 391.024538) scale(0.1 -0.1)">
      <use xlink:href="#DejaVuSans-47"/>
      <use xlink:href="#DejaVuSans-72" x="77.490234"/>
      <use xlink:href="#DejaVuSans-6f" x="116.353516"/>
      <use xlink:href="#DejaVuSans-75" x="177.535156"/>
      <use xlink:href="#DejaVuSans-70" x="240.914062"/>
      <use xlink:href="#DejaVuSans-20" x="304.390625"/>
      <use xlink:href="#DejaVuSans-34" x="336.177734"/>
      <use xlink:href="#DejaVuSans-3a" x="399.800781"/>
      <use xlink:href="#DejaVuSans-20" x="433.492188"/>
      <use xlink:href="#DejaVuSans-5b" x="465.279297"/>
      <use xlink:href="#DejaVuSans-32" x="504.292969"/>
      <use xlink:href="#DejaVuSans-2c" x="567.916016"/>
      <use xlink:href="#DejaVuSans-20" x="599.703125"/>
      <use xlink:href="#DejaVuSans-39" x="631.490234"/>
      <use xlink:href="#DejaVuSans-2c" x="695.113281"/>
      <use xlink:href="#DejaVuSans-20" x="726.900391"/>
      <use xlink:href="#DejaVuSans-31" x="758.6875"/>
      <use xlink:href="#DejaVuSans-31" x="822.310547"/>
      <use xlink:href="#DejaVuSans-2c" x="885.933594"/>
      <use xlink:href="#DejaVuSans-20" x="917.720703"/>
      <use xlink:href="#DejaVuSans-31" x="949.507812"/>
      <use xlink:href="#DejaVuSans-36" x="1013.130859"/>
      <use xlink:href="#DejaVuSans-2c" x="1076.753906"/>
      <use xlink:href="#DejaVuSans-20" x="1108.541016"/>
      <use xlink:href="#DejaVuSans-33" x="1140.328125"/>
      <use xlink:href="#DejaVuSans-36" x="1203.951172"/>
      <use xlink:href="#DejaVuSans-2c" x="1267.574219"/>
      <use xlink:href="#DejaVuSans-20" x="1299.361328"/>
      <use xlink:href="#DejaVuSans-34" x="1331.148438"/>
      <use xlink:href="#DejaVuSans-35" x="1394.771484"/>
      <use xlink:href="#DejaVuSans-2c" x="1458.394531"/>
      <use xlink:href="#DejaVuSans-20" x="1490.181641"/>
      <use xlink:href="#DejaVuSans-35" x="1521.96875"/>
      <use xlink:href="#DejaVuSans-33" x="1585.591797"/>
      <use xlink:href="#DejaVuSans-2c" x="1649.214844"/>
      <use xlink:href="#DejaVuSans-20" x="1681.001953"/>
      <use xlink:href="#DejaVuSans-36" x="1712.789062"/>
      <use xlink:href="#DejaVuSans-38" x="1776.412109"/>
      <use xlink:href="#DejaVuSans-2c" x="1840.035156"/>
      <use xlink:href="#DejaVuSans-20" x="1871.822266"/>
      <use xlink:href="#DejaVuSans-37" x="1903.609375"/>
      <use xlink:href="#DejaVuSans-33" x="1967.232422"/>
      <use xlink:href="#DejaVuSans-2c" x="2030.855469"/>
      <use xlink:href="#DejaVuSans-20" x="2062.642578"/>
      <use xlink:href="#DejaVuSans-37" x="2094.429688"/>
      <use xlink:href="#DejaVuSans-35" x="2158.052734"/>
      <use xlink:href="#DejaVuSans-2c" x="2221.675781"/>
      <use xlink:href="#DejaVuSans-20" x="2253.462891"/>
      <use xlink:href="#DejaVuSans-38" x="2285.25"/>
      <use xlink:href="#DejaVuSans-39" x="2348.873047"/>
      <use xlink:href="#DejaVuSans-2c" x="2412.496094"/>
      <use xlink:href="#DejaVuSans-20" x="2444.283203"/>
      <use xlink:href="#DejaVuSans-39" x="2476.070312"/>
      <use xlink:href="#DejaVuSans-33" x="2539.693359"/>
      <use xlink:href="#DejaVuSans-2c" x="2603.316406"/>
      <use xlink:href="#DejaVuSans-20" x="2635.103516"/>
      <use xlink:href="#DejaVuSans-39" x="2666.890625"/>
      <use xlink:href="#DejaVuSans-35" x="2730.513672"/>
      <use xlink:href="#DejaVuSans-2c" x="2794.136719"/>
      <use xlink:href="#DejaVuSans-20" x="2825.923828"/>
      <use xlink:href="#DejaVuSans-39" x="2857.710938"/>
      <use xlink:href="#DejaVuSans-37" x="2921.333984"/>
      <use xlink:href="#DejaVuSans-2c" x="2984.957031"/>
      <use xlink:href="#DejaVuSans-20" x="3016.744141"/>
      <use xlink:href="#DejaVuSans-39" x="3048.53125"/>
      <use xlink:href="#DejaVuSans-38" x="3112.154297"/>
      <use xlink:href="#DejaVuSans-5d" x="3175.777344"/>
     </g>
    </g>
    <g id="line2d_11">
     <path d="M 114.502187 402.202662 
L 124.502187 402.202662 
L 134.502187 402.202662 
" style="fill: none; stroke: #ffffff; stroke-width: 1.5; stroke-linecap: square"/>
     <defs>
      <path id="mc2570c1534" d="M 0 5 
C 1.326016 5 2.597899 4.473168 3.535534 3.535534 
C 4.473168 2.597899 5 1.326016 5 0 
C 5 -1.326016 4.473168 -2.597899 3.535534 -3.535534 
C 2.597899 -4.473168 1.326016 -5 0 -5 
C -1.326016 -5 -2.597899 -4.473168 -3.535534 -3.535534 
C -4.473168 -2.597899 -5 -1.326016 -5 0 
C -5 1.326016 -4.473168 2.597899 -3.535534 3.535534 
C -2.597899 4.473168 -1.326016 5 0 5 
z
" style="stroke: #ffffff"/>
     </defs>
     <g>
      <use xlink:href="#mc2570c1534" x="124.502187" y="402.202662" style="fill: #34e007; stroke: #ffffff"/>
     </g>
    </g>
    <g id="text_27">
     <!-- Group 5: [13, 40, 50, 69, 88] -->
     <g style="fill: #34e007" transform="translate(142.502187 405.702662) scale(0.1 -0.1)">
      <use xlink:href="#DejaVuSans-47"/>
      <use xlink:href="#DejaVuSans-72" x="77.490234"/>
      <use xlink:href="#DejaVuSans-6f" x="116.353516"/>
      <use xlink:href="#DejaVuSans-75" x="177.535156"/>
      <use xlink:href="#DejaVuSans-70" x="240.914062"/>
      <use xlink:href="#DejaVuSans-20" x="304.390625"/>
      <use xlink:href="#DejaVuSans-35" x="336.177734"/>
      <use xlink:href="#DejaVuSans-3a" x="399.800781"/>
      <use xlink:href="#DejaVuSans-20" x="433.492188"/>
      <use xlink:href="#DejaVuSans-5b" x="465.279297"/>
      <use xlink:href="#DejaVuSans-31" x="504.292969"/>
      <use xlink:href="#DejaVuSans-33" x="567.916016"/>
      <use xlink:href="#DejaVuSans-2c" x="631.539062"/>
      <use xlink:href="#DejaVuSans-20" x="663.326172"/>
      <use xlink:href="#DejaVuSans-34" x="695.113281"/>
      <use xlink:href="#DejaVuSans-30" x="758.736328"/>
      <use xlink:href="#DejaVuSans-2c" x="822.359375"/>
      <use xlink:href="#DejaVuSans-20" x="854.146484"/>
      <use xlink:href="#DejaVuSans-35" x="885.933594"/>
      <use xlink:href="#DejaVuSans-30" x="949.556641"/>
      <use xlink:href="#DejaVuSans-2c" x="1013.179688"/>
      <use xlink:href="#DejaVuSans-20" x="1044.966797"/>
      <use xlink:href="#DejaVuSans-36" x="1076.753906"/>
      <use xlink:href="#DejaVuSans-39" x="1140.376953"/>
      <use xlink:href="#DejaVuSans-2c" x="1204"/>
      <use xlink:href="#DejaVuSans-20" x="1235.787109"/>
      <use xlink:href="#DejaVuSans-38" x="1267.574219"/>
      <use xlink:href="#DejaVuSans-38" x="1331.197266"/>
      <use xlink:href="#DejaVuSans-5d" x="1394.820312"/>
     </g>
    </g>
    <g id="line2d_12">
     <path d="M 483.969375 343.490162 
L 493.969375 343.490162 
L 503.969375 343.490162 
" style="fill: none; stroke: #ffffff; stroke-width: 1.5; stroke-linecap: square"/>
     <defs>
      <path id="m001372fa5a" d="M 0 5 
C 1.326016 5 2.597899 4.473168 3.535534 3.535534 
C 4.473168 2.597899 5 1.326016 5 0 
C 5 -1.326016 4.473168 -2.597899 3.535534 -3.535534 
C 2.597899 -4.473168 1.326016 -5 0 -5 
C -1.326016 -5 -2.597899 -4.473168 -3.535534 -3.535534 
C -4.473168 -2.597899 -5 -1.326016 -5 0 
C -5 1.326016 -4.473168 2.597899 -3.535534 3.535534 
C -2.597899 4.473168 -1.326016 5 0 5 
z
" style="stroke: #ffffff"/>
     </defs>
     <g>
      <use xlink:href="#m001372fa5a" x="493.969375" y="343.490162" style="fill: #ab6a8e; stroke: #ffffff"/>
     </g>
    </g>
    <g id="text_28">
     <!-- Group 6: [8, 20, 25, 27, 28, 41, 42, 43, 61, 78, 83, 87, 91, 96, 99] -->
     <g style="fill: #ab6a8e" transform="translate(511.969375 346.990162) scale(0.1 -0.1)">
      <use xlink:href="#DejaVuSans-47"/>
      <use xlink:href="#DejaVuSans-72" x="77.490234"/>
      <use xlink:href="#DejaVuSans-6f" x="116.353516"/>
      <use xlink:href="#DejaVuSans-75" x="177.535156"/>
      <use xlink:href="#DejaVuSans-70" x="240.914062"/>
      <use xlink:href="#DejaVuSans-20" x="304.390625"/>
      <use xlink:href="#DejaVuSans-36" x="336.177734"/>
      <use xlink:href="#DejaVuSans-3a" x="399.800781"/>
      <use xlink:href="#DejaVuSans-20" x="433.492188"/>
      <use xlink:href="#DejaVuSans-5b" x="465.279297"/>
      <use xlink:href="#DejaVuSans-38" x="504.292969"/>
      <use xlink:href="#DejaVuSans-2c" x="567.916016"/>
      <use xlink:href="#DejaVuSans-20" x="599.703125"/>
      <use xlink:href="#DejaVuSans-32" x="631.490234"/>
      <use xlink:href="#DejaVuSans-30" x="695.113281"/>
      <use xlink:href="#DejaVuSans-2c" x="758.736328"/>
      <use xlink:href="#DejaVuSans-20" x="790.523438"/>
      <use xlink:href="#DejaVuSans-32" x="822.310547"/>
      <use xlink:href="#DejaVuSans-35" x="885.933594"/>
      <use xlink:href="#DejaVuSans-2c" x="949.556641"/>
      <use xlink:href="#DejaVuSans-20" x="981.34375"/>
      <use xlink:href="#DejaVuSans-32" x="1013.130859"/>
      <use xlink:href="#DejaVuSans-37" x="1076.753906"/>
      <use xlink:href="#DejaVuSans-2c" x="1140.376953"/>
      <use xlink:href="#DejaVuSans-20" x="1172.164062"/>
      <use xlink:href="#DejaVuSans-32" x="1203.951172"/>
      <use xlink:href="#DejaVuSans-38" x="1267.574219"/>
      <use xlink:href="#DejaVuSans-2c" x="1331.197266"/>
      <use xlink:href="#DejaVuSans-20" x="1362.984375"/>
      <use xlink:href="#DejaVuSans-34" x="1394.771484"/>
      <use xlink:href="#DejaVuSans-31" x="1458.394531"/>
      <use xlink:href="#DejaVuSans-2c" x="1522.017578"/>
      <use xlink:href="#DejaVuSans-20" x="1553.804688"/>
      <use xlink:href="#DejaVuSans-34" x="1585.591797"/>
      <use xlink:href="#DejaVuSans-32" x="1649.214844"/>
      <use xlink:href="#DejaVuSans-2c" x="1712.837891"/>
      <use xlink:href="#DejaVuSans-20" x="1744.625"/>
      <use xlink:href="#DejaVuSans-34" x="1776.412109"/>
      <use xlink:href="#DejaVuSans-33" x="1840.035156"/>
      <use xlink:href="#DejaVuSans-2c" x="1903.658203"/>
      <use xlink:href="#DejaVuSans-20" x="1935.445312"/>
      <use xlink:href="#DejaVuSans-36" x="1967.232422"/>
      <use xlink:href="#DejaVuSans-31" x="2030.855469"/>
      <use xlink:href="#DejaVuSans-2c" x="2094.478516"/>
      <use xlink:href="#DejaVuSans-20" x="2126.265625"/>
      <use xlink:href="#DejaVuSans-37" x="2158.052734"/>
      <use xlink:href="#DejaVuSans-38" x="2221.675781"/>
      <use xlink:href="#DejaVuSans-2c" x="2285.298828"/>
      <use xlink:href="#DejaVuSans-20" x="2317.085938"/>
      <use xlink:href="#DejaVuSans-38" x="2348.873047"/>
      <use xlink:href="#DejaVuSans-33" x="2412.496094"/>
      <use xlink:href="#DejaVuSans-2c" x="2476.119141"/>
      <use xlink:href="#DejaVuSans-20" x="2507.90625"/>
      <use xlink:href="#DejaVuSans-38" x="2539.693359"/>
      <use xlink:href="#DejaVuSans-37" x="2603.316406"/>
      <use xlink:href="#DejaVuSans-2c" x="2666.939453"/>
      <use xlink:href="#DejaVuSans-20" x="2698.726562"/>
      <use xlink:href="#DejaVuSans-39" x="2730.513672"/>
      <use xlink:href="#DejaVuSans-31" x="2794.136719"/>
      <use xlink:href="#DejaVuSans-2c" x="2857.759766"/>
      <use xlink:href="#DejaVuSans-20" x="2889.546875"/>
      <use xlink:href="#DejaVuSans-39" x="2921.333984"/>
      <use xlink:href="#DejaVuSans-36" x="2984.957031"/>
      <use xlink:href="#DejaVuSans-2c" x="3048.580078"/>
      <use xlink:href="#DejaVuSans-20" x="3080.367188"/>
      <use xlink:href="#DejaVuSans-39" x="3112.154297"/>
      <use xlink:href="#DejaVuSans-39" x="3175.777344"/>
      <use xlink:href="#DejaVuSans-5d" x="3239.400391"/>
     </g>
    </g>
    <g id="line2d_13">
     <path d="M 483.969375 358.168288 
L 493.969375 358.168288 
L 503.969375 358.168288 
" style="fill: none; stroke: #ffffff; stroke-width: 1.5; stroke-linecap: square"/>
     <defs>
      <path id="m1b12f6dde6" d="M 0 5 
C 1.326016 5 2.597899 4.473168 3.535534 3.535534 
C 4.473168 2.597899 5 1.326016 5 0 
C 5 -1.326016 4.473168 -2.597899 3.535534 -3.535534 
C 2.597899 -4.473168 1.326016 -5 0 -5 
C -1.326016 -5 -2.597899 -4.473168 -3.535534 -3.535534 
C -4.473168 -2.597899 -5 -1.326016 -5 0 
C -5 1.326016 -4.473168 2.597899 -3.535534 3.535534 
C -2.597899 4.473168 -1.326016 5 0 5 
z
" style="stroke: #ffffff"/>
     </defs>
     <g>
      <use xlink:href="#m1b12f6dde6" x="493.969375" y="358.168288" style="fill: #2433cc; stroke: #ffffff"/>
     </g>
    </g>
    <g id="text_29">
     <!-- Group 7: [30, 35, 71, 90] -->
     <g style="fill: #2433cc" transform="translate(511.969375 361.668288) scale(0.1 -0.1)">
      <use xlink:href="#DejaVuSans-47"/>
      <use xlink:href="#DejaVuSans-72" x="77.490234"/>
      <use xlink:href="#DejaVuSans-6f" x="116.353516"/>
      <use xlink:href="#DejaVuSans-75" x="177.535156"/>
      <use xlink:href="#DejaVuSans-70" x="240.914062"/>
      <use xlink:href="#DejaVuSans-20" x="304.390625"/>
      <use xlink:href="#DejaVuSans-37" x="336.177734"/>
      <use xlink:href="#DejaVuSans-3a" x="399.800781"/>
      <use xlink:href="#DejaVuSans-20" x="433.492188"/>
      <use xlink:href="#DejaVuSans-5b" x="465.279297"/>
      <use xlink:href="#DejaVuSans-33" x="504.292969"/>
      <use xlink:href="#DejaVuSans-30" x="567.916016"/>
      <use xlink:href="#DejaVuSans-2c" x="631.539062"/>
      <use xlink:href="#DejaVuSans-20" x="663.326172"/>
      <use xlink:href="#DejaVuSans-33" x="695.113281"/>
      <use xlink:href="#DejaVuSans-35" x="758.736328"/>
      <use xlink:href="#DejaVuSans-2c" x="822.359375"/>
      <use xlink:href="#DejaVuSans-20" x="854.146484"/>
      <use xlink:href="#DejaVuSans-37" x="885.933594"/>
      <use xlink:href="#DejaVuSans-31" x="949.556641"/>
      <use xlink:href="#DejaVuSans-2c" x="1013.179688"/>
      <use xlink:href="#DejaVuSans-20" x="1044.966797"/>
      <use xlink:href="#DejaVuSans-39" x="1076.753906"/>
      <use xlink:href="#DejaVuSans-30" x="1140.376953"/>
      <use xlink:href="#DejaVuSans-5d" x="1204"/>
     </g>
    </g>
    <g id="line2d_14">
     <path d="M 483.969375 372.846412 
L 493.969375 372.846412 
L 503.969375 372.846412 
" style="fill: none; stroke: #ffffff; stroke-width: 1.5; stroke-linecap: square"/>
     <defs>
      <path id="mca690638b5" d="M 0 5 
C 1.326016 5 2.597899 4.473168 3.535534 3.535534 
C 4.473168 2.597899 5 1.326016 5 0 
C 5 -1.326016 4.473168 -2.597899 3.535534 -3.535534 
C 2.597899 -4.473168 1.326016 -5 0 -5 
C -1.326016 -5 -2.597899 -4.473168 -3.535534 -3.535534 
C -4.473168 -2.597899 -5 -1.326016 -5 0 
C -5 1.326016 -4.473168 2.597899 -3.535534 3.535534 
C -2.597899 4.473168 -1.326016 5 0 5 
z
" style="stroke: #ffffff"/>
     </defs>
     <g>
      <use xlink:href="#mca690638b5" x="493.969375" y="372.846412" style="fill: #f750b1; stroke: #ffffff"/>
     </g>
    </g>
    <g id="text_30">
     <!-- Group 8: [0, 1, 6, 21, 22, 23, 26, 39, 51, 52, 57, 63, 66, 76, 84, 92] -->
     <g style="fill: #f750b1" transform="translate(511.969375 376.346412) scale(0.1 -0.1)">
      <use xlink:href="#DejaVuSans-47"/>
      <use xlink:href="#DejaVuSans-72" x="77.490234"/>
      <use xlink:href="#DejaVuSans-6f" x="116.353516"/>
      <use xlink:href="#DejaVuSans-75" x="177.535156"/>
      <use xlink:href="#DejaVuSans-70" x="240.914062"/>
      <use xlink:href="#DejaVuSans-20" x="304.390625"/>
      <use xlink:href="#DejaVuSans-38" x="336.177734"/>
      <use xlink:href="#DejaVuSans-3a" x="399.800781"/>
      <use xlink:href="#DejaVuSans-20" x="433.492188"/>
      <use xlink:href="#DejaVuSans-5b" x="465.279297"/>
      <use xlink:href="#DejaVuSans-30" x="504.292969"/>
      <use xlink:href="#DejaVuSans-2c" x="567.916016"/>
      <use xlink:href="#DejaVuSans-20" x="599.703125"/>
      <use xlink:href="#DejaVuSans-31" x="631.490234"/>
      <use xlink:href="#DejaVuSans-2c" x="695.113281"/>
      <use xlink:href="#DejaVuSans-20" x="726.900391"/>
      <use xlink:href="#DejaVuSans-36" x="758.6875"/>
      <use xlink:href="#DejaVuSans-2c" x="822.310547"/>
      <use xlink:href="#DejaVuSans-20" x="854.097656"/>
      <use xlink:href="#DejaVuSans-32" x="885.884766"/>
      <use xlink:href="#DejaVuSans-31" x="949.507812"/>
      <use xlink:href="#DejaVuSans-2c" x="1013.130859"/>
      <use xlink:href="#DejaVuSans-20" x="1044.917969"/>
      <use xlink:href="#DejaVuSans-32" x="1076.705078"/>
      <use xlink:href="#DejaVuSans-32" x="1140.328125"/>
      <use xlink:href="#DejaVuSans-2c" x="1203.951172"/>
      <use xlink:href="#DejaVuSans-20" x="1235.738281"/>
      <use xlink:href="#DejaVuSans-32" x="1267.525391"/>
      <use xlink:href="#DejaVuSans-33" x="1331.148438"/>
      <use xlink:href="#DejaVuSans-2c" x="1394.771484"/>
      <use xlink:href="#DejaVuSans-20" x="1426.558594"/>
      <use xlink:href="#DejaVuSans-32" x="1458.345703"/>
      <use xlink:href="#DejaVuSans-36" x="1521.96875"/>
      <use xlink:href="#DejaVuSans-2c" x="1585.591797"/>
      <use xlink:href="#DejaVuSans-20" x="1617.378906"/>
      <use xlink:href="#DejaVuSans-33" x="1649.166016"/>
      <use xlink:href="#DejaVuSans-39" x="1712.789062"/>
      <use xlink:href="#DejaVuSans-2c" x="1776.412109"/>
      <use xlink:href="#DejaVuSans-20" x="1808.199219"/>
      <use xlink:href="#DejaVuSans-35" x="1839.986328"/>
      <use xlink:href="#DejaVuSans-31" x="1903.609375"/>
      <use xlink:href="#DejaVuSans-2c" x="1967.232422"/>
      <use xlink:href="#DejaVuSans-20" x="1999.019531"/>
      <use xlink:href="#DejaVuSans-35" x="2030.806641"/>
      <use xlink:href="#DejaVuSans-32" x="2094.429688"/>
      <use xlink:href="#DejaVuSans-2c" x="2158.052734"/>
      <use xlink:href="#DejaVuSans-20" x="2189.839844"/>
      <use xlink:href="#DejaVuSans-35" x="2221.626953"/>
      <use xlink:href="#DejaVuSans-37" x="2285.25"/>
      <use xlink:href="#DejaVuSans-2c" x="2348.873047"/>
      <use xlink:href="#DejaVuSans-20" x="2380.660156"/>
      <use xlink:href="#DejaVuSans-36" x="2412.447266"/>
      <use xlink:href="#DejaVuSans-33" x="2476.070312"/>
      <use xlink:href="#DejaVuSans-2c" x="2539.693359"/>
      <use xlink:href="#DejaVuSans-20" x="2571.480469"/>
      <use xlink:href="#DejaVuSans-36" x="2603.267578"/>
      <use xlink:href="#DejaVuSans-36" x="2666.890625"/>
      <use xlink:href="#DejaVuSans-2c" x="2730.513672"/>
      <use xlink:href="#DejaVuSans-20" x="2762.300781"/>
      <use xlink:href="#DejaVuSans-37" x="2794.087891"/>
      <use xlink:href="#DejaVuSans-36" x="2857.710938"/>
      <use xlink:href="#DejaVuSans-2c" x="2921.333984"/>
      <use xlink:href="#DejaVuSans-20" x="2953.121094"/>
      <use xlink:href="#DejaVuSans-38" x="2984.908203"/>
      <use xlink:href="#DejaVuSans-34" x="3048.53125"/>
      <use xlink:href="#DejaVuSans-2c" x="3112.154297"/>
      <use xlink:href="#DejaVuSans-20" x="3143.941406"/>
      <use xlink:href="#DejaVuSans-39" x="3175.728516"/>
      <use xlink:href="#DejaVuSans-32" x="3239.351562"/>
      <use xlink:href="#DejaVuSans-5d" x="3302.974609"/>
     </g>
    </g>
    <g id="line2d_15">
     <path d="M 483.969375 387.524538 
L 493.969375 387.524538 
L 503.969375 387.524538 
" style="fill: none; stroke: #ffffff; stroke-width: 1.5; stroke-linecap: square"/>
     <defs>
      <path id="m14b8d3a38d" d="M 0 5 
C 1.326016 5 2.597899 4.473168 3.535534 3.535534 
C 4.473168 2.597899 5 1.326016 5 0 
C 5 -1.326016 4.473168 -2.597899 3.535534 -3.535534 
C 2.597899 -4.473168 1.326016 -5 0 -5 
C -1.326016 -5 -2.597899 -4.473168 -3.535534 -3.535534 
C -4.473168 -2.597899 -5 -1.326016 -5 0 
C -5 1.326016 -4.473168 2.597899 -3.535534 3.535534 
C -2.597899 4.473168 -1.326016 5 0 5 
z
" style="stroke: #ffffff"/>
     </defs>
     <g>
      <use xlink:href="#m14b8d3a38d" x="493.969375" y="387.524538" style="fill: #dfe416; stroke: #ffffff"/>
     </g>
    </g>
    <g id="text_31">
     <!-- Group 9: [3, 14, 37, 46, 48, 56, 58, 59, 60, 70, 81, 82, 86] -->
     <g style="fill: #dfe416" transform="translate(511.969375 391.024538) scale(0.1 -0.1)">
      <use xlink:href="#DejaVuSans-47"/>
      <use xlink:href="#DejaVuSans-72" x="77.490234"/>
      <use xlink:href="#DejaVuSans-6f" x="116.353516"/>
      <use xlink:href="#DejaVuSans-75" x="177.535156"/>
      <use xlink:href="#DejaVuSans-70" x="240.914062"/>
      <use xlink:href="#DejaVuSans-20" x="304.390625"/>
      <use xlink:href="#DejaVuSans-39" x="336.177734"/>
      <use xlink:href="#DejaVuSans-3a" x="399.800781"/>
      <use xlink:href="#DejaVuSans-20" x="433.492188"/>
      <use xlink:href="#DejaVuSans-5b" x="465.279297"/>
      <use xlink:href="#DejaVuSans-33" x="504.292969"/>
      <use xlink:href="#DejaVuSans-2c" x="567.916016"/>
      <use xlink:href="#DejaVuSans-20" x="599.703125"/>
      <use xlink:href="#DejaVuSans-31" x="631.490234"/>
      <use xlink:href="#DejaVuSans-34" x="695.113281"/>
      <use xlink:href="#DejaVuSans-2c" x="758.736328"/>
      <use xlink:href="#DejaVuSans-20" x="790.523438"/>
      <use xlink:href="#DejaVuSans-33" x="822.310547"/>
      <use xlink:href="#DejaVuSans-37" x="885.933594"/>
      <use xlink:href="#DejaVuSans-2c" x="949.556641"/>
      <use xlink:href="#DejaVuSans-20" x="981.34375"/>
      <use xlink:href="#DejaVuSans-34" x="1013.130859"/>
      <use xlink:href="#DejaVuSans-36" x="1076.753906"/>
      <use xlink:href="#DejaVuSans-2c" x="1140.376953"/>
      <use xlink:href="#DejaVuSans-20" x="1172.164062"/>
      <use xlink:href="#DejaVuSans-34" x="1203.951172"/>
      <use xlink:href="#DejaVuSans-38" x="1267.574219"/>
      <use xlink:href="#DejaVuSans-2c" x="1331.197266"/>
      <use xlink:href="#DejaVuSans-20" x="1362.984375"/>
      <use xlink:href="#DejaVuSans-35" x="1394.771484"/>
      <use xlink:href="#DejaVuSans-36" x="1458.394531"/>
      <use xlink:href="#DejaVuSans-2c" x="1522.017578"/>
      <use xlink:href="#DejaVuSans-20" x="1553.804688"/>
      <use xlink:href="#DejaVuSans-35" x="1585.591797"/>
      <use xlink:href="#DejaVuSans-38" x="1649.214844"/>
      <use xlink:href="#DejaVuSans-2c" x="1712.837891"/>
      <use xlink:href="#DejaVuSans-20" x="1744.625"/>
      <use xlink:href="#DejaVuSans-35" x="1776.412109"/>
      <use xlink:href="#DejaVuSans-39" x="1840.035156"/>
      <use xlink:href="#DejaVuSans-2c" x="1903.658203"/>
      <use xlink:href="#DejaVuSans-20" x="1935.445312"/>
      <use xlink:href="#DejaVuSans-36" x="1967.232422"/>
      <use xlink:href="#DejaVuSans-30" x="2030.855469"/>
      <use xlink:href="#DejaVuSans-2c" x="2094.478516"/>
      <use xlink:href="#DejaVuSans-20" x="2126.265625"/>
      <use xlink:href="#DejaVuSans-37" x="2158.052734"/>
      <use xlink:href="#DejaVuSans-30" x="2221.675781"/>
      <use xlink:href="#DejaVuSans-2c" x="2285.298828"/>
      <use xlink:href="#DejaVuSans-20" x="2317.085938"/>
      <use xlink:href="#DejaVuSans-38" x="2348.873047"/>
      <use xlink:href="#DejaVuSans-31" x="2412.496094"/>
      <use xlink:href="#DejaVuSans-2c" x="2476.119141"/>
      <use xlink:href="#DejaVuSans-20" x="2507.90625"/>
      <use xlink:href="#DejaVuSans-38" x="2539.693359"/>
      <use xlink:href="#DejaVuSans-32" x="2603.316406"/>
      <use xlink:href="#DejaVuSans-2c" x="2666.939453"/>
      <use xlink:href="#DejaVuSans-20" x="2698.726562"/>
      <use xlink:href="#DejaVuSans-38" x="2730.513672"/>
      <use xlink:href="#DejaVuSans-36" x="2794.136719"/>
      <use xlink:href="#DejaVuSans-5d" x="2857.759766"/>
     </g>
    </g>
    <g id="line2d_16">
     <path d="M 483.969375 402.202662 
L 493.969375 402.202662 
L 503.969375 402.202662 
" style="fill: none; stroke: #ffffff; stroke-width: 1.5; stroke-linecap: square"/>
     <defs>
      <path id="m722d49825a" d="M 0 5 
C 1.326016 5 2.597899 4.473168 3.535534 3.535534 
C 4.473168 2.597899 5 1.326016 5 0 
C 5 -1.326016 4.473168 -2.597899 3.535534 -3.535534 
C 2.597899 -4.473168 1.326016 -5 0 -5 
C -1.326016 -5 -2.597899 -4.473168 -3.535534 -3.535534 
C -4.473168 -2.597899 -5 -1.326016 -5 0 
C -5 1.326016 -4.473168 2.597899 -3.535534 3.535534 
C -2.597899 4.473168 -1.326016 5 0 5 
z
" style="stroke: #ffffff"/>
     </defs>
     <g>
      <use xlink:href="#m722d49825a" x="493.969375" y="402.202662" style="fill: #0a2be0; stroke: #ffffff"/>
     </g>
    </g>
    <g id="text_32">
     <!-- Group 10: [7, 10, 15, 18, 19, 32, 33, 47, 49, 62, 65, 72, 74, 77, 80, 85] -->
     <g style="fill: #0a2be0" transform="translate(511.969375 405.702662) scale(0.1 -0.1)">
      <use xlink:href="#DejaVuSans-47"/>
      <use xlink:href="#DejaVuSans-72" x="77.490234"/>
      <use xlink:href="#DejaVuSans-6f" x="116.353516"/>
      <use xlink:href="#DejaVuSans-75" x="177.535156"/>
      <use xlink:href="#DejaVuSans-70" x="240.914062"/>
      <use xlink:href="#DejaVuSans-20" x="304.390625"/>
      <use xlink:href="#DejaVuSans-31" x="336.177734"/>
      <use xlink:href="#DejaVuSans-30" x="399.800781"/>
      <use xlink:href="#DejaVuSans-3a" x="463.423828"/>
      <use xlink:href="#DejaVuSans-20" x="497.115234"/>
      <use xlink:href="#DejaVuSans-5b" x="528.902344"/>
      <use xlink:href="#DejaVuSans-37" x="567.916016"/>
      <use xlink:href="#DejaVuSans-2c" x="631.539062"/>
      <use xlink:href="#DejaVuSans-20" x="663.326172"/>
      <use xlink:href="#DejaVuSans-31" x="695.113281"/>
      <use xlink:href="#DejaVuSans-30" x="758.736328"/>
      <use xlink:href="#DejaVuSans-2c" x="822.359375"/>
      <use xlink:href="#DejaVuSans-20" x="854.146484"/>
      <use xlink:href="#DejaVuSans-31" x="885.933594"/>
      <use xlink:href="#DejaVuSans-35" x="949.556641"/>
      <use xlink:href="#DejaVuSans-2c" x="1013.179688"/>
      <use xlink:href="#DejaVuSans-20" x="1044.966797"/>
      <use xlink:href="#DejaVuSans-31" x="1076.753906"/>
      <use xlink:href="#DejaVuSans-38" x="1140.376953"/>
      <use xlink:href="#DejaVuSans-2c" x="1204"/>
      <use xlink:href="#DejaVuSans-20" x="1235.787109"/>
      <use xlink:href="#DejaVuSans-31" x="1267.574219"/>
      <use xlink:href="#DejaVuSans-39" x="1331.197266"/>
      <use xlink:href="#DejaVuSans-2c" x="1394.820312"/>
      <use xlink:href="#DejaVuSans-20" x="1426.607422"/>
      <use xlink:href="#DejaVuSans-33" x="1458.394531"/>
      <use xlink:href="#DejaVuSans-32" x="1522.017578"/>
      <use xlink:href="#DejaVuSans-2c" x="1585.640625"/>
      <use xlink:href="#DejaVuSans-20" x="1617.427734"/>
      <use xlink:href="#DejaVuSans-33" x="1649.214844"/>
      <use xlink:href="#DejaVuSans-33" x="1712.837891"/>
      <use xlink:href="#DejaVuSans-2c" x="1776.460938"/>
      <use xlink:href="#DejaVuSans-20" x="1808.248047"/>
      <use xlink:href="#DejaVuSans-34" x="1840.035156"/>
      <use xlink:href="#DejaVuSans-37" x="1903.658203"/>
      <use xlink:href="#DejaVuSans-2c" x="1967.28125"/>
      <use xlink:href="#DejaVuSans-20" x="1999.068359"/>
      <use xlink:href="#DejaVuSans-34" x="2030.855469"/>
      <use xlink:href="#DejaVuSans-39" x="2094.478516"/>
      <use xlink:href="#DejaVuSans-2c" x="2158.101562"/>
      <use xlink:href="#DejaVuSans-20" x="2189.888672"/>
      <use xlink:href="#DejaVuSans-36" x="2221.675781"/>
      <use xlink:href="#DejaVuSans-32" x="2285.298828"/>
      <use xlink:href="#DejaVuSans-2c" x="2348.921875"/>
      <use xlink:href="#DejaVuSans-20" x="2380.708984"/>
      <use xlink:href="#DejaVuSans-36" x="2412.496094"/>
      <use xlink:href="#DejaVuSans-35" x="2476.119141"/>
      <use xlink:href="#DejaVuSans-2c" x="2539.742188"/>
      <use xlink:href="#DejaVuSans-20" x="2571.529297"/>
      <use xlink:href="#DejaVuSans-37" x="2603.316406"/>
      <use xlink:href="#DejaVuSans-32" x="2666.939453"/>
      <use xlink:href="#DejaVuSans-2c" x="2730.5625"/>
      <use xlink:href="#DejaVuSans-20" x="2762.349609"/>
      <use xlink:href="#DejaVuSans-37" x="2794.136719"/>
      <use xlink:href="#DejaVuSans-34" x="2857.759766"/>
      <use xlink:href="#DejaVuSans-2c" x="2921.382812"/>
      <use xlink:href="#DejaVuSans-20" x="2953.169922"/>
      <use xlink:href="#DejaVuSans-37" x="2984.957031"/>
      <use xlink:href="#DejaVuSans-37" x="3048.580078"/>
      <use xlink:href="#DejaVuSans-2c" x="3112.203125"/>
      <use xlink:href="#DejaVuSans-20" x="3143.990234"/>
      <use xlink:href="#DejaVuSans-38" x="3175.777344"/>
      <use xlink:href="#DejaVuSans-30" x="3239.400391"/>
      <use xlink:href="#DejaVuSans-2c" x="3303.023438"/>
      <use xlink:href="#DejaVuSans-20" x="3334.810547"/>
      <use xlink:href="#DejaVuSans-38" x="3366.597656"/>
      <use xlink:href="#DejaVuSans-35" x="3430.220703"/>
      <use xlink:href="#DejaVuSans-5d" x="3493.84375"/>
     </g>
    </g>
   </g>
  </g>
 </g>
 <defs>
  <clipPath id="pc2a4238304">
   <rect x="69.77" y="26.88" width="840.205" height="262.576"/>
  </clipPath>
 </defs>
</svg>
