<?xml version="1.0" encoding="utf-8" standalone="no"?>
<!DOCTYPE svg PUBLIC "-//W3C//DTD SVG 1.1//EN"
  "http://www.w3.org/Graphics/SVG/1.1/DTD/svg11.dtd">
<svg xmlns:xlink="http://www.w3.org/1999/xlink" width="288pt" height="288pt" viewBox="0 0 288 288" xmlns="http://www.w3.org/2000/svg" version="1.1">
 <metadata>
  <rdf:RDF xmlns:dc="http://purl.org/dc/elements/1.1/" xmlns:cc="http://creativecommons.org/ns#" xmlns:rdf="http://www.w3.org/1999/02/22-rdf-syntax-ns#">
   <cc:Work>
    <dc:type rdf:resource="http://purl.org/dc/dcmitype/StillImage"/>
    <dc:date>2024-08-29T19:35:45.887593</dc:date>
    <dc:format>image/svg+xml</dc:format>
    <dc:creator>
     <cc:Agent>
      <dc:title>Matplotlib v3.8.3, https://matplotlib.org/</dc:title>
     </cc:Agent>
    </dc:creator>
   </cc:Work>
  </rdf:RDF>
 </metadata>
 <defs>
  <style type="text/css">*{stroke-linejoin: round; stroke-linecap: butt}</style>
 </defs>
 <g id="figure_1">
  <g id="patch_1">
   <path d="M 0 288 
L 288 288 
L 288 0 
L 0 0 
z
" style="fill: #ffffff"/>
  </g>
  <g id="axes_1">
   <g id="patch_2">
    <path d="M 49.43 149.567108 
L 154.373074 149.567108 
L 154.373074 13.821323 
L 49.43 13.821323 
z
" style="fill: #ffffff"/>
   </g>
   <g id="PathCollection_1">
    <defs>
     <path id="mb38e0f2054" d="M 0 2.95804 
C 0.784481 2.95804 1.536938 2.646362 2.09165 2.09165 
C 2.646362 1.536938 2.95804 0.784481 2.95804 0 
C 2.95804 -0.784481 2.646362 -1.536938 2.09165 -2.09165 
C 1.536938 -2.646362 0.784481 -2.95804 0 -2.95804 
C -0.784481 -2.95804 -1.536938 -2.646362 -2.09165 -2.09165 
C -2.646362 -1.536938 -2.95804 -0.784481 -2.95804 0 
C -2.95804 0.784481 -2.646362 1.536938 -2.09165 2.09165 
C -1.536938 2.646362 -0.784481 2.95804 0 2.95804 
z
" style="stroke: #fa8072"/>
    </defs>
    <g clip-path="url(#p7a8faf89d7)">
     <use xlink:href="#mb38e0f2054" x="77.293896" y="102.141908" style="fill: #fa8072; stroke: #fa8072"/>
     <use xlink:href="#mb38e0f2054" x="89.89534" y="79.599757" style="fill: #fa8072; stroke: #fa8072"/>
     <use xlink:href="#mb38e0f2054" x="122.604665" y="129.457085" style="fill: #fa8072; stroke: #fa8072"/>
     <use xlink:href="#mb38e0f2054" x="67.044404" y="81.222235" style="fill: #fa8072; stroke: #fa8072"/>
     <use xlink:href="#mb38e0f2054" x="108.996457" y="111.771281" style="fill: #fa8072; stroke: #fa8072"/>
     <use xlink:href="#mb38e0f2054" x="114.357547" y="94.072395" style="fill: #fa8072; stroke: #fa8072"/>
     <use xlink:href="#mb38e0f2054" x="90.105895" y="100.602946" style="fill: #fa8072; stroke: #fa8072"/>
     <use xlink:href="#mb38e0f2054" x="85.861805" y="79.349387" style="fill: #fa8072; stroke: #fa8072"/>
     <use xlink:href="#mb38e0f2054" x="107.769695" y="114.777767" style="fill: #fa8072; stroke: #fa8072"/>
     <use xlink:href="#mb38e0f2054" x="79.207702" y="100.197372" style="fill: #fa8072; stroke: #fa8072"/>
     <use xlink:href="#mb38e0f2054" x="85.615313" y="58.449545" style="fill: #fa8072; stroke: #fa8072"/>
     <use xlink:href="#mb38e0f2054" x="136.75867" y="68.755307" style="fill: #fa8072; stroke: #fa8072"/>
    </g>
   </g>
   <g id="PathCollection_2">
    <defs>
     <path id="mc63ede970f" d="M 0 2.738613 
C 0.726289 2.738613 1.422928 2.450055 1.936492 1.936492 
C 2.450055 1.422928 2.738613 0.726289 2.738613 0 
C 2.738613 -0.726289 2.450055 -1.422928 1.936492 -1.936492 
C 1.422928 -2.450055 0.726289 -2.738613 0 -2.738613 
C -0.726289 -2.738613 -1.422928 -2.450055 -1.936492 -1.936492 
C -2.450055 -1.422928 -2.738613 -0.726289 -2.738613 0 
C -2.738613 0.726289 -2.450055 1.422928 -1.936492 1.936492 
C -1.422928 2.450055 -0.726289 2.738613 0 2.738613 
z
" style="stroke: #4169e1"/>
    </defs>
    <g clip-path="url(#p7a8faf89d7)">
     <use xlink:href="#mc63ede970f" x="77.293896" y="102.141908" style="fill: #4169e1; stroke: #4169e1"/>
     <use xlink:href="#mc63ede970f" x="89.89534" y="77.817471" style="fill: #4169e1; stroke: #4169e1"/>
     <use xlink:href="#mc63ede970f" x="122.604665" y="140.829857" style="fill: #4169e1; stroke: #4169e1"/>
     <use xlink:href="#mc63ede970f" x="67.044404" y="62.604627" style="fill: #4169e1; stroke: #4169e1"/>
     <use xlink:href="#mc63ede970f" x="108.996457" y="83.332978" style="fill: #4169e1; stroke: #4169e1"/>
     <use xlink:href="#mc63ede970f" x="114.357547" y="110.48249" style="fill: #4169e1; stroke: #4169e1"/>
     <use xlink:href="#mc63ede970f" x="90.105895" y="68.033025" style="fill: #4169e1; stroke: #4169e1"/>
     <use xlink:href="#mc63ede970f" x="85.861805" y="34.933999" style="fill: #4169e1; stroke: #4169e1"/>
     <use xlink:href="#mc63ede970f" x="107.769695" y="117.725422" style="fill: #4169e1; stroke: #4169e1"/>
     <use xlink:href="#mc63ede970f" x="79.207702" y="91.518145" style="fill: #4169e1; stroke: #4169e1"/>
     <use xlink:href="#mc63ede970f" x="85.615313" y="22.558574" style="fill: #4169e1; stroke: #4169e1"/>
     <use xlink:href="#mc63ede970f" x="136.75867" y="113.550426" style="fill: #4169e1; stroke: #4169e1"/>
    </g>
   </g>
   <g id="PolyCollection_1">
    <defs>
     <path id="mb88028bb0a" d="M 56.020939 -185.858092 
L 56.020939 -273.230601 
L 91.249747 -273.230601 
L 91.249747 -185.858092 
L 91.249747 -185.858092 
L 56.020939 -185.858092 
z
" style="stroke: #008000; stroke-opacity: 0.1"/>
    </defs>
    <g clip-path="url(#p7a8faf89d7)">
     <use xlink:href="#mb88028bb0a" x="0" y="288" style="fill: #008000; fill-opacity: 0.1; stroke: #008000; stroke-opacity: 0.1"/>
    </g>
   </g>
   <g id="matplotlib.axis_1">
    <g id="xtick_1">
     <g id="line2d_1">
      <defs>
       <path id="m5076c3265f" d="M 0 0 
L 0 3.5 
" style="stroke: #000000; stroke-width: 0.8"/>
      </defs>
      <g>
       <use xlink:href="#m5076c3265f" x="56.020939" y="149.567108" style="stroke: #000000; stroke-width: 0.8"/>
      </g>
     </g>
     <g id="text_1">
      <!-- 2 -->
      <g transform="translate(52.839689 164.165545) scale(0.1 -0.1)">
       <defs>
        <path id="DejaVuSans-32" d="M 1228 531 
L 3431 531 
L 3431 0 
L 469 0 
L 469 531 
Q 828 903 1448 1529 
Q 2069 2156 2228 2338 
Q 2531 2678 2651 2914 
Q 2772 3150 2772 3378 
Q 2772 3750 2511 3984 
Q 2250 4219 1831 4219 
Q 1534 4219 1204 4116 
Q 875 4013 500 3803 
L 500 4441 
Q 881 4594 1212 4672 
Q 1544 4750 1819 4750 
Q 2544 4750 2975 4387 
Q 3406 4025 3406 3419 
Q 3406 3131 3298 2873 
Q 3191 2616 2906 2266 
Q 2828 2175 2409 1742 
Q 1991 1309 1228 531 
z
" transform="scale(0.015625)"/>
       </defs>
       <use xlink:href="#DejaVuSans-32"/>
      </g>
     </g>
    </g>
    <g id="xtick_2">
     <g id="line2d_2">
      <g>
       <use xlink:href="#m5076c3265f" x="91.249747" y="149.567108" style="stroke: #000000; stroke-width: 0.8"/>
      </g>
     </g>
     <g id="text_2">
      <!-- 3 -->
      <g transform="translate(88.068497 164.165545) scale(0.1 -0.1)">
       <defs>
        <path id="DejaVuSans-33" d="M 2597 2516 
Q 3050 2419 3304 2112 
Q 3559 1806 3559 1356 
Q 3559 666 3084 287 
Q 2609 -91 1734 -91 
Q 1441 -91 1130 -33 
Q 819 25 488 141 
L 488 750 
Q 750 597 1062 519 
Q 1375 441 1716 441 
Q 2309 441 2620 675 
Q 2931 909 2931 1356 
Q 2931 1769 2642 2001 
Q 2353 2234 1838 2234 
L 1294 2234 
L 1294 2753 
L 1863 2753 
Q 2328 2753 2575 2939 
Q 2822 3125 2822 3475 
Q 2822 3834 2567 4026 
Q 2313 4219 1838 4219 
Q 1578 4219 1281 4162 
Q 984 4106 628 3988 
L 628 4550 
Q 988 4650 1302 4700 
Q 1616 4750 1894 4750 
Q 2613 4750 3031 4423 
Q 3450 4097 3450 3541 
Q 3450 3153 3228 2886 
Q 3006 2619 2597 2516 
z
" transform="scale(0.015625)"/>
       </defs>
       <use xlink:href="#DejaVuSans-33"/>
      </g>
     </g>
    </g>
    <g id="xtick_3">
     <g id="line2d_3">
      <g>
       <use xlink:href="#m5076c3265f" x="126.478555" y="149.567108" style="stroke: #000000; stroke-width: 0.8"/>
      </g>
     </g>
     <g id="text_3">
      <!-- 4 -->
      <g transform="translate(123.297305 164.165545) scale(0.1 -0.1)">
       <defs>
        <path id="DejaVuSans-34" d="M 2419 4116 
L 825 1625 
L 2419 1625 
L 2419 4116 
z
M 2253 4666 
L 3047 4666 
L 3047 1625 
L 3713 1625 
L 3713 1100 
L 3047 1100 
L 3047 0 
L 2419 0 
L 2419 1100 
L 313 1100 
L 313 1709 
L 2253 4666 
z
" transform="scale(0.015625)"/>
       </defs>
       <use xlink:href="#DejaVuSans-34"/>
      </g>
     </g>
    </g>
   </g>
   <g id="matplotlib.axis_2">
    <g id="ytick_1">
     <g id="line2d_4">
      <defs>
       <path id="m7d29dfec0b" d="M 0 0 
L -3.5 0 
" style="stroke: #000000; stroke-width: 0.8"/>
      </defs>
      <g>
       <use xlink:href="#m7d29dfec0b" x="49.43" y="145.828162" style="stroke: #000000; stroke-width: 0.8"/>
      </g>
     </g>
     <g id="text_4">
      <!-- −5 -->
      <g transform="translate(27.687813 149.627381) scale(0.1 -0.1)">
       <defs>
        <path id="DejaVuSans-2212" d="M 678 2272 
L 4684 2272 
L 4684 1741 
L 678 1741 
L 678 2272 
z
" transform="scale(0.015625)"/>
        <path id="DejaVuSans-35" d="M 691 4666 
L 3169 4666 
L 3169 4134 
L 1269 4134 
L 1269 2991 
Q 1406 3038 1543 3061 
Q 1681 3084 1819 3084 
Q 2600 3084 3056 2656 
Q 3513 2228 3513 1497 
Q 3513 744 3044 326 
Q 2575 -91 1722 -91 
Q 1428 -91 1123 -41 
Q 819 9 494 109 
L 494 744 
Q 775 591 1075 516 
Q 1375 441 1709 441 
Q 2250 441 2565 725 
Q 2881 1009 2881 1497 
Q 2881 1984 2565 2268 
Q 2250 2553 1709 2553 
Q 1456 2553 1204 2497 
Q 953 2441 691 2322 
L 691 4666 
z
" transform="scale(0.015625)"/>
       </defs>
       <use xlink:href="#DejaVuSans-2212"/>
       <use xlink:href="#DejaVuSans-35" x="83.789062"/>
      </g>
     </g>
    </g>
    <g id="ytick_2">
     <g id="line2d_5">
      <g>
       <use xlink:href="#m7d29dfec0b" x="49.43" y="102.141908" style="stroke: #000000; stroke-width: 0.8"/>
      </g>
     </g>
     <g id="text_5">
      <!-- 0 -->
      <g transform="translate(36.0675 105.941127) scale(0.1 -0.1)">
       <defs>
        <path id="DejaVuSans-30" d="M 2034 4250 
Q 1547 4250 1301 3770 
Q 1056 3291 1056 2328 
Q 1056 1369 1301 889 
Q 1547 409 2034 409 
Q 2525 409 2770 889 
Q 3016 1369 3016 2328 
Q 3016 3291 2770 3770 
Q 2525 4250 2034 4250 
z
M 2034 4750 
Q 2819 4750 3233 4129 
Q 3647 3509 3647 2328 
Q 3647 1150 3233 529 
Q 2819 -91 2034 -91 
Q 1250 -91 836 529 
Q 422 1150 422 2328 
Q 422 3509 836 4129 
Q 1250 4750 2034 4750 
z
" transform="scale(0.015625)"/>
       </defs>
       <use xlink:href="#DejaVuSans-30"/>
      </g>
     </g>
    </g>
    <g id="ytick_3">
     <g id="line2d_6">
      <g>
       <use xlink:href="#m7d29dfec0b" x="49.43" y="58.455654" style="stroke: #000000; stroke-width: 0.8"/>
      </g>
     </g>
     <g id="text_6">
      <!-- 5 -->
      <g transform="translate(36.0675 62.254872) scale(0.1 -0.1)">
       <use xlink:href="#DejaVuSans-35"/>
      </g>
     </g>
    </g>
    <g id="ytick_4">
     <g id="line2d_7">
      <g>
       <use xlink:href="#m7d29dfec0b" x="49.43" y="14.769399" style="stroke: #000000; stroke-width: 0.8"/>
      </g>
     </g>
     <g id="text_7">
      <!-- 10 -->
      <g transform="translate(29.705 18.568618) scale(0.1 -0.1)">
       <defs>
        <path id="DejaVuSans-31" d="M 794 531 
L 1825 531 
L 1825 4091 
L 703 3866 
L 703 4441 
L 1819 4666 
L 2450 4666 
L 2450 531 
L 3481 531 
L 3481 0 
L 794 0 
L 794 531 
z
" transform="scale(0.015625)"/>
       </defs>
       <use xlink:href="#DejaVuSans-31"/>
       <use xlink:href="#DejaVuSans-30" x="63.623047"/>
      </g>
     </g>
    </g>
    <g id="text_8">
     <!-- Relative increase (%) -->
     <g transform="translate(21.192188 207.970967) rotate(-90) scale(0.12 -0.12)">
      <defs>
       <path id="DejaVuSans-Bold-52" d="M 2297 2597 
Q 2675 2597 2839 2737 
Q 3003 2878 3003 3200 
Q 3003 3519 2839 3656 
Q 2675 3794 2297 3794 
L 1791 3794 
L 1791 2597 
L 2297 2597 
z
M 1791 1766 
L 1791 0 
L 588 0 
L 588 4666 
L 2425 4666 
Q 3347 4666 3776 4356 
Q 4206 4047 4206 3378 
Q 4206 2916 3982 2619 
Q 3759 2322 3309 2181 
Q 3556 2125 3751 1926 
Q 3947 1728 4147 1325 
L 4800 0 
L 3519 0 
L 2950 1159 
Q 2778 1509 2601 1637 
Q 2425 1766 2131 1766 
L 1791 1766 
z
" transform="scale(0.015625)"/>
       <path id="DejaVuSans-Bold-65" d="M 4031 1759 
L 4031 1441 
L 1416 1441 
Q 1456 1047 1700 850 
Q 1944 653 2381 653 
Q 2734 653 3104 758 
Q 3475 863 3866 1075 
L 3866 213 
Q 3469 63 3072 -14 
Q 2675 -91 2278 -91 
Q 1328 -91 801 392 
Q 275 875 275 1747 
Q 275 2603 792 3093 
Q 1309 3584 2216 3584 
Q 3041 3584 3536 3087 
Q 4031 2591 4031 1759 
z
M 2881 2131 
Q 2881 2450 2695 2645 
Q 2509 2841 2209 2841 
Q 1884 2841 1681 2658 
Q 1478 2475 1428 2131 
L 2881 2131 
z
" transform="scale(0.015625)"/>
       <path id="DejaVuSans-Bold-6c" d="M 538 4863 
L 1656 4863 
L 1656 0 
L 538 0 
L 538 4863 
z
" transform="scale(0.015625)"/>
       <path id="DejaVuSans-Bold-61" d="M 2106 1575 
Q 1756 1575 1579 1456 
Q 1403 1338 1403 1106 
Q 1403 894 1545 773 
Q 1688 653 1941 653 
Q 2256 653 2472 879 
Q 2688 1106 2688 1447 
L 2688 1575 
L 2106 1575 
z
M 3816 1997 
L 3816 0 
L 2688 0 
L 2688 519 
Q 2463 200 2181 54 
Q 1900 -91 1497 -91 
Q 953 -91 614 226 
Q 275 544 275 1050 
Q 275 1666 698 1953 
Q 1122 2241 2028 2241 
L 2688 2241 
L 2688 2328 
Q 2688 2594 2478 2717 
Q 2269 2841 1825 2841 
Q 1466 2841 1156 2769 
Q 847 2697 581 2553 
L 581 3406 
Q 941 3494 1303 3539 
Q 1666 3584 2028 3584 
Q 2975 3584 3395 3211 
Q 3816 2838 3816 1997 
z
" transform="scale(0.015625)"/>
       <path id="DejaVuSans-Bold-74" d="M 1759 4494 
L 1759 3500 
L 2913 3500 
L 2913 2700 
L 1759 2700 
L 1759 1216 
Q 1759 972 1856 886 
Q 1953 800 2241 800 
L 2816 800 
L 2816 0 
L 1856 0 
Q 1194 0 917 276 
Q 641 553 641 1216 
L 641 2700 
L 84 2700 
L 84 3500 
L 641 3500 
L 641 4494 
L 1759 4494 
z
" transform="scale(0.015625)"/>
       <path id="DejaVuSans-Bold-69" d="M 538 3500 
L 1656 3500 
L 1656 0 
L 538 0 
L 538 3500 
z
M 538 4863 
L 1656 4863 
L 1656 3950 
L 538 3950 
L 538 4863 
z
" transform="scale(0.015625)"/>
       <path id="DejaVuSans-Bold-76" d="M 97 3500 
L 1216 3500 
L 2088 1081 
L 2956 3500 
L 4078 3500 
L 2700 0 
L 1472 0 
L 97 3500 
z
" transform="scale(0.015625)"/>
       <path id="DejaVuSans-Bold-20" transform="scale(0.015625)"/>
       <path id="DejaVuSans-Bold-6e" d="M 4056 2131 
L 4056 0 
L 2931 0 
L 2931 347 
L 2931 1631 
Q 2931 2084 2911 2256 
Q 2891 2428 2841 2509 
Q 2775 2619 2662 2680 
Q 2550 2741 2406 2741 
Q 2056 2741 1856 2470 
Q 1656 2200 1656 1722 
L 1656 0 
L 538 0 
L 538 3500 
L 1656 3500 
L 1656 2988 
Q 1909 3294 2193 3439 
Q 2478 3584 2822 3584 
Q 3428 3584 3742 3212 
Q 4056 2841 4056 2131 
z
" transform="scale(0.015625)"/>
       <path id="DejaVuSans-Bold-63" d="M 3366 3391 
L 3366 2478 
Q 3138 2634 2908 2709 
Q 2678 2784 2431 2784 
Q 1963 2784 1702 2511 
Q 1441 2238 1441 1747 
Q 1441 1256 1702 982 
Q 1963 709 2431 709 
Q 2694 709 2930 787 
Q 3166 866 3366 1019 
L 3366 103 
Q 3103 6 2833 -42 
Q 2563 -91 2291 -91 
Q 1344 -91 809 395 
Q 275 881 275 1747 
Q 275 2613 809 3098 
Q 1344 3584 2291 3584 
Q 2566 3584 2833 3536 
Q 3100 3488 3366 3391 
z
" transform="scale(0.015625)"/>
       <path id="DejaVuSans-Bold-72" d="M 3138 2547 
Q 2991 2616 2845 2648 
Q 2700 2681 2553 2681 
Q 2122 2681 1889 2404 
Q 1656 2128 1656 1613 
L 1656 0 
L 538 0 
L 538 3500 
L 1656 3500 
L 1656 2925 
Q 1872 3269 2151 3426 
Q 2431 3584 2822 3584 
Q 2878 3584 2943 3579 
Q 3009 3575 3134 3559 
L 3138 2547 
z
" transform="scale(0.015625)"/>
       <path id="DejaVuSans-Bold-73" d="M 3272 3391 
L 3272 2541 
Q 2913 2691 2578 2766 
Q 2244 2841 1947 2841 
Q 1628 2841 1473 2761 
Q 1319 2681 1319 2516 
Q 1319 2381 1436 2309 
Q 1553 2238 1856 2203 
L 2053 2175 
Q 2913 2066 3209 1816 
Q 3506 1566 3506 1031 
Q 3506 472 3093 190 
Q 2681 -91 1863 -91 
Q 1516 -91 1145 -36 
Q 775 19 384 128 
L 384 978 
Q 719 816 1070 734 
Q 1422 653 1784 653 
Q 2113 653 2278 743 
Q 2444 834 2444 1013 
Q 2444 1163 2330 1236 
Q 2216 1309 1875 1350 
L 1678 1375 
Q 931 1469 631 1722 
Q 331 1975 331 2491 
Q 331 3047 712 3315 
Q 1094 3584 1881 3584 
Q 2191 3584 2531 3537 
Q 2872 3491 3272 3391 
z
" transform="scale(0.015625)"/>
       <path id="DejaVuSans-Bold-28" d="M 2413 -844 
L 1484 -844 
Q 1006 -72 778 623 
Q 550 1319 550 2003 
Q 550 2688 779 3389 
Q 1009 4091 1484 4856 
L 2413 4856 
Q 2013 4116 1813 3408 
Q 1613 2700 1613 2009 
Q 1613 1319 1811 609 
Q 2009 -100 2413 -844 
z
" transform="scale(0.015625)"/>
       <path id="DejaVuSans-Bold-25" d="M 4959 1925 
Q 4738 1925 4616 1733 
Q 4494 1541 4494 1184 
Q 4494 825 4614 633 
Q 4734 441 4959 441 
Q 5184 441 5303 633 
Q 5422 825 5422 1184 
Q 5422 1541 5301 1733 
Q 5181 1925 4959 1925 
z
M 4959 2450 
Q 5541 2450 5875 2112 
Q 6209 1775 6209 1184 
Q 6209 594 5875 251 
Q 5541 -91 4959 -91 
Q 4378 -91 4042 251 
Q 3706 594 3706 1184 
Q 3706 1772 4042 2111 
Q 4378 2450 4959 2450 
z
M 2094 -91 
L 1403 -91 
L 4319 4750 
L 5013 4750 
L 2094 -91 
z
M 1453 4750 
Q 2034 4750 2367 4411 
Q 2700 4072 2700 3481 
Q 2700 2891 2367 2550 
Q 2034 2209 1453 2209 
Q 872 2209 539 2550 
Q 206 2891 206 3481 
Q 206 4072 539 4411 
Q 872 4750 1453 4750 
z
M 1453 4225 
Q 1228 4225 1106 4031 
Q 984 3838 984 3481 
Q 984 3122 1106 2926 
Q 1228 2731 1453 2731 
Q 1678 2731 1798 2926 
Q 1919 3122 1919 3481 
Q 1919 3838 1797 4031 
Q 1675 4225 1453 4225 
z
" transform="scale(0.015625)"/>
       <path id="DejaVuSans-Bold-29" d="M 513 -844 
Q 913 -100 1113 609 
Q 1313 1319 1313 2009 
Q 1313 2700 1113 3408 
Q 913 4116 513 4856 
L 1441 4856 
Q 1916 4091 2145 3389 
Q 2375 2688 2375 2003 
Q 2375 1319 2147 623 
Q 1919 -72 1441 -844 
L 513 -844 
z
" transform="scale(0.015625)"/>
      </defs>
      <use xlink:href="#DejaVuSans-Bold-52"/>
      <use xlink:href="#DejaVuSans-Bold-65" x="77.001953"/>
      <use xlink:href="#DejaVuSans-Bold-6c" x="144.824219"/>
      <use xlink:href="#DejaVuSans-Bold-61" x="179.101562"/>
      <use xlink:href="#DejaVuSans-Bold-74" x="246.582031"/>
      <use xlink:href="#DejaVuSans-Bold-69" x="294.384766"/>
      <use xlink:href="#DejaVuSans-Bold-76" x="328.662109"/>
      <use xlink:href="#DejaVuSans-Bold-65" x="393.847656"/>
      <use xlink:href="#DejaVuSans-Bold-20" x="461.669922"/>
      <use xlink:href="#DejaVuSans-Bold-69" x="496.484375"/>
      <use xlink:href="#DejaVuSans-Bold-6e" x="530.761719"/>
      <use xlink:href="#DejaVuSans-Bold-63" x="601.953125"/>
      <use xlink:href="#DejaVuSans-Bold-72" x="661.230469"/>
      <use xlink:href="#DejaVuSans-Bold-65" x="710.546875"/>
      <use xlink:href="#DejaVuSans-Bold-61" x="778.369141"/>
      <use xlink:href="#DejaVuSans-Bold-73" x="845.849609"/>
      <use xlink:href="#DejaVuSans-Bold-65" x="905.371094"/>
      <use xlink:href="#DejaVuSans-Bold-20" x="973.193359"/>
      <use xlink:href="#DejaVuSans-Bold-28" x="1008.007812"/>
      <use xlink:href="#DejaVuSans-Bold-25" x="1053.710938"/>
      <use xlink:href="#DejaVuSans-Bold-29" x="1153.90625"/>
     </g>
    </g>
   </g>
   <g id="line2d_8">
    <path d="M -1 26.707922 
L 289 212.027308 
" clip-path="url(#p7a8faf89d7)" style="fill: none; stroke: #000000; stroke-width: 0.5; stroke-linecap: square"/>
   </g>
   <g id="LineCollection_1">
    <path d="M -1 102.141908 
L 289 102.141908 
" clip-path="url(#p7a8faf89d7)" style="fill: none; stroke-dasharray: 1.85,0.8; stroke-dashoffset: 0; stroke: #808080; stroke-width: 0.5"/>
   </g>
   <g id="LineCollection_2">
    <path d="M 56.020939 102.141908 
L 56.020939 14.769399 
" clip-path="url(#p7a8faf89d7)" style="fill: none; stroke-dasharray: 1.85,0.8; stroke-dashoffset: 0; stroke: #808080; stroke-width: 0.5"/>
   </g>
   <g id="LineCollection_3">
    <path d="M 91.249747 102.141908 
L 91.249747 14.769399 
" clip-path="url(#p7a8faf89d7)" style="fill: none; stroke-dasharray: 1.85,0.8; stroke-dashoffset: 0; stroke: #808080; stroke-width: 0.5"/>
   </g>
   <g id="patch_3">
    <path d="M 49.43 149.567108 
L 49.43 13.821323 
" style="fill: none; stroke: #000000; stroke-width: 0.8; stroke-linejoin: miter; stroke-linecap: square"/>
   </g>
   <g id="patch_4">
    <path d="M 49.43 149.567108 
L 154.373074 149.567108 
" style="fill: none; stroke: #000000; stroke-width: 0.8; stroke-linejoin: miter; stroke-linecap: square"/>
   </g>
   <g id="legend_1">
    <g id="line2d_9">
     <path d="M 45.738074 24.300073 
L 53.738074 24.300073 
L 61.738074 24.300073 
" style="fill: none; stroke: #000000; stroke-width: 0.5; stroke-linecap: square"/>
    </g>
    <g id="text_9">
     <!-- p=0.02 -->
     <g transform="translate(68.138074 27.100073) scale(0.08 -0.08)">
      <defs>
       <path id="DejaVuSans-70" d="M 1159 525 
L 1159 -1331 
L 581 -1331 
L 581 3500 
L 1159 3500 
L 1159 2969 
Q 1341 3281 1617 3432 
Q 1894 3584 2278 3584 
Q 2916 3584 3314 3078 
Q 3713 2572 3713 1747 
Q 3713 922 3314 415 
Q 2916 -91 2278 -91 
Q 1894 -91 1617 61 
Q 1341 213 1159 525 
z
M 3116 1747 
Q 3116 2381 2855 2742 
Q 2594 3103 2138 3103 
Q 1681 3103 1420 2742 
Q 1159 2381 1159 1747 
Q 1159 1113 1420 752 
Q 1681 391 2138 391 
Q 2594 391 2855 752 
Q 3116 1113 3116 1747 
z
" transform="scale(0.015625)"/>
       <path id="DejaVuSans-3d" d="M 678 2906 
L 4684 2906 
L 4684 2381 
L 678 2381 
L 678 2906 
z
M 678 1631 
L 4684 1631 
L 4684 1100 
L 678 1100 
L 678 1631 
z
" transform="scale(0.015625)"/>
       <path id="DejaVuSans-2e" d="M 684 794 
L 1344 794 
L 1344 0 
L 684 0 
L 684 794 
z
" transform="scale(0.015625)"/>
      </defs>
      <use xlink:href="#DejaVuSans-70"/>
      <use xlink:href="#DejaVuSans-3d" x="63.476562"/>
      <use xlink:href="#DejaVuSans-30" x="147.265625"/>
      <use xlink:href="#DejaVuSans-2e" x="210.888672"/>
      <use xlink:href="#DejaVuSans-30" x="242.675781"/>
      <use xlink:href="#DejaVuSans-32" x="306.298828"/>
     </g>
    </g>
    <g id="patch_5">
     <path d="M 45.738074 38.842573 
L 61.738074 38.842573 
L 61.738074 33.242573 
L 45.738074 33.242573 
z
" style="fill: #008000; fill-opacity: 0.1; stroke: #008000; stroke-opacity: 0.1; stroke-linejoin: miter"/>
    </g>
    <g id="text_10">
     <!-- Scale free networks -->
     <g transform="translate(68.138074 38.842573) scale(0.08 -0.08)">
      <defs>
       <path id="DejaVuSans-53" d="M 3425 4513 
L 3425 3897 
Q 3066 4069 2747 4153 
Q 2428 4238 2131 4238 
Q 1616 4238 1336 4038 
Q 1056 3838 1056 3469 
Q 1056 3159 1242 3001 
Q 1428 2844 1947 2747 
L 2328 2669 
Q 3034 2534 3370 2195 
Q 3706 1856 3706 1288 
Q 3706 609 3251 259 
Q 2797 -91 1919 -91 
Q 1588 -91 1214 -16 
Q 841 59 441 206 
L 441 856 
Q 825 641 1194 531 
Q 1563 422 1919 422 
Q 2459 422 2753 634 
Q 3047 847 3047 1241 
Q 3047 1584 2836 1778 
Q 2625 1972 2144 2069 
L 1759 2144 
Q 1053 2284 737 2584 
Q 422 2884 422 3419 
Q 422 4038 858 4394 
Q 1294 4750 2059 4750 
Q 2388 4750 2728 4690 
Q 3069 4631 3425 4513 
z
" transform="scale(0.015625)"/>
       <path id="DejaVuSans-63" d="M 3122 3366 
L 3122 2828 
Q 2878 2963 2633 3030 
Q 2388 3097 2138 3097 
Q 1578 3097 1268 2742 
Q 959 2388 959 1747 
Q 959 1106 1268 751 
Q 1578 397 2138 397 
Q 2388 397 2633 464 
Q 2878 531 3122 666 
L 3122 134 
Q 2881 22 2623 -34 
Q 2366 -91 2075 -91 
Q 1284 -91 818 406 
Q 353 903 353 1747 
Q 353 2603 823 3093 
Q 1294 3584 2113 3584 
Q 2378 3584 2631 3529 
Q 2884 3475 3122 3366 
z
" transform="scale(0.015625)"/>
       <path id="DejaVuSans-61" d="M 2194 1759 
Q 1497 1759 1228 1600 
Q 959 1441 959 1056 
Q 959 750 1161 570 
Q 1363 391 1709 391 
Q 2188 391 2477 730 
Q 2766 1069 2766 1631 
L 2766 1759 
L 2194 1759 
z
M 3341 1997 
L 3341 0 
L 2766 0 
L 2766 531 
Q 2569 213 2275 61 
Q 1981 -91 1556 -91 
Q 1019 -91 701 211 
Q 384 513 384 1019 
Q 384 1609 779 1909 
Q 1175 2209 1959 2209 
L 2766 2209 
L 2766 2266 
Q 2766 2663 2505 2880 
Q 2244 3097 1772 3097 
Q 1472 3097 1187 3025 
Q 903 2953 641 2809 
L 641 3341 
Q 956 3463 1253 3523 
Q 1550 3584 1831 3584 
Q 2591 3584 2966 3190 
Q 3341 2797 3341 1997 
z
" transform="scale(0.015625)"/>
       <path id="DejaVuSans-6c" d="M 603 4863 
L 1178 4863 
L 1178 0 
L 603 0 
L 603 4863 
z
" transform="scale(0.015625)"/>
       <path id="DejaVuSans-65" d="M 3597 1894 
L 3597 1613 
L 953 1613 
Q 991 1019 1311 708 
Q 1631 397 2203 397 
Q 2534 397 2845 478 
Q 3156 559 3463 722 
L 3463 178 
Q 3153 47 2828 -22 
Q 2503 -91 2169 -91 
Q 1331 -91 842 396 
Q 353 884 353 1716 
Q 353 2575 817 3079 
Q 1281 3584 2069 3584 
Q 2775 3584 3186 3129 
Q 3597 2675 3597 1894 
z
M 3022 2063 
Q 3016 2534 2758 2815 
Q 2500 3097 2075 3097 
Q 1594 3097 1305 2825 
Q 1016 2553 972 2059 
L 3022 2063 
z
" transform="scale(0.015625)"/>
       <path id="DejaVuSans-20" transform="scale(0.015625)"/>
       <path id="DejaVuSans-66" d="M 2375 4863 
L 2375 4384 
L 1825 4384 
Q 1516 4384 1395 4259 
Q 1275 4134 1275 3809 
L 1275 3500 
L 2222 3500 
L 2222 3053 
L 1275 3053 
L 1275 0 
L 697 0 
L 697 3053 
L 147 3053 
L 147 3500 
L 697 3500 
L 697 3744 
Q 697 4328 969 4595 
Q 1241 4863 1831 4863 
L 2375 4863 
z
" transform="scale(0.015625)"/>
       <path id="DejaVuSans-72" d="M 2631 2963 
Q 2534 3019 2420 3045 
Q 2306 3072 2169 3072 
Q 1681 3072 1420 2755 
Q 1159 2438 1159 1844 
L 1159 0 
L 581 0 
L 581 3500 
L 1159 3500 
L 1159 2956 
Q 1341 3275 1631 3429 
Q 1922 3584 2338 3584 
Q 2397 3584 2469 3576 
Q 2541 3569 2628 3553 
L 2631 2963 
z
" transform="scale(0.015625)"/>
       <path id="DejaVuSans-6e" d="M 3513 2113 
L 3513 0 
L 2938 0 
L 2938 2094 
Q 2938 2591 2744 2837 
Q 2550 3084 2163 3084 
Q 1697 3084 1428 2787 
Q 1159 2491 1159 1978 
L 1159 0 
L 581 0 
L 581 3500 
L 1159 3500 
L 1159 2956 
Q 1366 3272 1645 3428 
Q 1925 3584 2291 3584 
Q 2894 3584 3203 3211 
Q 3513 2838 3513 2113 
z
" transform="scale(0.015625)"/>
       <path id="DejaVuSans-74" d="M 1172 4494 
L 1172 3500 
L 2356 3500 
L 2356 3053 
L 1172 3053 
L 1172 1153 
Q 1172 725 1289 603 
Q 1406 481 1766 481 
L 2356 481 
L 2356 0 
L 1766 0 
Q 1100 0 847 248 
Q 594 497 594 1153 
L 594 3053 
L 172 3053 
L 172 3500 
L 594 3500 
L 594 4494 
L 1172 4494 
z
" transform="scale(0.015625)"/>
       <path id="DejaVuSans-77" d="M 269 3500 
L 844 3500 
L 1563 769 
L 2278 3500 
L 2956 3500 
L 3675 769 
L 4391 3500 
L 4966 3500 
L 4050 0 
L 3372 0 
L 2619 2869 
L 1863 0 
L 1184 0 
L 269 3500 
z
" transform="scale(0.015625)"/>
       <path id="DejaVuSans-6f" d="M 1959 3097 
Q 1497 3097 1228 2736 
Q 959 2375 959 1747 
Q 959 1119 1226 758 
Q 1494 397 1959 397 
Q 2419 397 2687 759 
Q 2956 1122 2956 1747 
Q 2956 2369 2687 2733 
Q 2419 3097 1959 3097 
z
M 1959 3584 
Q 2709 3584 3137 3096 
Q 3566 2609 3566 1747 
Q 3566 888 3137 398 
Q 2709 -91 1959 -91 
Q 1206 -91 779 398 
Q 353 888 353 1747 
Q 353 2609 779 3096 
Q 1206 3584 1959 3584 
z
" transform="scale(0.015625)"/>
       <path id="DejaVuSans-6b" d="M 581 4863 
L 1159 4863 
L 1159 1991 
L 2875 3500 
L 3609 3500 
L 1753 1863 
L 3688 0 
L 2938 0 
L 1159 1709 
L 1159 0 
L 581 0 
L 581 4863 
z
" transform="scale(0.015625)"/>
       <path id="DejaVuSans-73" d="M 2834 3397 
L 2834 2853 
Q 2591 2978 2328 3040 
Q 2066 3103 1784 3103 
Q 1356 3103 1142 2972 
Q 928 2841 928 2578 
Q 928 2378 1081 2264 
Q 1234 2150 1697 2047 
L 1894 2003 
Q 2506 1872 2764 1633 
Q 3022 1394 3022 966 
Q 3022 478 2636 193 
Q 2250 -91 1575 -91 
Q 1294 -91 989 -36 
Q 684 19 347 128 
L 347 722 
Q 666 556 975 473 
Q 1284 391 1588 391 
Q 1994 391 2212 530 
Q 2431 669 2431 922 
Q 2431 1156 2273 1281 
Q 2116 1406 1581 1522 
L 1381 1569 
Q 847 1681 609 1914 
Q 372 2147 372 2553 
Q 372 3047 722 3315 
Q 1072 3584 1716 3584 
Q 2034 3584 2315 3537 
Q 2597 3491 2834 3397 
z
" transform="scale(0.015625)"/>
      </defs>
      <use xlink:href="#DejaVuSans-53"/>
      <use xlink:href="#DejaVuSans-63" x="63.476562"/>
      <use xlink:href="#DejaVuSans-61" x="118.457031"/>
      <use xlink:href="#DejaVuSans-6c" x="179.736328"/>
      <use xlink:href="#DejaVuSans-65" x="207.519531"/>
      <use xlink:href="#DejaVuSans-20" x="269.042969"/>
      <use xlink:href="#DejaVuSans-66" x="300.830078"/>
      <use xlink:href="#DejaVuSans-72" x="336.035156"/>
      <use xlink:href="#DejaVuSans-65" x="374.898438"/>
      <use xlink:href="#DejaVuSans-65" x="436.421875"/>
      <use xlink:href="#DejaVuSans-20" x="497.945312"/>
      <use xlink:href="#DejaVuSans-6e" x="529.732422"/>
      <use xlink:href="#DejaVuSans-65" x="593.111328"/>
      <use xlink:href="#DejaVuSans-74" x="654.634766"/>
      <use xlink:href="#DejaVuSans-77" x="693.84375"/>
      <use xlink:href="#DejaVuSans-6f" x="775.630859"/>
      <use xlink:href="#DejaVuSans-72" x="836.8125"/>
      <use xlink:href="#DejaVuSans-6b" x="877.925781"/>
      <use xlink:href="#DejaVuSans-73" x="935.835938"/>
     </g>
    </g>
   </g>
  </g>
  <g id="axes_2">
   <g id="patch_6">
    <path d="M 169.102835 149.567108 
L 274.045909 149.567108 
L 274.045909 13.821323 
L 169.102835 13.821323 
z
" style="fill: #ffffff"/>
   </g>
   <g id="PathCollection_3">
    <g clip-path="url(#pebd707dd77)">
     <use xlink:href="#mb38e0f2054" x="175.661777" y="102.141908" style="fill: #fa8072; stroke: #fa8072"/>
     <use xlink:href="#mb38e0f2054" x="175.661777" y="79.599757" style="fill: #fa8072; stroke: #fa8072"/>
     <use xlink:href="#mb38e0f2054" x="175.661777" y="129.457085" style="fill: #fa8072; stroke: #fa8072"/>
     <use xlink:href="#mb38e0f2054" x="201.897546" y="81.222235" style="fill: #fa8072; stroke: #fa8072"/>
     <use xlink:href="#mb38e0f2054" x="201.897546" y="111.771281" style="fill: #fa8072; stroke: #fa8072"/>
     <use xlink:href="#mb38e0f2054" x="201.897546" y="94.072395" style="fill: #fa8072; stroke: #fa8072"/>
     <use xlink:href="#mb38e0f2054" x="241.251199" y="100.602946" style="fill: #fa8072; stroke: #fa8072"/>
     <use xlink:href="#mb38e0f2054" x="241.251199" y="79.349387" style="fill: #fa8072; stroke: #fa8072"/>
     <use xlink:href="#mb38e0f2054" x="241.251199" y="114.777767" style="fill: #fa8072; stroke: #fa8072"/>
     <use xlink:href="#mb38e0f2054" x="267.486967" y="100.197372" style="fill: #fa8072; stroke: #fa8072"/>
     <use xlink:href="#mb38e0f2054" x="267.486967" y="58.449545" style="fill: #fa8072; stroke: #fa8072"/>
     <use xlink:href="#mb38e0f2054" x="267.486967" y="68.755307" style="fill: #fa8072; stroke: #fa8072"/>
    </g>
   </g>
   <g id="PathCollection_4">
    <g clip-path="url(#pebd707dd77)">
     <use xlink:href="#mc63ede970f" x="175.661777" y="102.141908" style="fill: #4169e1; stroke: #4169e1"/>
     <use xlink:href="#mc63ede970f" x="175.661777" y="77.817471" style="fill: #4169e1; stroke: #4169e1"/>
     <use xlink:href="#mc63ede970f" x="175.661777" y="140.829857" style="fill: #4169e1; stroke: #4169e1"/>
     <use xlink:href="#mc63ede970f" x="201.897546" y="62.604627" style="fill: #4169e1; stroke: #4169e1"/>
     <use xlink:href="#mc63ede970f" x="201.897546" y="83.332978" style="fill: #4169e1; stroke: #4169e1"/>
     <use xlink:href="#mc63ede970f" x="201.897546" y="110.48249" style="fill: #4169e1; stroke: #4169e1"/>
     <use xlink:href="#mc63ede970f" x="241.251199" y="68.033025" style="fill: #4169e1; stroke: #4169e1"/>
     <use xlink:href="#mc63ede970f" x="241.251199" y="34.933999" style="fill: #4169e1; stroke: #4169e1"/>
     <use xlink:href="#mc63ede970f" x="241.251199" y="117.725422" style="fill: #4169e1; stroke: #4169e1"/>
     <use xlink:href="#mc63ede970f" x="267.486967" y="91.518145" style="fill: #4169e1; stroke: #4169e1"/>
     <use xlink:href="#mc63ede970f" x="267.486967" y="22.558574" style="fill: #4169e1; stroke: #4169e1"/>
     <use xlink:href="#mc63ede970f" x="267.486967" y="113.550426" style="fill: #4169e1; stroke: #4169e1"/>
    </g>
   </g>
   <g id="matplotlib.axis_3"/>
   <g id="matplotlib.axis_4"/>
   <g id="line2d_10">
    <path d="M 136.308125 114.122931 
L 267.486967 76.108544 
" clip-path="url(#pebd707dd77)" style="fill: none; stroke-dasharray: 1.85,0.8; stroke-dashoffset: 0; stroke: #000000; stroke-width: 0.5"/>
   </g>
   <g id="LineCollection_4">
    <path d="M 136.308125 102.141908 
L 267.486967 102.141908 
" clip-path="url(#pebd707dd77)" style="fill: none; stroke-dasharray: 1.85,0.8; stroke-dashoffset: 0; stroke: #808080; stroke-width: 0.5"/>
   </g>
   <g id="patch_7">
    <path d="M 169.102835 149.567108 
L 274.045909 149.567108 
" style="fill: none; stroke: #000000; stroke-width: 0.8; stroke-linejoin: miter; stroke-linecap: square"/>
   </g>
   <g id="legend_2">
    <g id="line2d_11">
     <path d="M 176.302835 24.300073 
L 184.302835 24.300073 
L 192.302835 24.300073 
" style="fill: none; stroke-dasharray: 1.85,0.8; stroke-dashoffset: 0; stroke: #000000; stroke-width: 0.5"/>
    </g>
    <g id="text_11">
     <!-- p=0.07 -->
     <g transform="translate(198.702835 27.100073) scale(0.08 -0.08)">
      <defs>
       <path id="DejaVuSans-37" d="M 525 4666 
L 3525 4666 
L 3525 4397 
L 1831 0 
L 1172 0 
L 2766 4134 
L 525 4134 
L 525 4666 
z
" transform="scale(0.015625)"/>
      </defs>
      <use xlink:href="#DejaVuSans-70"/>
      <use xlink:href="#DejaVuSans-3d" x="63.476562"/>
      <use xlink:href="#DejaVuSans-30" x="147.265625"/>
      <use xlink:href="#DejaVuSans-2e" x="210.888672"/>
      <use xlink:href="#DejaVuSans-30" x="242.675781"/>
      <use xlink:href="#DejaVuSans-37" x="306.298828"/>
     </g>
    </g>
   </g>
  </g>
  <g id="axes_3">
   <g id="patch_8">
    <path d="M 49.43 245.32 
L 154.373074 245.32 
L 154.373074 177.447108 
L 49.43 177.447108 
z
" style="fill: #ffffff"/>
   </g>
   <g id="PathCollection_5">
    <defs>
     <path id="m3f8d349990" d="M -2.236068 2.236068 
L 2.236068 2.236068 
L 2.236068 -2.236068 
L -2.236068 -2.236068 
z
" style="stroke: #000000"/>
    </defs>
    <g clip-path="url(#pe09bcaf0ff)">
     <use xlink:href="#m3f8d349990" x="59.327015" y="184.48286" style="stroke: #000000"/>
     <use xlink:href="#m3f8d349990" x="63.802939" y="183.363838" style="stroke: #000000"/>
     <use xlink:href="#m3f8d349990" x="75.421008" y="185.838821" style="stroke: #000000"/>
     <use xlink:href="#m3f8d349990" x="145.246154" y="184.48286" style="stroke: #000000"/>
     <use xlink:href="#m3f8d349990" x="55.686484" y="183.44438" style="stroke: #000000"/>
     <use xlink:href="#m3f8d349990" x="70.58749" y="184.960875" style="stroke: #000000"/>
     <use xlink:href="#m3f8d349990" x="72.491703" y="184.082279" style="stroke: #000000"/>
     <use xlink:href="#m3f8d349990" x="148.11659" y="198.917369" style="stroke: #000000"/>
     <use xlink:href="#m3f8d349990" x="63.877726" y="184.406464" style="stroke: #000000"/>
     <use xlink:href="#m3f8d349990" x="62.370262" y="183.35141" style="stroke: #000000"/>
     <use xlink:href="#m3f8d349990" x="70.151755" y="185.110121" style="stroke: #000000"/>
     <use xlink:href="#m3f8d349990" x="57.728705" y="227.133215" style="stroke: #000000"/>
     <use xlink:href="#m3f8d349990" x="60.006782" y="184.386331" style="stroke: #000000"/>
     <use xlink:href="#m3f8d349990" x="62.28271" y="182.313914" style="stroke: #000000"/>
     <use xlink:href="#m3f8d349990" x="80.448388" y="182.825506" style="stroke: #000000"/>
     <use xlink:href="#m3f8d349990" x="127.130676" y="242.234869" style="stroke: #000000"/>
    </g>
   </g>
   <g id="PathCollection_6">
    <defs>
     <path id="m1d3bb1c2aa" d="M -2.236068 2.236068 
L 2.236068 -2.236068 
M -2.236068 -2.236068 
L 2.236068 2.236068 
" style="stroke: #000000; stroke-width: 1.5"/>
    </defs>
    <g clip-path="url(#pe09bcaf0ff)">
     <use xlink:href="#m1d3bb1c2aa" x="59.327015" y="184.48286" style="stroke: #000000; stroke-width: 1.5"/>
     <use xlink:href="#m1d3bb1c2aa" x="63.802939" y="183.275363" style="stroke: #000000; stroke-width: 1.5"/>
     <use xlink:href="#m1d3bb1c2aa" x="75.421008" y="186.403381" style="stroke: #000000; stroke-width: 1.5"/>
     <use xlink:href="#m1d3bb1c2aa" x="145.246154" y="181.145556" style="stroke: #000000; stroke-width: 1.5"/>
     <use xlink:href="#m1d3bb1c2aa" x="55.686484" y="182.520178" style="stroke: #000000; stroke-width: 1.5"/>
     <use xlink:href="#m1d3bb1c2aa" x="70.58749" y="183.54916" style="stroke: #000000; stroke-width: 1.5"/>
     <use xlink:href="#m1d3bb1c2aa" x="72.491703" y="184.896898" style="stroke: #000000; stroke-width: 1.5"/>
     <use xlink:href="#m1d3bb1c2aa" x="148.11659" y="194.266624" style="stroke: #000000; stroke-width: 1.5"/>
     <use xlink:href="#m1d3bb1c2aa" x="63.877726" y="182.789651" style="stroke: #000000; stroke-width: 1.5"/>
     <use xlink:href="#m1d3bb1c2aa" x="62.370262" y="181.146572" style="stroke: #000000; stroke-width: 1.5"/>
     <use xlink:href="#m1d3bb1c2aa" x="70.151755" y="185.256446" style="stroke: #000000; stroke-width: 1.5"/>
     <use xlink:href="#m1d3bb1c2aa" x="57.728705" y="227.005057" style="stroke: #000000; stroke-width: 1.5"/>
     <use xlink:href="#m1d3bb1c2aa" x="60.006782" y="183.955483" style="stroke: #000000; stroke-width: 1.5"/>
     <use xlink:href="#m1d3bb1c2aa" x="62.28271" y="180.532239" style="stroke: #000000; stroke-width: 1.5"/>
     <use xlink:href="#m1d3bb1c2aa" x="80.448388" y="185.049194" style="stroke: #000000; stroke-width: 1.5"/>
     <use xlink:href="#m1d3bb1c2aa" x="127.130676" y="242.081708" style="stroke: #000000; stroke-width: 1.5"/>
    </g>
   </g>
   <g id="PathCollection_7">
    <defs>
     <path id="me5377e0721" d="M 0 3.354102 
C 0.889518 3.354102 1.742724 3.000693 2.371708 2.371708 
C 3.000693 1.742724 3.354102 0.889518 3.354102 0 
C 3.354102 -0.889518 3.000693 -1.742724 2.371708 -2.371708 
C 1.742724 -3.000693 0.889518 -3.354102 0 -3.354102 
C -0.889518 -3.354102 -1.742724 -3.000693 -2.371708 -2.371708 
C -3.000693 -1.742724 -3.354102 -0.889518 -3.354102 0 
C -3.354102 0.889518 -3.000693 1.742724 -2.371708 2.371708 
C -1.742724 3.000693 -0.889518 3.354102 0 3.354102 
z
" style="stroke: #fa8072"/>
    </defs>
    <g clip-path="url(#pe09bcaf0ff)">
     <use xlink:href="#me5377e0721" x="59.327015" y="184.48286" style="fill: #fa8072; stroke: #fa8072"/>
     <use xlink:href="#me5377e0721" x="63.802939" y="183.363838" style="fill: #fa8072; stroke: #fa8072"/>
     <use xlink:href="#me5377e0721" x="75.421008" y="185.838821" style="fill: #fa8072; stroke: #fa8072"/>
     <use xlink:href="#me5377e0721" x="55.686484" y="183.44438" style="fill: #fa8072; stroke: #fa8072"/>
     <use xlink:href="#me5377e0721" x="70.58749" y="184.960875" style="fill: #fa8072; stroke: #fa8072"/>
     <use xlink:href="#me5377e0721" x="72.491703" y="184.082279" style="fill: #fa8072; stroke: #fa8072"/>
     <use xlink:href="#me5377e0721" x="63.877726" y="184.406464" style="fill: #fa8072; stroke: #fa8072"/>
     <use xlink:href="#me5377e0721" x="62.370262" y="183.35141" style="fill: #fa8072; stroke: #fa8072"/>
     <use xlink:href="#me5377e0721" x="70.151755" y="185.110121" style="fill: #fa8072; stroke: #fa8072"/>
     <use xlink:href="#me5377e0721" x="60.006782" y="184.386331" style="fill: #fa8072; stroke: #fa8072"/>
     <use xlink:href="#me5377e0721" x="62.28271" y="182.313914" style="fill: #fa8072; stroke: #fa8072"/>
     <use xlink:href="#me5377e0721" x="80.448388" y="182.825506" style="fill: #fa8072; stroke: #fa8072"/>
    </g>
   </g>
   <g id="PathCollection_8">
    <defs>
     <path id="mb4e001fd2b" d="M 0 2.5 
C 0.663008 2.5 1.29895 2.236584 1.767767 1.767767 
C 2.236584 1.29895 2.5 0.663008 2.5 0 
C 2.5 -0.663008 2.236584 -1.29895 1.767767 -1.767767 
C 1.29895 -2.236584 0.663008 -2.5 0 -2.5 
C -0.663008 -2.5 -1.29895 -2.236584 -1.767767 -1.767767 
C -2.236584 -1.29895 -2.5 -0.663008 -2.5 0 
C -2.5 0.663008 -2.236584 1.29895 -1.767767 1.767767 
C -1.29895 2.236584 -0.663008 2.5 0 2.5 
z
" style="stroke: #4169e1"/>
    </defs>
    <g clip-path="url(#pe09bcaf0ff)">
     <use xlink:href="#mb4e001fd2b" x="59.327015" y="184.48286" style="fill: #4169e1; stroke: #4169e1"/>
     <use xlink:href="#mb4e001fd2b" x="63.802939" y="183.275363" style="fill: #4169e1; stroke: #4169e1"/>
     <use xlink:href="#mb4e001fd2b" x="75.421008" y="186.403381" style="fill: #4169e1; stroke: #4169e1"/>
     <use xlink:href="#mb4e001fd2b" x="55.686484" y="182.520178" style="fill: #4169e1; stroke: #4169e1"/>
     <use xlink:href="#mb4e001fd2b" x="70.58749" y="183.54916" style="fill: #4169e1; stroke: #4169e1"/>
     <use xlink:href="#mb4e001fd2b" x="72.491703" y="184.896898" style="fill: #4169e1; stroke: #4169e1"/>
     <use xlink:href="#mb4e001fd2b" x="63.877726" y="182.789651" style="fill: #4169e1; stroke: #4169e1"/>
     <use xlink:href="#mb4e001fd2b" x="62.370262" y="181.146572" style="fill: #4169e1; stroke: #4169e1"/>
     <use xlink:href="#mb4e001fd2b" x="70.151755" y="185.256446" style="fill: #4169e1; stroke: #4169e1"/>
     <use xlink:href="#mb4e001fd2b" x="60.006782" y="183.955483" style="fill: #4169e1; stroke: #4169e1"/>
     <use xlink:href="#mb4e001fd2b" x="62.28271" y="180.532239" style="fill: #4169e1; stroke: #4169e1"/>
     <use xlink:href="#mb4e001fd2b" x="80.448388" y="185.049194" style="fill: #4169e1; stroke: #4169e1"/>
    </g>
   </g>
   <g id="matplotlib.axis_5">
    <g id="xtick_4">
     <g id="line2d_12">
      <g>
       <use xlink:href="#m5076c3265f" x="89.309948" y="245.32" style="stroke: #000000; stroke-width: 0.8"/>
      </g>
     </g>
     <g id="text_12">
      <!-- 5 -->
      <g transform="translate(86.128698 259.918438) scale(0.1 -0.1)">
       <use xlink:href="#DejaVuSans-35"/>
      </g>
     </g>
    </g>
    <g id="xtick_5">
     <g id="line2d_13">
      <g>
       <use xlink:href="#m5076c3265f" x="151.874787" y="245.32" style="stroke: #000000; stroke-width: 0.8"/>
      </g>
     </g>
     <g id="text_13">
      <!-- 10 -->
      <g transform="translate(145.512287 259.918438) scale(0.1 -0.1)">
       <use xlink:href="#DejaVuSans-31"/>
       <use xlink:href="#DejaVuSans-30" x="63.623047"/>
      </g>
     </g>
    </g>
    <g id="text_14">
     <!-- Power-law ($\alpha$) -->
     <g transform="translate(66.801537 272.836719) scale(0.09 -0.09)">
      <defs>
       <path id="DejaVuSans-Bold-50" d="M 588 4666 
L 2584 4666 
Q 3475 4666 3951 4270 
Q 4428 3875 4428 3144 
Q 4428 2409 3951 2014 
Q 3475 1619 2584 1619 
L 1791 1619 
L 1791 0 
L 588 0 
L 588 4666 
z
M 1791 3794 
L 1791 2491 
L 2456 2491 
Q 2806 2491 2997 2661 
Q 3188 2831 3188 3144 
Q 3188 3456 2997 3625 
Q 2806 3794 2456 3794 
L 1791 3794 
z
" transform="scale(0.015625)"/>
       <path id="DejaVuSans-Bold-6f" d="M 2203 2784 
Q 1831 2784 1636 2517 
Q 1441 2250 1441 1747 
Q 1441 1244 1636 976 
Q 1831 709 2203 709 
Q 2569 709 2762 976 
Q 2956 1244 2956 1747 
Q 2956 2250 2762 2517 
Q 2569 2784 2203 2784 
z
M 2203 3584 
Q 3106 3584 3614 3096 
Q 4122 2609 4122 1747 
Q 4122 884 3614 396 
Q 3106 -91 2203 -91 
Q 1297 -91 786 396 
Q 275 884 275 1747 
Q 275 2609 786 3096 
Q 1297 3584 2203 3584 
z
" transform="scale(0.015625)"/>
       <path id="DejaVuSans-Bold-77" d="M 225 3500 
L 1313 3500 
L 1900 1088 
L 2491 3500 
L 3425 3500 
L 4013 1113 
L 4603 3500 
L 5691 3500 
L 4769 0 
L 3547 0 
L 2956 2406 
L 2369 0 
L 1147 0 
L 225 3500 
z
" transform="scale(0.015625)"/>
       <path id="DejaVuSans-Bold-2d" d="M 347 2297 
L 2309 2297 
L 2309 1388 
L 347 1388 
L 347 2297 
z
" transform="scale(0.015625)"/>
       <path id="DejaVuSans-Oblique-3b1" d="M 2619 1628 
L 2622 2350 
Q 2625 3088 2069 3091 
Q 1653 3094 1394 2747 
Q 1069 2319 959 1747 
Q 825 1059 994 731 
Q 1169 397 1547 397 
Q 1966 397 2319 1063 
L 2619 1628 
z
M 2166 3578 
Q 3141 3594 3128 2584 
Q 3128 2584 3616 3500 
L 4128 3500 
L 3119 1603 
L 3109 919 
Q 3109 766 3194 638 
Q 3291 488 3391 488 
L 3669 488 
L 3575 0 
L 3228 0 
Q 2934 0 2722 263 
Q 2622 394 2619 669 
Q 2416 334 2066 50 
Q 1900 -81 1453 -78 
Q 722 -72 456 397 
Q 184 884 353 1747 
Q 534 2675 1009 3097 
Q 1544 3569 2166 3578 
z
" transform="scale(0.015625)"/>
      </defs>
      <use xlink:href="#DejaVuSans-Bold-50" transform="translate(0 0.015625)"/>
      <use xlink:href="#DejaVuSans-Bold-6f" transform="translate(73.291016 0.015625)"/>
      <use xlink:href="#DejaVuSans-Bold-77" transform="translate(141.992188 0.015625)"/>
      <use xlink:href="#DejaVuSans-Bold-65" transform="translate(234.375 0.015625)"/>
      <use xlink:href="#DejaVuSans-Bold-72" transform="translate(302.197266 0.015625)"/>
      <use xlink:href="#DejaVuSans-Bold-2d" transform="translate(351.513672 0.015625)"/>
      <use xlink:href="#DejaVuSans-Bold-6c" transform="translate(393.017578 0.015625)"/>
      <use xlink:href="#DejaVuSans-Bold-61" transform="translate(427.294922 0.015625)"/>
      <use xlink:href="#DejaVuSans-Bold-77" transform="translate(494.775391 0.015625)"/>
      <use xlink:href="#DejaVuSans-Bold-20" transform="translate(587.158203 0.015625)"/>
      <use xlink:href="#DejaVuSans-Bold-28" transform="translate(621.972656 0.015625)"/>
      <use xlink:href="#DejaVuSans-Oblique-3b1" transform="translate(667.675781 0.015625)"/>
      <use xlink:href="#DejaVuSans-Bold-29" transform="translate(733.59375 0.015625)"/>
     </g>
    </g>
   </g>
   <g id="matplotlib.axis_6">
    <g id="ytick_5">
     <g id="line2d_14">
      <g>
       <use xlink:href="#m7d29dfec0b" x="49.43" y="227.855718" style="stroke: #000000; stroke-width: 0.8"/>
      </g>
     </g>
     <g id="text_15">
      <!-- −100 -->
      <g transform="translate(14.962813 231.654937) scale(0.1 -0.1)">
       <use xlink:href="#DejaVuSans-2212"/>
       <use xlink:href="#DejaVuSans-31" x="83.789062"/>
       <use xlink:href="#DejaVuSans-30" x="147.412109"/>
       <use xlink:href="#DejaVuSans-30" x="211.035156"/>
      </g>
     </g>
    </g>
    <g id="ytick_6">
     <g id="line2d_15">
      <g>
       <use xlink:href="#m7d29dfec0b" x="49.43" y="184.48286" style="stroke: #000000; stroke-width: 0.8"/>
      </g>
     </g>
     <g id="text_16">
      <!-- 0 -->
      <g transform="translate(36.0675 188.282079) scale(0.1 -0.1)">
       <use xlink:href="#DejaVuSans-30"/>
      </g>
     </g>
    </g>
   </g>
   <g id="patch_9">
    <path d="M 49.43 245.32 
L 49.43 177.447108 
" style="fill: none; stroke: #000000; stroke-width: 0.8; stroke-linejoin: miter; stroke-linecap: square"/>
   </g>
   <g id="patch_10">
    <path d="M 49.43 245.32 
L 154.373074 245.32 
" style="fill: none; stroke: #000000; stroke-width: 0.8; stroke-linejoin: miter; stroke-linecap: square"/>
   </g>
  </g>
  <g id="axes_4">
   <g id="patch_11">
    <path d="M 169.102835 245.32 
L 274.045909 245.32 
L 274.045909 177.447108 
L 169.102835 177.447108 
z
" style="fill: #ffffff"/>
   </g>
   <g id="PathCollection_9">
    <g clip-path="url(#p69024c5b15)">
     <use xlink:href="#m3f8d349990" x="175.661777" y="184.48286" style="stroke: #000000"/>
     <use xlink:href="#m3f8d349990" x="175.661777" y="183.363838" style="stroke: #000000"/>
     <use xlink:href="#m3f8d349990" x="175.661777" y="185.838821" style="stroke: #000000"/>
     <use xlink:href="#m3f8d349990" x="175.661777" y="184.48286" style="stroke: #000000"/>
     <use xlink:href="#m3f8d349990" x="201.897546" y="183.44438" style="stroke: #000000"/>
     <use xlink:href="#m3f8d349990" x="201.897546" y="184.960875" style="stroke: #000000"/>
     <use xlink:href="#m3f8d349990" x="201.897546" y="184.082279" style="stroke: #000000"/>
     <use xlink:href="#m3f8d349990" x="201.897546" y="198.917369" style="stroke: #000000"/>
     <use xlink:href="#m3f8d349990" x="241.251199" y="184.406464" style="stroke: #000000"/>
     <use xlink:href="#m3f8d349990" x="241.251199" y="183.35141" style="stroke: #000000"/>
     <use xlink:href="#m3f8d349990" x="241.251199" y="185.110121" style="stroke: #000000"/>
     <use xlink:href="#m3f8d349990" x="241.251199" y="227.133215" style="stroke: #000000"/>
     <use xlink:href="#m3f8d349990" x="267.486967" y="184.386331" style="stroke: #000000"/>
     <use xlink:href="#m3f8d349990" x="267.486967" y="182.313914" style="stroke: #000000"/>
     <use xlink:href="#m3f8d349990" x="267.486967" y="182.825506" style="stroke: #000000"/>
     <use xlink:href="#m3f8d349990" x="267.486967" y="242.234869" style="stroke: #000000"/>
    </g>
   </g>
   <g id="PathCollection_10">
    <g clip-path="url(#p69024c5b15)">
     <use xlink:href="#m1d3bb1c2aa" x="175.661777" y="184.48286" style="stroke: #000000; stroke-width: 1.5"/>
     <use xlink:href="#m1d3bb1c2aa" x="175.661777" y="183.275363" style="stroke: #000000; stroke-width: 1.5"/>
     <use xlink:href="#m1d3bb1c2aa" x="175.661777" y="186.403381" style="stroke: #000000; stroke-width: 1.5"/>
     <use xlink:href="#m1d3bb1c2aa" x="175.661777" y="181.145556" style="stroke: #000000; stroke-width: 1.5"/>
     <use xlink:href="#m1d3bb1c2aa" x="201.897546" y="182.520178" style="stroke: #000000; stroke-width: 1.5"/>
     <use xlink:href="#m1d3bb1c2aa" x="201.897546" y="183.54916" style="stroke: #000000; stroke-width: 1.5"/>
     <use xlink:href="#m1d3bb1c2aa" x="201.897546" y="184.896898" style="stroke: #000000; stroke-width: 1.5"/>
     <use xlink:href="#m1d3bb1c2aa" x="201.897546" y="194.266624" style="stroke: #000000; stroke-width: 1.5"/>
     <use xlink:href="#m1d3bb1c2aa" x="241.251199" y="182.789651" style="stroke: #000000; stroke-width: 1.5"/>
     <use xlink:href="#m1d3bb1c2aa" x="241.251199" y="181.146572" style="stroke: #000000; stroke-width: 1.5"/>
     <use xlink:href="#m1d3bb1c2aa" x="241.251199" y="185.256446" style="stroke: #000000; stroke-width: 1.5"/>
     <use xlink:href="#m1d3bb1c2aa" x="241.251199" y="227.005057" style="stroke: #000000; stroke-width: 1.5"/>
     <use xlink:href="#m1d3bb1c2aa" x="267.486967" y="183.955483" style="stroke: #000000; stroke-width: 1.5"/>
     <use xlink:href="#m1d3bb1c2aa" x="267.486967" y="180.532239" style="stroke: #000000; stroke-width: 1.5"/>
     <use xlink:href="#m1d3bb1c2aa" x="267.486967" y="185.049194" style="stroke: #000000; stroke-width: 1.5"/>
     <use xlink:href="#m1d3bb1c2aa" x="267.486967" y="242.081708" style="stroke: #000000; stroke-width: 1.5"/>
    </g>
   </g>
   <g id="PathCollection_11">
    <g clip-path="url(#p69024c5b15)">
     <use xlink:href="#me5377e0721" x="175.661777" y="184.48286" style="fill: #fa8072; stroke: #fa8072"/>
     <use xlink:href="#me5377e0721" x="175.661777" y="183.363838" style="fill: #fa8072; stroke: #fa8072"/>
     <use xlink:href="#me5377e0721" x="175.661777" y="185.838821" style="fill: #fa8072; stroke: #fa8072"/>
     <use xlink:href="#me5377e0721" x="201.897546" y="183.44438" style="fill: #fa8072; stroke: #fa8072"/>
     <use xlink:href="#me5377e0721" x="201.897546" y="184.960875" style="fill: #fa8072; stroke: #fa8072"/>
     <use xlink:href="#me5377e0721" x="201.897546" y="184.082279" style="fill: #fa8072; stroke: #fa8072"/>
     <use xlink:href="#me5377e0721" x="241.251199" y="184.406464" style="fill: #fa8072; stroke: #fa8072"/>
     <use xlink:href="#me5377e0721" x="241.251199" y="183.35141" style="fill: #fa8072; stroke: #fa8072"/>
     <use xlink:href="#me5377e0721" x="241.251199" y="185.110121" style="fill: #fa8072; stroke: #fa8072"/>
     <use xlink:href="#me5377e0721" x="267.486967" y="184.386331" style="fill: #fa8072; stroke: #fa8072"/>
     <use xlink:href="#me5377e0721" x="267.486967" y="182.313914" style="fill: #fa8072; stroke: #fa8072"/>
     <use xlink:href="#me5377e0721" x="267.486967" y="182.825506" style="fill: #fa8072; stroke: #fa8072"/>
    </g>
   </g>
   <g id="PathCollection_12">
    <defs>
     <path id="m8bc4c54b17" d="M 0 2.236068 
C 0.593012 2.236068 1.161816 2.000462 1.581139 1.581139 
C 2.000462 1.161816 2.236068 0.593012 2.236068 0 
C 2.236068 -0.593012 2.000462 -1.161816 1.581139 -1.581139 
C 1.161816 -2.000462 0.593012 -2.236068 0 -2.236068 
C -0.593012 -2.236068 -1.161816 -2.000462 -1.581139 -1.581139 
C -2.000462 -1.161816 -2.236068 -0.593012 -2.236068 0 
C -2.236068 0.593012 -2.000462 1.161816 -1.581139 1.581139 
C -1.161816 2.000462 -0.593012 2.236068 0 2.236068 
z
" style="stroke: #4169e1"/>
    </defs>
    <g clip-path="url(#p69024c5b15)">
     <use xlink:href="#m8bc4c54b17" x="175.661777" y="184.48286" style="fill: #4169e1; stroke: #4169e1"/>
     <use xlink:href="#m8bc4c54b17" x="175.661777" y="183.275363" style="fill: #4169e1; stroke: #4169e1"/>
     <use xlink:href="#m8bc4c54b17" x="175.661777" y="186.403381" style="fill: #4169e1; stroke: #4169e1"/>
     <use xlink:href="#m8bc4c54b17" x="201.897546" y="182.520178" style="fill: #4169e1; stroke: #4169e1"/>
     <use xlink:href="#m8bc4c54b17" x="201.897546" y="183.54916" style="fill: #4169e1; stroke: #4169e1"/>
     <use xlink:href="#m8bc4c54b17" x="201.897546" y="184.896898" style="fill: #4169e1; stroke: #4169e1"/>
     <use xlink:href="#m8bc4c54b17" x="241.251199" y="182.789651" style="fill: #4169e1; stroke: #4169e1"/>
     <use xlink:href="#m8bc4c54b17" x="241.251199" y="181.146572" style="fill: #4169e1; stroke: #4169e1"/>
     <use xlink:href="#m8bc4c54b17" x="241.251199" y="185.256446" style="fill: #4169e1; stroke: #4169e1"/>
     <use xlink:href="#m8bc4c54b17" x="267.486967" y="183.955483" style="fill: #4169e1; stroke: #4169e1"/>
     <use xlink:href="#m8bc4c54b17" x="267.486967" y="180.532239" style="fill: #4169e1; stroke: #4169e1"/>
     <use xlink:href="#m8bc4c54b17" x="267.486967" y="185.049194" style="fill: #4169e1; stroke: #4169e1"/>
    </g>
   </g>
   <g id="matplotlib.axis_7">
    <g id="xtick_6">
     <g id="line2d_16">
      <g>
       <use xlink:href="#m5076c3265f" x="175.661777" y="245.32" style="stroke: #000000; stroke-width: 0.8"/>
      </g>
     </g>
     <g id="text_17">
      <!-- 30 -->
      <g transform="translate(169.299277 259.918438) scale(0.1 -0.1)">
       <use xlink:href="#DejaVuSans-33"/>
       <use xlink:href="#DejaVuSans-30" x="63.623047"/>
      </g>
     </g>
    </g>
    <g id="xtick_7">
     <g id="line2d_17">
      <g>
       <use xlink:href="#m5076c3265f" x="201.897546" y="245.32" style="stroke: #000000; stroke-width: 0.8"/>
      </g>
     </g>
     <g id="text_18">
      <!-- 50 -->
      <g transform="translate(195.535046 259.918438) scale(0.1 -0.1)">
       <use xlink:href="#DejaVuSans-35"/>
       <use xlink:href="#DejaVuSans-30" x="63.623047"/>
      </g>
     </g>
    </g>
    <g id="xtick_8">
     <g id="line2d_18">
      <g>
       <use xlink:href="#m5076c3265f" x="241.251199" y="245.32" style="stroke: #000000; stroke-width: 0.8"/>
      </g>
     </g>
     <g id="text_19">
      <!-- 80 -->
      <g transform="translate(234.888699 259.918438) scale(0.1 -0.1)">
       <defs>
        <path id="DejaVuSans-38" d="M 2034 2216 
Q 1584 2216 1326 1975 
Q 1069 1734 1069 1313 
Q 1069 891 1326 650 
Q 1584 409 2034 409 
Q 2484 409 2743 651 
Q 3003 894 3003 1313 
Q 3003 1734 2745 1975 
Q 2488 2216 2034 2216 
z
M 1403 2484 
Q 997 2584 770 2862 
Q 544 3141 544 3541 
Q 544 4100 942 4425 
Q 1341 4750 2034 4750 
Q 2731 4750 3128 4425 
Q 3525 4100 3525 3541 
Q 3525 3141 3298 2862 
Q 3072 2584 2669 2484 
Q 3125 2378 3379 2068 
Q 3634 1759 3634 1313 
Q 3634 634 3220 271 
Q 2806 -91 2034 -91 
Q 1263 -91 848 271 
Q 434 634 434 1313 
Q 434 1759 690 2068 
Q 947 2378 1403 2484 
z
M 1172 3481 
Q 1172 3119 1398 2916 
Q 1625 2713 2034 2713 
Q 2441 2713 2670 2916 
Q 2900 3119 2900 3481 
Q 2900 3844 2670 4047 
Q 2441 4250 2034 4250 
Q 1625 4250 1398 4047 
Q 1172 3844 1172 3481 
z
" transform="scale(0.015625)"/>
       </defs>
       <use xlink:href="#DejaVuSans-38"/>
       <use xlink:href="#DejaVuSans-30" x="63.623047"/>
      </g>
     </g>
    </g>
    <g id="xtick_9">
     <g id="line2d_19">
      <g>
       <use xlink:href="#m5076c3265f" x="267.486967" y="245.32" style="stroke: #000000; stroke-width: 0.8"/>
      </g>
     </g>
     <g id="text_20">
      <!-- 100 -->
      <g transform="translate(257.943217 259.918438) scale(0.1 -0.1)">
       <use xlink:href="#DejaVuSans-31"/>
       <use xlink:href="#DejaVuSans-30" x="63.623047"/>
       <use xlink:href="#DejaVuSans-30" x="127.246094"/>
      </g>
     </g>
    </g>
    <g id="text_21">
     <!-- Nodes -->
     <g transform="translate(205.76531 272.836719) scale(0.09 -0.09)">
      <defs>
       <path id="DejaVuSans-Bold-4e" d="M 588 4666 
L 1931 4666 
L 3628 1466 
L 3628 4666 
L 4769 4666 
L 4769 0 
L 3425 0 
L 1728 3200 
L 1728 0 
L 588 0 
L 588 4666 
z
" transform="scale(0.015625)"/>
       <path id="DejaVuSans-Bold-64" d="M 2919 2988 
L 2919 4863 
L 4044 4863 
L 4044 0 
L 2919 0 
L 2919 506 
Q 2688 197 2409 53 
Q 2131 -91 1766 -91 
Q 1119 -91 703 423 
Q 288 938 288 1747 
Q 288 2556 703 3070 
Q 1119 3584 1766 3584 
Q 2128 3584 2408 3439 
Q 2688 3294 2919 2988 
z
M 2181 722 
Q 2541 722 2730 984 
Q 2919 1247 2919 1747 
Q 2919 2247 2730 2509 
Q 2541 2772 2181 2772 
Q 1825 2772 1636 2509 
Q 1447 2247 1447 1747 
Q 1447 1247 1636 984 
Q 1825 722 2181 722 
z
" transform="scale(0.015625)"/>
      </defs>
      <use xlink:href="#DejaVuSans-Bold-4e"/>
      <use xlink:href="#DejaVuSans-Bold-6f" x="83.691406"/>
      <use xlink:href="#DejaVuSans-Bold-64" x="152.392578"/>
      <use xlink:href="#DejaVuSans-Bold-65" x="223.974609"/>
      <use xlink:href="#DejaVuSans-Bold-73" x="291.796875"/>
     </g>
    </g>
   </g>
   <g id="matplotlib.axis_8"/>
   <g id="patch_12">
    <path d="M 169.102835 245.32 
L 274.045909 245.32 
" style="fill: none; stroke: #000000; stroke-width: 0.8; stroke-linejoin: miter; stroke-linecap: square"/>
   </g>
  </g>
 </g>
 <defs>
  <clipPath id="p7a8faf89d7">
   <rect x="49.43" y="13.821323" width="104.943074" height="135.745784"/>
  </clipPath>
  <clipPath id="pebd707dd77">
   <rect x="169.102835" y="13.821323" width="104.943074" height="135.745784"/>
  </clipPath>
  <clipPath id="pe09bcaf0ff">
   <rect x="49.43" y="177.447108" width="104.943074" height="67.872892"/>
  </clipPath>
  <clipPath id="p69024c5b15">
   <rect x="169.102835" y="177.447108" width="104.943074" height="67.872892"/>
  </clipPath>
 </defs>
</svg>
