<?xml version="1.0" encoding="utf-8" standalone="no"?>
<!DOCTYPE svg PUBLIC "-//W3C//DTD SVG 1.1//EN"
  "http://www.w3.org/Graphics/SVG/1.1/DTD/svg11.dtd">
<svg xmlns:xlink="http://www.w3.org/1999/xlink" width="1152pt" height="288pt" viewBox="0 0 1152 288" xmlns="http://www.w3.org/2000/svg" version="1.1">
 <metadata>
  <rdf:RDF xmlns:dc="http://purl.org/dc/elements/1.1/" xmlns:cc="http://creativecommons.org/ns#" xmlns:rdf="http://www.w3.org/1999/02/22-rdf-syntax-ns#">
   <cc:Work>
    <dc:type rdf:resource="http://purl.org/dc/dcmitype/StillImage"/>
    <dc:date>2025-07-23T16:07:08.478593</dc:date>
    <dc:format>image/svg+xml</dc:format>
    <dc:creator>
     <cc:Agent>
      <dc:title>Matplotlib v3.10.3, https://matplotlib.org/</dc:title>
     </cc:Agent>
    </dc:creator>
   </cc:Work>
  </rdf:RDF>
 </metadata>
 <defs>
  <style type="text/css">*{stroke-linejoin: round; stroke-linecap: butt}</style>
 </defs>
 <g id="figure_1">
  <g id="patch_1">
   <path d="M 0 288 
L 1152 288 
L 1152 0 
L 0 0 
z
" style="fill: #ffffff"/>
  </g>
  <g id="axes_1">
   <g id="patch_2">
    <path d="M 54.02 243.16 
L 287.822134 243.16 
L 287.822134 34.56 
L 54.02 34.56 
z
" style="fill: #ffffff"/>
   </g>
   <g id="matplotlib.axis_1">
    <g id="xtick_1">
     <g id="line2d_1">
      <defs>
       <path id="m235146b286" d="M 0 0 
L 0 3.5 
" style="stroke: #000000; stroke-width: 0.8"/>
      </defs>
      <g>
       <use xlink:href="#m235146b286" x="64.64737" y="243.16" style="stroke: #000000; stroke-width: 0.8"/>
      </g>
     </g>
     <g id="text_1">
      <!-- 0.50 -->
      <g transform="translate(53.514557 257.758438) scale(0.1 -0.1)">
       <defs>
        <path id="DejaVuSans-30" d="M 2034 4250 
Q 1547 4250 1301 3770 
Q 1056 3291 1056 2328 
Q 1056 1369 1301 889 
Q 1547 409 2034 409 
Q 2525 409 2770 889 
Q 3016 1369 3016 2328 
Q 3016 3291 2770 3770 
Q 2525 4250 2034 4250 
z
M 2034 4750 
Q 2819 4750 3233 4129 
Q 3647 3509 3647 2328 
Q 3647 1150 3233 529 
Q 2819 -91 2034 -91 
Q 1250 -91 836 529 
Q 422 1150 422 2328 
Q 422 3509 836 4129 
Q 1250 4750 2034 4750 
z
" transform="scale(0.015625)"/>
        <path id="DejaVuSans-2e" d="M 684 794 
L 1344 794 
L 1344 0 
L 684 0 
L 684 794 
z
" transform="scale(0.015625)"/>
        <path id="DejaVuSans-35" d="M 691 4666 
L 3169 4666 
L 3169 4134 
L 1269 4134 
L 1269 2991 
Q 1406 3038 1543 3061 
Q 1681 3084 1819 3084 
Q 2600 3084 3056 2656 
Q 3513 2228 3513 1497 
Q 3513 744 3044 326 
Q 2575 -91 1722 -91 
Q 1428 -91 1123 -41 
Q 819 9 494 109 
L 494 744 
Q 775 591 1075 516 
Q 1375 441 1709 441 
Q 2250 441 2565 725 
Q 2881 1009 2881 1497 
Q 2881 1984 2565 2268 
Q 2250 2553 1709 2553 
Q 1456 2553 1204 2497 
Q 953 2441 691 2322 
L 691 4666 
z
" transform="scale(0.015625)"/>
       </defs>
       <use xlink:href="#DejaVuSans-30"/>
       <use xlink:href="#DejaVuSans-2e" transform="translate(63.623047 0)"/>
       <use xlink:href="#DejaVuSans-35" transform="translate(95.410156 0)"/>
       <use xlink:href="#DejaVuSans-30" transform="translate(159.033203 0)"/>
      </g>
     </g>
    </g>
    <g id="xtick_2">
     <g id="line2d_2">
      <g>
       <use xlink:href="#m235146b286" x="100.071936" y="243.16" style="stroke: #000000; stroke-width: 0.8"/>
      </g>
     </g>
     <g id="text_2">
      <!-- 0.75 -->
      <g transform="translate(88.939123 257.758438) scale(0.1 -0.1)">
       <defs>
        <path id="DejaVuSans-37" d="M 525 4666 
L 3525 4666 
L 3525 4397 
L 1831 0 
L 1172 0 
L 2766 4134 
L 525 4134 
L 525 4666 
z
" transform="scale(0.015625)"/>
       </defs>
       <use xlink:href="#DejaVuSans-30"/>
       <use xlink:href="#DejaVuSans-2e" transform="translate(63.623047 0)"/>
       <use xlink:href="#DejaVuSans-37" transform="translate(95.410156 0)"/>
       <use xlink:href="#DejaVuSans-35" transform="translate(159.033203 0)"/>
      </g>
     </g>
    </g>
    <g id="xtick_3">
     <g id="line2d_3">
      <g>
       <use xlink:href="#m235146b286" x="135.496501" y="243.16" style="stroke: #000000; stroke-width: 0.8"/>
      </g>
     </g>
     <g id="text_3">
      <!-- 1.00 -->
      <g transform="translate(124.363689 257.758438) scale(0.1 -0.1)">
       <defs>
        <path id="DejaVuSans-31" d="M 794 531 
L 1825 531 
L 1825 4091 
L 703 3866 
L 703 4441 
L 1819 4666 
L 2450 4666 
L 2450 531 
L 3481 531 
L 3481 0 
L 794 0 
L 794 531 
z
" transform="scale(0.015625)"/>
       </defs>
       <use xlink:href="#DejaVuSans-31"/>
       <use xlink:href="#DejaVuSans-2e" transform="translate(63.623047 0)"/>
       <use xlink:href="#DejaVuSans-30" transform="translate(95.410156 0)"/>
       <use xlink:href="#DejaVuSans-30" transform="translate(159.033203 0)"/>
      </g>
     </g>
    </g>
    <g id="xtick_4">
     <g id="line2d_4">
      <g>
       <use xlink:href="#m235146b286" x="170.921067" y="243.16" style="stroke: #000000; stroke-width: 0.8"/>
      </g>
     </g>
     <g id="text_4">
      <!-- 1.25 -->
      <g transform="translate(159.788255 257.758438) scale(0.1 -0.1)">
       <defs>
        <path id="DejaVuSans-32" d="M 1228 531 
L 3431 531 
L 3431 0 
L 469 0 
L 469 531 
Q 828 903 1448 1529 
Q 2069 2156 2228 2338 
Q 2531 2678 2651 2914 
Q 2772 3150 2772 3378 
Q 2772 3750 2511 3984 
Q 2250 4219 1831 4219 
Q 1534 4219 1204 4116 
Q 875 4013 500 3803 
L 500 4441 
Q 881 4594 1212 4672 
Q 1544 4750 1819 4750 
Q 2544 4750 2975 4387 
Q 3406 4025 3406 3419 
Q 3406 3131 3298 2873 
Q 3191 2616 2906 2266 
Q 2828 2175 2409 1742 
Q 1991 1309 1228 531 
z
" transform="scale(0.015625)"/>
       </defs>
       <use xlink:href="#DejaVuSans-31"/>
       <use xlink:href="#DejaVuSans-2e" transform="translate(63.623047 0)"/>
       <use xlink:href="#DejaVuSans-32" transform="translate(95.410156 0)"/>
       <use xlink:href="#DejaVuSans-35" transform="translate(159.033203 0)"/>
      </g>
     </g>
    </g>
    <g id="xtick_5">
     <g id="line2d_5">
      <g>
       <use xlink:href="#m235146b286" x="206.345633" y="243.16" style="stroke: #000000; stroke-width: 0.8"/>
      </g>
     </g>
     <g id="text_5">
      <!-- 1.50 -->
      <g transform="translate(195.212821 257.758438) scale(0.1 -0.1)">
       <use xlink:href="#DejaVuSans-31"/>
       <use xlink:href="#DejaVuSans-2e" transform="translate(63.623047 0)"/>
       <use xlink:href="#DejaVuSans-35" transform="translate(95.410156 0)"/>
       <use xlink:href="#DejaVuSans-30" transform="translate(159.033203 0)"/>
      </g>
     </g>
    </g>
    <g id="xtick_6">
     <g id="line2d_6">
      <g>
       <use xlink:href="#m235146b286" x="241.770199" y="243.16" style="stroke: #000000; stroke-width: 0.8"/>
      </g>
     </g>
     <g id="text_6">
      <!-- 1.75 -->
      <g transform="translate(230.637386 257.758438) scale(0.1 -0.1)">
       <use xlink:href="#DejaVuSans-31"/>
       <use xlink:href="#DejaVuSans-2e" transform="translate(63.623047 0)"/>
       <use xlink:href="#DejaVuSans-37" transform="translate(95.410156 0)"/>
       <use xlink:href="#DejaVuSans-35" transform="translate(159.033203 0)"/>
      </g>
     </g>
    </g>
    <g id="xtick_7">
     <g id="line2d_7">
      <g>
       <use xlink:href="#m235146b286" x="277.194765" y="243.16" style="stroke: #000000; stroke-width: 0.8"/>
      </g>
     </g>
     <g id="text_7">
      <!-- 2.00 -->
      <g transform="translate(266.061952 257.758438) scale(0.1 -0.1)">
       <use xlink:href="#DejaVuSans-32"/>
       <use xlink:href="#DejaVuSans-2e" transform="translate(63.623047 0)"/>
       <use xlink:href="#DejaVuSans-30" transform="translate(95.410156 0)"/>
       <use xlink:href="#DejaVuSans-30" transform="translate(159.033203 0)"/>
      </g>
     </g>
    </g>
    <g id="text_8">
     <!-- Resolution ($\gamma$) -->
     <g transform="translate(136.121067 271.438125) scale(0.1 -0.1)">
      <defs>
       <path id="DejaVuSans-52" d="M 2841 2188 
Q 3044 2119 3236 1894 
Q 3428 1669 3622 1275 
L 4263 0 
L 3584 0 
L 2988 1197 
Q 2756 1666 2539 1819 
Q 2322 1972 1947 1972 
L 1259 1972 
L 1259 0 
L 628 0 
L 628 4666 
L 2053 4666 
Q 2853 4666 3247 4331 
Q 3641 3997 3641 3322 
Q 3641 2881 3436 2590 
Q 3231 2300 2841 2188 
z
M 1259 4147 
L 1259 2491 
L 2053 2491 
Q 2509 2491 2742 2702 
Q 2975 2913 2975 3322 
Q 2975 3731 2742 3939 
Q 2509 4147 2053 4147 
L 1259 4147 
z
" transform="scale(0.015625)"/>
       <path id="DejaVuSans-65" d="M 3597 1894 
L 3597 1613 
L 953 1613 
Q 991 1019 1311 708 
Q 1631 397 2203 397 
Q 2534 397 2845 478 
Q 3156 559 3463 722 
L 3463 178 
Q 3153 47 2828 -22 
Q 2503 -91 2169 -91 
Q 1331 -91 842 396 
Q 353 884 353 1716 
Q 353 2575 817 3079 
Q 1281 3584 2069 3584 
Q 2775 3584 3186 3129 
Q 3597 2675 3597 1894 
z
M 3022 2063 
Q 3016 2534 2758 2815 
Q 2500 3097 2075 3097 
Q 1594 3097 1305 2825 
Q 1016 2553 972 2059 
L 3022 2063 
z
" transform="scale(0.015625)"/>
       <path id="DejaVuSans-73" d="M 2834 3397 
L 2834 2853 
Q 2591 2978 2328 3040 
Q 2066 3103 1784 3103 
Q 1356 3103 1142 2972 
Q 928 2841 928 2578 
Q 928 2378 1081 2264 
Q 1234 2150 1697 2047 
L 1894 2003 
Q 2506 1872 2764 1633 
Q 3022 1394 3022 966 
Q 3022 478 2636 193 
Q 2250 -91 1575 -91 
Q 1294 -91 989 -36 
Q 684 19 347 128 
L 347 722 
Q 666 556 975 473 
Q 1284 391 1588 391 
Q 1994 391 2212 530 
Q 2431 669 2431 922 
Q 2431 1156 2273 1281 
Q 2116 1406 1581 1522 
L 1381 1569 
Q 847 1681 609 1914 
Q 372 2147 372 2553 
Q 372 3047 722 3315 
Q 1072 3584 1716 3584 
Q 2034 3584 2315 3537 
Q 2597 3491 2834 3397 
z
" transform="scale(0.015625)"/>
       <path id="DejaVuSans-6f" d="M 1959 3097 
Q 1497 3097 1228 2736 
Q 959 2375 959 1747 
Q 959 1119 1226 758 
Q 1494 397 1959 397 
Q 2419 397 2687 759 
Q 2956 1122 2956 1747 
Q 2956 2369 2687 2733 
Q 2419 3097 1959 3097 
z
M 1959 3584 
Q 2709 3584 3137 3096 
Q 3566 2609 3566 1747 
Q 3566 888 3137 398 
Q 2709 -91 1959 -91 
Q 1206 -91 779 398 
Q 353 888 353 1747 
Q 353 2609 779 3096 
Q 1206 3584 1959 3584 
z
" transform="scale(0.015625)"/>
       <path id="DejaVuSans-6c" d="M 603 4863 
L 1178 4863 
L 1178 0 
L 603 0 
L 603 4863 
z
" transform="scale(0.015625)"/>
       <path id="DejaVuSans-75" d="M 544 1381 
L 544 3500 
L 1119 3500 
L 1119 1403 
Q 1119 906 1312 657 
Q 1506 409 1894 409 
Q 2359 409 2629 706 
Q 2900 1003 2900 1516 
L 2900 3500 
L 3475 3500 
L 3475 0 
L 2900 0 
L 2900 538 
Q 2691 219 2414 64 
Q 2138 -91 1772 -91 
Q 1169 -91 856 284 
Q 544 659 544 1381 
z
M 1991 3584 
L 1991 3584 
z
" transform="scale(0.015625)"/>
       <path id="DejaVuSans-74" d="M 1172 4494 
L 1172 3500 
L 2356 3500 
L 2356 3053 
L 1172 3053 
L 1172 1153 
Q 1172 725 1289 603 
Q 1406 481 1766 481 
L 2356 481 
L 2356 0 
L 1766 0 
Q 1100 0 847 248 
Q 594 497 594 1153 
L 594 3053 
L 172 3053 
L 172 3500 
L 594 3500 
L 594 4494 
L 1172 4494 
z
" transform="scale(0.015625)"/>
       <path id="DejaVuSans-69" d="M 603 3500 
L 1178 3500 
L 1178 0 
L 603 0 
L 603 3500 
z
M 603 4863 
L 1178 4863 
L 1178 4134 
L 603 4134 
L 603 4863 
z
" transform="scale(0.015625)"/>
       <path id="DejaVuSans-6e" d="M 3513 2113 
L 3513 0 
L 2938 0 
L 2938 2094 
Q 2938 2591 2744 2837 
Q 2550 3084 2163 3084 
Q 1697 3084 1428 2787 
Q 1159 2491 1159 1978 
L 1159 0 
L 581 0 
L 581 3500 
L 1159 3500 
L 1159 2956 
Q 1366 3272 1645 3428 
Q 1925 3584 2291 3584 
Q 2894 3584 3203 3211 
Q 3513 2838 3513 2113 
z
" transform="scale(0.015625)"/>
       <path id="DejaVuSans-20" transform="scale(0.015625)"/>
       <path id="DejaVuSans-28" d="M 1984 4856 
Q 1566 4138 1362 3434 
Q 1159 2731 1159 2009 
Q 1159 1288 1364 580 
Q 1569 -128 1984 -844 
L 1484 -844 
Q 1016 -109 783 600 
Q 550 1309 550 2009 
Q 550 2706 781 3412 
Q 1013 4119 1484 4856 
L 1984 4856 
z
" transform="scale(0.015625)"/>
       <path id="DejaVuSans-Oblique-3b3" d="M 1491 2950 
L 1838 788 
L 3456 3500 
L 4066 3500 
L 1972 0 
L 1713 -1331 
L 1138 -1331 
L 1397 0 
L 988 2613 
Q 925 3006 628 3006 
L 475 3006 
L 569 3500 
L 788 3500 
Q 1403 3500 1491 2950 
z
" transform="scale(0.015625)"/>
       <path id="DejaVuSans-29" d="M 513 4856 
L 1013 4856 
Q 1481 4119 1714 3412 
Q 1947 2706 1947 2009 
Q 1947 1309 1714 600 
Q 1481 -109 1013 -844 
L 513 -844 
Q 928 -128 1133 580 
Q 1338 1288 1338 2009 
Q 1338 2731 1133 3434 
Q 928 4138 513 4856 
z
" transform="scale(0.015625)"/>
      </defs>
      <use xlink:href="#DejaVuSans-52" transform="translate(0 0.015625)"/>
      <use xlink:href="#DejaVuSans-65" transform="translate(69.482422 0.015625)"/>
      <use xlink:href="#DejaVuSans-73" transform="translate(131.005859 0.015625)"/>
      <use xlink:href="#DejaVuSans-6f" transform="translate(183.105469 0.015625)"/>
      <use xlink:href="#DejaVuSans-6c" transform="translate(244.287109 0.015625)"/>
      <use xlink:href="#DejaVuSans-75" transform="translate(272.070312 0.015625)"/>
      <use xlink:href="#DejaVuSans-74" transform="translate(335.449219 0.015625)"/>
      <use xlink:href="#DejaVuSans-69" transform="translate(374.658203 0.015625)"/>
      <use xlink:href="#DejaVuSans-6f" transform="translate(402.441406 0.015625)"/>
      <use xlink:href="#DejaVuSans-6e" transform="translate(463.623047 0.015625)"/>
      <use xlink:href="#DejaVuSans-20" transform="translate(527.001953 0.015625)"/>
      <use xlink:href="#DejaVuSans-28" transform="translate(558.789062 0.015625)"/>
      <use xlink:href="#DejaVuSans-Oblique-3b3" transform="translate(597.802734 0.015625)"/>
      <use xlink:href="#DejaVuSans-29" transform="translate(656.982422 0.015625)"/>
     </g>
    </g>
   </g>
   <g id="matplotlib.axis_2">
    <g id="ytick_1">
     <g id="line2d_8">
      <defs>
       <path id="m7da1598503" d="M 0 0 
L -3.5 0 
" style="stroke: #000000; stroke-width: 0.8"/>
      </defs>
      <g>
       <use xlink:href="#m7da1598503" x="54.02" y="238.054083" style="stroke: #000000; stroke-width: 0.8"/>
      </g>
     </g>
     <g id="text_9">
      <!-- 0.10 -->
      <g transform="translate(24.754375 241.853302) scale(0.1 -0.1)">
       <use xlink:href="#DejaVuSans-30"/>
       <use xlink:href="#DejaVuSans-2e" transform="translate(63.623047 0)"/>
       <use xlink:href="#DejaVuSans-31" transform="translate(95.410156 0)"/>
       <use xlink:href="#DejaVuSans-30" transform="translate(159.033203 0)"/>
      </g>
     </g>
    </g>
    <g id="ytick_2">
     <g id="line2d_9">
      <g>
       <use xlink:href="#m7da1598503" x="54.02" y="203.055162" style="stroke: #000000; stroke-width: 0.8"/>
      </g>
     </g>
     <g id="text_10">
      <!-- 0.15 -->
      <g transform="translate(24.754375 206.85438) scale(0.1 -0.1)">
       <use xlink:href="#DejaVuSans-30"/>
       <use xlink:href="#DejaVuSans-2e" transform="translate(63.623047 0)"/>
       <use xlink:href="#DejaVuSans-31" transform="translate(95.410156 0)"/>
       <use xlink:href="#DejaVuSans-35" transform="translate(159.033203 0)"/>
      </g>
     </g>
    </g>
    <g id="ytick_3">
     <g id="line2d_10">
      <g>
       <use xlink:href="#m7da1598503" x="54.02" y="168.05624" style="stroke: #000000; stroke-width: 0.8"/>
      </g>
     </g>
     <g id="text_11">
      <!-- 0.20 -->
      <g transform="translate(24.754375 171.855459) scale(0.1 -0.1)">
       <use xlink:href="#DejaVuSans-30"/>
       <use xlink:href="#DejaVuSans-2e" transform="translate(63.623047 0)"/>
       <use xlink:href="#DejaVuSans-32" transform="translate(95.410156 0)"/>
       <use xlink:href="#DejaVuSans-30" transform="translate(159.033203 0)"/>
      </g>
     </g>
    </g>
    <g id="ytick_4">
     <g id="line2d_11">
      <g>
       <use xlink:href="#m7da1598503" x="54.02" y="133.057319" style="stroke: #000000; stroke-width: 0.8"/>
      </g>
     </g>
     <g id="text_12">
      <!-- 0.25 -->
      <g transform="translate(24.754375 136.856538) scale(0.1 -0.1)">
       <use xlink:href="#DejaVuSans-30"/>
       <use xlink:href="#DejaVuSans-2e" transform="translate(63.623047 0)"/>
       <use xlink:href="#DejaVuSans-32" transform="translate(95.410156 0)"/>
       <use xlink:href="#DejaVuSans-35" transform="translate(159.033203 0)"/>
      </g>
     </g>
    </g>
    <g id="ytick_5">
     <g id="line2d_12">
      <g>
       <use xlink:href="#m7da1598503" x="54.02" y="98.058397" style="stroke: #000000; stroke-width: 0.8"/>
      </g>
     </g>
     <g id="text_13">
      <!-- 0.30 -->
      <g transform="translate(24.754375 101.857616) scale(0.1 -0.1)">
       <defs>
        <path id="DejaVuSans-33" d="M 2597 2516 
Q 3050 2419 3304 2112 
Q 3559 1806 3559 1356 
Q 3559 666 3084 287 
Q 2609 -91 1734 -91 
Q 1441 -91 1130 -33 
Q 819 25 488 141 
L 488 750 
Q 750 597 1062 519 
Q 1375 441 1716 441 
Q 2309 441 2620 675 
Q 2931 909 2931 1356 
Q 2931 1769 2642 2001 
Q 2353 2234 1838 2234 
L 1294 2234 
L 1294 2753 
L 1863 2753 
Q 2328 2753 2575 2939 
Q 2822 3125 2822 3475 
Q 2822 3834 2567 4026 
Q 2313 4219 1838 4219 
Q 1578 4219 1281 4162 
Q 984 4106 628 3988 
L 628 4550 
Q 988 4650 1302 4700 
Q 1616 4750 1894 4750 
Q 2613 4750 3031 4423 
Q 3450 4097 3450 3541 
Q 3450 3153 3228 2886 
Q 3006 2619 2597 2516 
z
" transform="scale(0.015625)"/>
       </defs>
       <use xlink:href="#DejaVuSans-30"/>
       <use xlink:href="#DejaVuSans-2e" transform="translate(63.623047 0)"/>
       <use xlink:href="#DejaVuSans-33" transform="translate(95.410156 0)"/>
       <use xlink:href="#DejaVuSans-30" transform="translate(159.033203 0)"/>
      </g>
     </g>
    </g>
    <g id="ytick_6">
     <g id="line2d_13">
      <g>
       <use xlink:href="#m7da1598503" x="54.02" y="63.059476" style="stroke: #000000; stroke-width: 0.8"/>
      </g>
     </g>
     <g id="text_14">
      <!-- 0.35 -->
      <g transform="translate(24.754375 66.858695) scale(0.1 -0.1)">
       <use xlink:href="#DejaVuSans-30"/>
       <use xlink:href="#DejaVuSans-2e" transform="translate(63.623047 0)"/>
       <use xlink:href="#DejaVuSans-33" transform="translate(95.410156 0)"/>
       <use xlink:href="#DejaVuSans-35" transform="translate(159.033203 0)"/>
      </g>
     </g>
    </g>
    <g id="text_15">
     <!-- Total QPU Access Time (s) -->
     <g transform="translate(18.674687 203.36) rotate(-90) scale(0.1 -0.1)">
      <defs>
       <path id="DejaVuSans-54" d="M -19 4666 
L 3928 4666 
L 3928 4134 
L 2272 4134 
L 2272 0 
L 1638 0 
L 1638 4134 
L -19 4134 
L -19 4666 
z
" transform="scale(0.015625)"/>
       <path id="DejaVuSans-61" d="M 2194 1759 
Q 1497 1759 1228 1600 
Q 959 1441 959 1056 
Q 959 750 1161 570 
Q 1363 391 1709 391 
Q 2188 391 2477 730 
Q 2766 1069 2766 1631 
L 2766 1759 
L 2194 1759 
z
M 3341 1997 
L 3341 0 
L 2766 0 
L 2766 531 
Q 2569 213 2275 61 
Q 1981 -91 1556 -91 
Q 1019 -91 701 211 
Q 384 513 384 1019 
Q 384 1609 779 1909 
Q 1175 2209 1959 2209 
L 2766 2209 
L 2766 2266 
Q 2766 2663 2505 2880 
Q 2244 3097 1772 3097 
Q 1472 3097 1187 3025 
Q 903 2953 641 2809 
L 641 3341 
Q 956 3463 1253 3523 
Q 1550 3584 1831 3584 
Q 2591 3584 2966 3190 
Q 3341 2797 3341 1997 
z
" transform="scale(0.015625)"/>
       <path id="DejaVuSans-51" d="M 2522 4238 
Q 1834 4238 1429 3725 
Q 1025 3213 1025 2328 
Q 1025 1447 1429 934 
Q 1834 422 2522 422 
Q 3209 422 3611 934 
Q 4013 1447 4013 2328 
Q 4013 3213 3611 3725 
Q 3209 4238 2522 4238 
z
M 3406 84 
L 4238 -825 
L 3475 -825 
L 2784 -78 
Q 2681 -84 2626 -87 
Q 2572 -91 2522 -91 
Q 1538 -91 948 567 
Q 359 1225 359 2328 
Q 359 3434 948 4092 
Q 1538 4750 2522 4750 
Q 3503 4750 4090 4092 
Q 4678 3434 4678 2328 
Q 4678 1516 4351 937 
Q 4025 359 3406 84 
z
" transform="scale(0.015625)"/>
       <path id="DejaVuSans-50" d="M 1259 4147 
L 1259 2394 
L 2053 2394 
Q 2494 2394 2734 2622 
Q 2975 2850 2975 3272 
Q 2975 3691 2734 3919 
Q 2494 4147 2053 4147 
L 1259 4147 
z
M 628 4666 
L 2053 4666 
Q 2838 4666 3239 4311 
Q 3641 3956 3641 3272 
Q 3641 2581 3239 2228 
Q 2838 1875 2053 1875 
L 1259 1875 
L 1259 0 
L 628 0 
L 628 4666 
z
" transform="scale(0.015625)"/>
       <path id="DejaVuSans-55" d="M 556 4666 
L 1191 4666 
L 1191 1831 
Q 1191 1081 1462 751 
Q 1734 422 2344 422 
Q 2950 422 3222 751 
Q 3494 1081 3494 1831 
L 3494 4666 
L 4128 4666 
L 4128 1753 
Q 4128 841 3676 375 
Q 3225 -91 2344 -91 
Q 1459 -91 1007 375 
Q 556 841 556 1753 
L 556 4666 
z
" transform="scale(0.015625)"/>
       <path id="DejaVuSans-41" d="M 2188 4044 
L 1331 1722 
L 3047 1722 
L 2188 4044 
z
M 1831 4666 
L 2547 4666 
L 4325 0 
L 3669 0 
L 3244 1197 
L 1141 1197 
L 716 0 
L 50 0 
L 1831 4666 
z
" transform="scale(0.015625)"/>
       <path id="DejaVuSans-63" d="M 3122 3366 
L 3122 2828 
Q 2878 2963 2633 3030 
Q 2388 3097 2138 3097 
Q 1578 3097 1268 2742 
Q 959 2388 959 1747 
Q 959 1106 1268 751 
Q 1578 397 2138 397 
Q 2388 397 2633 464 
Q 2878 531 3122 666 
L 3122 134 
Q 2881 22 2623 -34 
Q 2366 -91 2075 -91 
Q 1284 -91 818 406 
Q 353 903 353 1747 
Q 353 2603 823 3093 
Q 1294 3584 2113 3584 
Q 2378 3584 2631 3529 
Q 2884 3475 3122 3366 
z
" transform="scale(0.015625)"/>
       <path id="DejaVuSans-6d" d="M 3328 2828 
Q 3544 3216 3844 3400 
Q 4144 3584 4550 3584 
Q 5097 3584 5394 3201 
Q 5691 2819 5691 2113 
L 5691 0 
L 5113 0 
L 5113 2094 
Q 5113 2597 4934 2840 
Q 4756 3084 4391 3084 
Q 3944 3084 3684 2787 
Q 3425 2491 3425 1978 
L 3425 0 
L 2847 0 
L 2847 2094 
Q 2847 2600 2669 2842 
Q 2491 3084 2119 3084 
Q 1678 3084 1418 2786 
Q 1159 2488 1159 1978 
L 1159 0 
L 581 0 
L 581 3500 
L 1159 3500 
L 1159 2956 
Q 1356 3278 1631 3431 
Q 1906 3584 2284 3584 
Q 2666 3584 2933 3390 
Q 3200 3197 3328 2828 
z
" transform="scale(0.015625)"/>
      </defs>
      <use xlink:href="#DejaVuSans-54"/>
      <use xlink:href="#DejaVuSans-6f" transform="translate(44.083984 0)"/>
      <use xlink:href="#DejaVuSans-74" transform="translate(105.265625 0)"/>
      <use xlink:href="#DejaVuSans-61" transform="translate(144.474609 0)"/>
      <use xlink:href="#DejaVuSans-6c" transform="translate(205.753906 0)"/>
      <use xlink:href="#DejaVuSans-20" transform="translate(233.537109 0)"/>
      <use xlink:href="#DejaVuSans-51" transform="translate(265.324219 0)"/>
      <use xlink:href="#DejaVuSans-50" transform="translate(344.035156 0)"/>
      <use xlink:href="#DejaVuSans-55" transform="translate(404.337891 0)"/>
      <use xlink:href="#DejaVuSans-20" transform="translate(477.53125 0)"/>
      <use xlink:href="#DejaVuSans-41" transform="translate(509.318359 0)"/>
      <use xlink:href="#DejaVuSans-63" transform="translate(575.976562 0)"/>
      <use xlink:href="#DejaVuSans-63" transform="translate(630.957031 0)"/>
      <use xlink:href="#DejaVuSans-65" transform="translate(685.9375 0)"/>
      <use xlink:href="#DejaVuSans-73" transform="translate(747.460938 0)"/>
      <use xlink:href="#DejaVuSans-73" transform="translate(799.560547 0)"/>
      <use xlink:href="#DejaVuSans-20" transform="translate(851.660156 0)"/>
      <use xlink:href="#DejaVuSans-54" transform="translate(883.447266 0)"/>
      <use xlink:href="#DejaVuSans-69" transform="translate(941.40625 0)"/>
      <use xlink:href="#DejaVuSans-6d" transform="translate(969.189453 0)"/>
      <use xlink:href="#DejaVuSans-65" transform="translate(1066.601562 0)"/>
      <use xlink:href="#DejaVuSans-20" transform="translate(1128.125 0)"/>
      <use xlink:href="#DejaVuSans-28" transform="translate(1159.912109 0)"/>
      <use xlink:href="#DejaVuSans-73" transform="translate(1198.925781 0)"/>
      <use xlink:href="#DejaVuSans-29" transform="translate(1251.025391 0)"/>
     </g>
    </g>
   </g>
   <g id="LineCollection_1">
    <path d="M 64.64737 233.678182 
L 64.64737 233.678182 
" clip-path="url(#p9226b15172)" style="fill: none; stroke: #1f77b4; stroke-width: 0.75"/>
    <path d="M 100.071936 194.08646 
L 100.071936 194.08644 
" clip-path="url(#p9226b15172)" style="fill: none; stroke: #1f77b4; stroke-width: 0.75"/>
    <path d="M 135.496501 154.461735 
L 135.496501 154.461735 
" clip-path="url(#p9226b15172)" style="fill: none; stroke: #1f77b4; stroke-width: 0.75"/>
    <path d="M 170.921067 154.453368 
L 170.921067 154.453158 
" clip-path="url(#p9226b15172)" style="fill: none; stroke: #1f77b4; stroke-width: 0.75"/>
    <path d="M 206.345633 118.882917 
L 206.345633 118.882897 
" clip-path="url(#p9226b15172)" style="fill: none; stroke: #1f77b4; stroke-width: 0.75"/>
    <path d="M 241.770199 118.895607 
L 241.770199 118.895607 
" clip-path="url(#p9226b15172)" style="fill: none; stroke: #1f77b4; stroke-width: 0.75"/>
    <path d="M 277.194765 44.042524 
L 277.194765 44.041818 
" clip-path="url(#p9226b15172)" style="fill: none; stroke: #1f77b4; stroke-width: 0.75"/>
   </g>
   <g id="line2d_14">
    <defs>
     <path id="m3fac35a176" d="M 7.5 0 
L -7.5 -0 
" style="stroke: #1f77b4"/>
    </defs>
    <g clip-path="url(#p9226b15172)">
     <use xlink:href="#m3fac35a176" x="64.64737" y="233.678182" style="fill: #1f77b4; stroke: #1f77b4"/>
     <use xlink:href="#m3fac35a176" x="100.071936" y="194.08646" style="fill: #1f77b4; stroke: #1f77b4"/>
     <use xlink:href="#m3fac35a176" x="135.496501" y="154.461735" style="fill: #1f77b4; stroke: #1f77b4"/>
     <use xlink:href="#m3fac35a176" x="170.921067" y="154.453368" style="fill: #1f77b4; stroke: #1f77b4"/>
     <use xlink:href="#m3fac35a176" x="206.345633" y="118.882917" style="fill: #1f77b4; stroke: #1f77b4"/>
     <use xlink:href="#m3fac35a176" x="241.770199" y="118.895607" style="fill: #1f77b4; stroke: #1f77b4"/>
     <use xlink:href="#m3fac35a176" x="277.194765" y="44.042524" style="fill: #1f77b4; stroke: #1f77b4"/>
    </g>
   </g>
   <g id="line2d_15">
    <g clip-path="url(#p9226b15172)">
     <use xlink:href="#m3fac35a176" x="64.64737" y="233.678182" style="fill: #1f77b4; stroke: #1f77b4"/>
     <use xlink:href="#m3fac35a176" x="100.071936" y="194.08644" style="fill: #1f77b4; stroke: #1f77b4"/>
     <use xlink:href="#m3fac35a176" x="135.496501" y="154.461735" style="fill: #1f77b4; stroke: #1f77b4"/>
     <use xlink:href="#m3fac35a176" x="170.921067" y="154.453158" style="fill: #1f77b4; stroke: #1f77b4"/>
     <use xlink:href="#m3fac35a176" x="206.345633" y="118.882897" style="fill: #1f77b4; stroke: #1f77b4"/>
     <use xlink:href="#m3fac35a176" x="241.770199" y="118.895607" style="fill: #1f77b4; stroke: #1f77b4"/>
     <use xlink:href="#m3fac35a176" x="277.194765" y="44.041818" style="fill: #1f77b4; stroke: #1f77b4"/>
    </g>
   </g>
   <g id="line2d_16">
    <path d="M 64.64737 233.678182 
L 100.071936 194.08645 
L 135.496501 154.461735 
L 170.921067 154.453263 
L 206.345633 118.882907 
L 241.770199 118.895607 
L 277.194765 44.042171 
" clip-path="url(#p9226b15172)" style="fill: none; stroke-dasharray: 2.775,1.2; stroke-dashoffset: 0; stroke: #1f77b4; stroke-width: 0.75"/>
    <defs>
     <path id="m699363da25" d="M 0 3 
C 0.795609 3 1.55874 2.683901 2.12132 2.12132 
C 2.683901 1.55874 3 0.795609 3 0 
C 3 -0.795609 2.683901 -1.55874 2.12132 -2.12132 
C 1.55874 -2.683901 0.795609 -3 0 -3 
C -0.795609 -3 -1.55874 -2.683901 -2.12132 -2.12132 
C -2.683901 -1.55874 -3 -0.795609 -3 0 
C -3 0.795609 -2.683901 1.55874 -2.12132 2.12132 
C -1.55874 2.683901 -0.795609 3 0 3 
z
" style="stroke: #1f77b4"/>
    </defs>
    <g clip-path="url(#p9226b15172)">
     <use xlink:href="#m699363da25" x="64.64737" y="233.678182" style="stroke: #1f77b4"/>
     <use xlink:href="#m699363da25" x="100.071936" y="194.08645" style="stroke: #1f77b4"/>
     <use xlink:href="#m699363da25" x="135.496501" y="154.461735" style="stroke: #1f77b4"/>
     <use xlink:href="#m699363da25" x="170.921067" y="154.453263" style="stroke: #1f77b4"/>
     <use xlink:href="#m699363da25" x="206.345633" y="118.882907" style="stroke: #1f77b4"/>
     <use xlink:href="#m699363da25" x="241.770199" y="118.895607" style="stroke: #1f77b4"/>
     <use xlink:href="#m699363da25" x="277.194765" y="44.042171" style="stroke: #1f77b4"/>
    </g>
   </g>
   <g id="patch_3">
    <path d="M 54.02 243.16 
L 54.02 34.56 
" style="fill: none; stroke: #000000; stroke-width: 0.8; stroke-linejoin: miter; stroke-linecap: square"/>
   </g>
   <g id="patch_4">
    <path d="M 54.02 243.16 
L 287.822134 243.16 
" style="fill: none; stroke: #000000; stroke-width: 0.8; stroke-linejoin: miter; stroke-linecap: square"/>
   </g>
  </g>
  <g id="axes_2">
   <g id="patch_5">
    <path d="M 337.745 243.16 
L 571.547134 243.16 
L 571.547134 34.56 
L 337.745 34.56 
z
" style="fill: #ffffff"/>
   </g>
   <g id="matplotlib.axis_3">
    <g id="xtick_8">
     <g id="line2d_17">
      <g>
       <use xlink:href="#m235146b286" x="348.37237" y="243.16" style="stroke: #000000; stroke-width: 0.8"/>
      </g>
     </g>
     <g id="text_16">
      <!-- 0.50 -->
      <g transform="translate(337.239557 257.758438) scale(0.1 -0.1)">
       <use xlink:href="#DejaVuSans-30"/>
       <use xlink:href="#DejaVuSans-2e" transform="translate(63.623047 0)"/>
       <use xlink:href="#DejaVuSans-35" transform="translate(95.410156 0)"/>
       <use xlink:href="#DejaVuSans-30" transform="translate(159.033203 0)"/>
      </g>
     </g>
    </g>
    <g id="xtick_9">
     <g id="line2d_18">
      <g>
       <use xlink:href="#m235146b286" x="383.796936" y="243.16" style="stroke: #000000; stroke-width: 0.8"/>
      </g>
     </g>
     <g id="text_17">
      <!-- 0.75 -->
      <g transform="translate(372.664123 257.758438) scale(0.1 -0.1)">
       <use xlink:href="#DejaVuSans-30"/>
       <use xlink:href="#DejaVuSans-2e" transform="translate(63.623047 0)"/>
       <use xlink:href="#DejaVuSans-37" transform="translate(95.410156 0)"/>
       <use xlink:href="#DejaVuSans-35" transform="translate(159.033203 0)"/>
      </g>
     </g>
    </g>
    <g id="xtick_10">
     <g id="line2d_19">
      <g>
       <use xlink:href="#m235146b286" x="419.221501" y="243.16" style="stroke: #000000; stroke-width: 0.8"/>
      </g>
     </g>
     <g id="text_18">
      <!-- 1.00 -->
      <g transform="translate(408.088689 257.758438) scale(0.1 -0.1)">
       <use xlink:href="#DejaVuSans-31"/>
       <use xlink:href="#DejaVuSans-2e" transform="translate(63.623047 0)"/>
       <use xlink:href="#DejaVuSans-30" transform="translate(95.410156 0)"/>
       <use xlink:href="#DejaVuSans-30" transform="translate(159.033203 0)"/>
      </g>
     </g>
    </g>
    <g id="xtick_11">
     <g id="line2d_20">
      <g>
       <use xlink:href="#m235146b286" x="454.646067" y="243.16" style="stroke: #000000; stroke-width: 0.8"/>
      </g>
     </g>
     <g id="text_19">
      <!-- 1.25 -->
      <g transform="translate(443.513255 257.758438) scale(0.1 -0.1)">
       <use xlink:href="#DejaVuSans-31"/>
       <use xlink:href="#DejaVuSans-2e" transform="translate(63.623047 0)"/>
       <use xlink:href="#DejaVuSans-32" transform="translate(95.410156 0)"/>
       <use xlink:href="#DejaVuSans-35" transform="translate(159.033203 0)"/>
      </g>
     </g>
    </g>
    <g id="xtick_12">
     <g id="line2d_21">
      <g>
       <use xlink:href="#m235146b286" x="490.070633" y="243.16" style="stroke: #000000; stroke-width: 0.8"/>
      </g>
     </g>
     <g id="text_20">
      <!-- 1.50 -->
      <g transform="translate(478.937821 257.758438) scale(0.1 -0.1)">
       <use xlink:href="#DejaVuSans-31"/>
       <use xlink:href="#DejaVuSans-2e" transform="translate(63.623047 0)"/>
       <use xlink:href="#DejaVuSans-35" transform="translate(95.410156 0)"/>
       <use xlink:href="#DejaVuSans-30" transform="translate(159.033203 0)"/>
      </g>
     </g>
    </g>
    <g id="xtick_13">
     <g id="line2d_22">
      <g>
       <use xlink:href="#m235146b286" x="525.495199" y="243.16" style="stroke: #000000; stroke-width: 0.8"/>
      </g>
     </g>
     <g id="text_21">
      <!-- 1.75 -->
      <g transform="translate(514.362386 257.758438) scale(0.1 -0.1)">
       <use xlink:href="#DejaVuSans-31"/>
       <use xlink:href="#DejaVuSans-2e" transform="translate(63.623047 0)"/>
       <use xlink:href="#DejaVuSans-37" transform="translate(95.410156 0)"/>
       <use xlink:href="#DejaVuSans-35" transform="translate(159.033203 0)"/>
      </g>
     </g>
    </g>
    <g id="xtick_14">
     <g id="line2d_23">
      <g>
       <use xlink:href="#m235146b286" x="560.919765" y="243.16" style="stroke: #000000; stroke-width: 0.8"/>
      </g>
     </g>
     <g id="text_22">
      <!-- 2.00 -->
      <g transform="translate(549.786952 257.758438) scale(0.1 -0.1)">
       <use xlink:href="#DejaVuSans-32"/>
       <use xlink:href="#DejaVuSans-2e" transform="translate(63.623047 0)"/>
       <use xlink:href="#DejaVuSans-30" transform="translate(95.410156 0)"/>
       <use xlink:href="#DejaVuSans-30" transform="translate(159.033203 0)"/>
      </g>
     </g>
    </g>
    <g id="text_23">
     <!-- Resolution ($\gamma$) -->
     <g transform="translate(419.846067 271.438125) scale(0.1 -0.1)">
      <use xlink:href="#DejaVuSans-52" transform="translate(0 0.015625)"/>
      <use xlink:href="#DejaVuSans-65" transform="translate(69.482422 0.015625)"/>
      <use xlink:href="#DejaVuSans-73" transform="translate(131.005859 0.015625)"/>
      <use xlink:href="#DejaVuSans-6f" transform="translate(183.105469 0.015625)"/>
      <use xlink:href="#DejaVuSans-6c" transform="translate(244.287109 0.015625)"/>
      <use xlink:href="#DejaVuSans-75" transform="translate(272.070312 0.015625)"/>
      <use xlink:href="#DejaVuSans-74" transform="translate(335.449219 0.015625)"/>
      <use xlink:href="#DejaVuSans-69" transform="translate(374.658203 0.015625)"/>
      <use xlink:href="#DejaVuSans-6f" transform="translate(402.441406 0.015625)"/>
      <use xlink:href="#DejaVuSans-6e" transform="translate(463.623047 0.015625)"/>
      <use xlink:href="#DejaVuSans-20" transform="translate(527.001953 0.015625)"/>
      <use xlink:href="#DejaVuSans-28" transform="translate(558.789062 0.015625)"/>
      <use xlink:href="#DejaVuSans-Oblique-3b3" transform="translate(597.802734 0.015625)"/>
      <use xlink:href="#DejaVuSans-29" transform="translate(656.982422 0.015625)"/>
     </g>
    </g>
   </g>
   <g id="matplotlib.axis_4">
    <g id="ytick_7">
     <g id="line2d_24">
      <g>
       <use xlink:href="#m7da1598503" x="337.745" y="218.195245" style="stroke: #000000; stroke-width: 0.8"/>
      </g>
     </g>
     <g id="text_24">
      <!-- 0.5 -->
      <g transform="translate(314.841875 221.994464) scale(0.1 -0.1)">
       <use xlink:href="#DejaVuSans-30"/>
       <use xlink:href="#DejaVuSans-2e" transform="translate(63.623047 0)"/>
       <use xlink:href="#DejaVuSans-35" transform="translate(95.410156 0)"/>
      </g>
     </g>
    </g>
    <g id="ytick_8">
     <g id="line2d_25">
      <g>
       <use xlink:href="#m7da1598503" x="337.745" y="191.827945" style="stroke: #000000; stroke-width: 0.8"/>
      </g>
     </g>
     <g id="text_25">
      <!-- 1.0 -->
      <g transform="translate(314.841875 195.627164) scale(0.1 -0.1)">
       <use xlink:href="#DejaVuSans-31"/>
       <use xlink:href="#DejaVuSans-2e" transform="translate(63.623047 0)"/>
       <use xlink:href="#DejaVuSans-30" transform="translate(95.410156 0)"/>
      </g>
     </g>
    </g>
    <g id="ytick_9">
     <g id="line2d_26">
      <g>
       <use xlink:href="#m7da1598503" x="337.745" y="165.460645" style="stroke: #000000; stroke-width: 0.8"/>
      </g>
     </g>
     <g id="text_26">
      <!-- 1.5 -->
      <g transform="translate(314.841875 169.259864) scale(0.1 -0.1)">
       <use xlink:href="#DejaVuSans-31"/>
       <use xlink:href="#DejaVuSans-2e" transform="translate(63.623047 0)"/>
       <use xlink:href="#DejaVuSans-35" transform="translate(95.410156 0)"/>
      </g>
     </g>
    </g>
    <g id="ytick_10">
     <g id="line2d_27">
      <g>
       <use xlink:href="#m7da1598503" x="337.745" y="139.093345" style="stroke: #000000; stroke-width: 0.8"/>
      </g>
     </g>
     <g id="text_27">
      <!-- 2.0 -->
      <g transform="translate(314.841875 142.892564) scale(0.1 -0.1)">
       <use xlink:href="#DejaVuSans-32"/>
       <use xlink:href="#DejaVuSans-2e" transform="translate(63.623047 0)"/>
       <use xlink:href="#DejaVuSans-30" transform="translate(95.410156 0)"/>
      </g>
     </g>
    </g>
    <g id="ytick_11">
     <g id="line2d_28">
      <g>
       <use xlink:href="#m7da1598503" x="337.745" y="112.726045" style="stroke: #000000; stroke-width: 0.8"/>
      </g>
     </g>
     <g id="text_28">
      <!-- 2.5 -->
      <g transform="translate(314.841875 116.525264) scale(0.1 -0.1)">
       <use xlink:href="#DejaVuSans-32"/>
       <use xlink:href="#DejaVuSans-2e" transform="translate(63.623047 0)"/>
       <use xlink:href="#DejaVuSans-35" transform="translate(95.410156 0)"/>
      </g>
     </g>
    </g>
    <g id="ytick_12">
     <g id="line2d_29">
      <g>
       <use xlink:href="#m7da1598503" x="337.745" y="86.358746" style="stroke: #000000; stroke-width: 0.8"/>
      </g>
     </g>
     <g id="text_29">
      <!-- 3.0 -->
      <g transform="translate(314.841875 90.157964) scale(0.1 -0.1)">
       <use xlink:href="#DejaVuSans-33"/>
       <use xlink:href="#DejaVuSans-2e" transform="translate(63.623047 0)"/>
       <use xlink:href="#DejaVuSans-30" transform="translate(95.410156 0)"/>
      </g>
     </g>
    </g>
    <g id="ytick_13">
     <g id="line2d_30">
      <g>
       <use xlink:href="#m7da1598503" x="337.745" y="59.991446" style="stroke: #000000; stroke-width: 0.8"/>
      </g>
     </g>
     <g id="text_30">
      <!-- 3.5 -->
      <g transform="translate(314.841875 63.790664) scale(0.1 -0.1)">
       <use xlink:href="#DejaVuSans-33"/>
       <use xlink:href="#DejaVuSans-2e" transform="translate(63.623047 0)"/>
       <use xlink:href="#DejaVuSans-35" transform="translate(95.410156 0)"/>
      </g>
     </g>
    </g>
    <g id="text_31">
     <!-- Total Clique Embedding Read Time (s) -->
     <g transform="translate(308.762187 233.835781) rotate(-90) scale(0.1 -0.1)">
      <defs>
       <path id="DejaVuSans-43" d="M 4122 4306 
L 4122 3641 
Q 3803 3938 3442 4084 
Q 3081 4231 2675 4231 
Q 1875 4231 1450 3742 
Q 1025 3253 1025 2328 
Q 1025 1406 1450 917 
Q 1875 428 2675 428 
Q 3081 428 3442 575 
Q 3803 722 4122 1019 
L 4122 359 
Q 3791 134 3420 21 
Q 3050 -91 2638 -91 
Q 1578 -91 968 557 
Q 359 1206 359 2328 
Q 359 3453 968 4101 
Q 1578 4750 2638 4750 
Q 3056 4750 3426 4639 
Q 3797 4528 4122 4306 
z
" transform="scale(0.015625)"/>
       <path id="DejaVuSans-71" d="M 947 1747 
Q 947 1113 1208 752 
Q 1469 391 1925 391 
Q 2381 391 2643 752 
Q 2906 1113 2906 1747 
Q 2906 2381 2643 2742 
Q 2381 3103 1925 3103 
Q 1469 3103 1208 2742 
Q 947 2381 947 1747 
z
M 2906 525 
Q 2725 213 2448 61 
Q 2172 -91 1784 -91 
Q 1150 -91 751 415 
Q 353 922 353 1747 
Q 353 2572 751 3078 
Q 1150 3584 1784 3584 
Q 2172 3584 2448 3432 
Q 2725 3281 2906 2969 
L 2906 3500 
L 3481 3500 
L 3481 -1331 
L 2906 -1331 
L 2906 525 
z
" transform="scale(0.015625)"/>
       <path id="DejaVuSans-45" d="M 628 4666 
L 3578 4666 
L 3578 4134 
L 1259 4134 
L 1259 2753 
L 3481 2753 
L 3481 2222 
L 1259 2222 
L 1259 531 
L 3634 531 
L 3634 0 
L 628 0 
L 628 4666 
z
" transform="scale(0.015625)"/>
       <path id="DejaVuSans-62" d="M 3116 1747 
Q 3116 2381 2855 2742 
Q 2594 3103 2138 3103 
Q 1681 3103 1420 2742 
Q 1159 2381 1159 1747 
Q 1159 1113 1420 752 
Q 1681 391 2138 391 
Q 2594 391 2855 752 
Q 3116 1113 3116 1747 
z
M 1159 2969 
Q 1341 3281 1617 3432 
Q 1894 3584 2278 3584 
Q 2916 3584 3314 3078 
Q 3713 2572 3713 1747 
Q 3713 922 3314 415 
Q 2916 -91 2278 -91 
Q 1894 -91 1617 61 
Q 1341 213 1159 525 
L 1159 0 
L 581 0 
L 581 4863 
L 1159 4863 
L 1159 2969 
z
" transform="scale(0.015625)"/>
       <path id="DejaVuSans-64" d="M 2906 2969 
L 2906 4863 
L 3481 4863 
L 3481 0 
L 2906 0 
L 2906 525 
Q 2725 213 2448 61 
Q 2172 -91 1784 -91 
Q 1150 -91 751 415 
Q 353 922 353 1747 
Q 353 2572 751 3078 
Q 1150 3584 1784 3584 
Q 2172 3584 2448 3432 
Q 2725 3281 2906 2969 
z
M 947 1747 
Q 947 1113 1208 752 
Q 1469 391 1925 391 
Q 2381 391 2643 752 
Q 2906 1113 2906 1747 
Q 2906 2381 2643 2742 
Q 2381 3103 1925 3103 
Q 1469 3103 1208 2742 
Q 947 2381 947 1747 
z
" transform="scale(0.015625)"/>
       <path id="DejaVuSans-67" d="M 2906 1791 
Q 2906 2416 2648 2759 
Q 2391 3103 1925 3103 
Q 1463 3103 1205 2759 
Q 947 2416 947 1791 
Q 947 1169 1205 825 
Q 1463 481 1925 481 
Q 2391 481 2648 825 
Q 2906 1169 2906 1791 
z
M 3481 434 
Q 3481 -459 3084 -895 
Q 2688 -1331 1869 -1331 
Q 1566 -1331 1297 -1286 
Q 1028 -1241 775 -1147 
L 775 -588 
Q 1028 -725 1275 -790 
Q 1522 -856 1778 -856 
Q 2344 -856 2625 -561 
Q 2906 -266 2906 331 
L 2906 616 
Q 2728 306 2450 153 
Q 2172 0 1784 0 
Q 1141 0 747 490 
Q 353 981 353 1791 
Q 353 2603 747 3093 
Q 1141 3584 1784 3584 
Q 2172 3584 2450 3431 
Q 2728 3278 2906 2969 
L 2906 3500 
L 3481 3500 
L 3481 434 
z
" transform="scale(0.015625)"/>
      </defs>
      <use xlink:href="#DejaVuSans-54"/>
      <use xlink:href="#DejaVuSans-6f" transform="translate(44.083984 0)"/>
      <use xlink:href="#DejaVuSans-74" transform="translate(105.265625 0)"/>
      <use xlink:href="#DejaVuSans-61" transform="translate(144.474609 0)"/>
      <use xlink:href="#DejaVuSans-6c" transform="translate(205.753906 0)"/>
      <use xlink:href="#DejaVuSans-20" transform="translate(233.537109 0)"/>
      <use xlink:href="#DejaVuSans-43" transform="translate(265.324219 0)"/>
      <use xlink:href="#DejaVuSans-6c" transform="translate(335.148438 0)"/>
      <use xlink:href="#DejaVuSans-69" transform="translate(362.931641 0)"/>
      <use xlink:href="#DejaVuSans-71" transform="translate(390.714844 0)"/>
      <use xlink:href="#DejaVuSans-75" transform="translate(454.191406 0)"/>
      <use xlink:href="#DejaVuSans-65" transform="translate(517.570312 0)"/>
      <use xlink:href="#DejaVuSans-20" transform="translate(579.09375 0)"/>
      <use xlink:href="#DejaVuSans-45" transform="translate(610.880859 0)"/>
      <use xlink:href="#DejaVuSans-6d" transform="translate(674.064453 0)"/>
      <use xlink:href="#DejaVuSans-62" transform="translate(771.476562 0)"/>
      <use xlink:href="#DejaVuSans-65" transform="translate(834.953125 0)"/>
      <use xlink:href="#DejaVuSans-64" transform="translate(896.476562 0)"/>
      <use xlink:href="#DejaVuSans-64" transform="translate(959.953125 0)"/>
      <use xlink:href="#DejaVuSans-69" transform="translate(1023.429688 0)"/>
      <use xlink:href="#DejaVuSans-6e" transform="translate(1051.212891 0)"/>
      <use xlink:href="#DejaVuSans-67" transform="translate(1114.591797 0)"/>
      <use xlink:href="#DejaVuSans-20" transform="translate(1178.068359 0)"/>
      <use xlink:href="#DejaVuSans-52" transform="translate(1209.855469 0)"/>
      <use xlink:href="#DejaVuSans-65" transform="translate(1274.837891 0)"/>
      <use xlink:href="#DejaVuSans-61" transform="translate(1336.361328 0)"/>
      <use xlink:href="#DejaVuSans-64" transform="translate(1397.640625 0)"/>
      <use xlink:href="#DejaVuSans-20" transform="translate(1461.117188 0)"/>
      <use xlink:href="#DejaVuSans-54" transform="translate(1492.904297 0)"/>
      <use xlink:href="#DejaVuSans-69" transform="translate(1550.863281 0)"/>
      <use xlink:href="#DejaVuSans-6d" transform="translate(1578.646484 0)"/>
      <use xlink:href="#DejaVuSans-65" transform="translate(1676.058594 0)"/>
      <use xlink:href="#DejaVuSans-20" transform="translate(1737.582031 0)"/>
      <use xlink:href="#DejaVuSans-28" transform="translate(1769.369141 0)"/>
      <use xlink:href="#DejaVuSans-73" transform="translate(1808.382812 0)"/>
      <use xlink:href="#DejaVuSans-29" transform="translate(1860.482422 0)"/>
     </g>
    </g>
   </g>
   <g id="LineCollection_2">
    <path d="M 348.37237 233.678182 
L 348.37237 233.596603 
" clip-path="url(#p8065ca7c22)" style="fill: none; stroke: #1f77b4; stroke-width: 0.75"/>
    <path d="M 383.796936 212.254145 
L 383.796936 212.02876 
" clip-path="url(#p8065ca7c22)" style="fill: none; stroke: #1f77b4; stroke-width: 0.75"/>
    <path d="M 419.221501 205.812344 
L 419.221501 204.551512 
" clip-path="url(#p8065ca7c22)" style="fill: none; stroke: #1f77b4; stroke-width: 0.75"/>
    <path d="M 454.646067 205.697295 
L 454.646067 204.427759 
" clip-path="url(#p8065ca7c22)" style="fill: none; stroke: #1f77b4; stroke-width: 0.75"/>
    <path d="M 490.070633 140.057047 
L 490.070633 139.281295 
" clip-path="url(#p8065ca7c22)" style="fill: none; stroke: #1f77b4; stroke-width: 0.75"/>
    <path d="M 525.495199 179.326881 
L 525.495199 175.445847 
" clip-path="url(#p8065ca7c22)" style="fill: none; stroke: #1f77b4; stroke-width: 0.75"/>
    <path d="M 560.919765 45.466601 
L 560.919765 44.041818 
" clip-path="url(#p8065ca7c22)" style="fill: none; stroke: #1f77b4; stroke-width: 0.75"/>
   </g>
   <g id="line2d_31">
    <g clip-path="url(#p8065ca7c22)">
     <use xlink:href="#m3fac35a176" x="348.37237" y="233.678182" style="fill: #1f77b4; stroke: #1f77b4"/>
     <use xlink:href="#m3fac35a176" x="383.796936" y="212.254145" style="fill: #1f77b4; stroke: #1f77b4"/>
     <use xlink:href="#m3fac35a176" x="419.221501" y="205.812344" style="fill: #1f77b4; stroke: #1f77b4"/>
     <use xlink:href="#m3fac35a176" x="454.646067" y="205.697295" style="fill: #1f77b4; stroke: #1f77b4"/>
     <use xlink:href="#m3fac35a176" x="490.070633" y="140.057047" style="fill: #1f77b4; stroke: #1f77b4"/>
     <use xlink:href="#m3fac35a176" x="525.495199" y="179.326881" style="fill: #1f77b4; stroke: #1f77b4"/>
     <use xlink:href="#m3fac35a176" x="560.919765" y="45.466601" style="fill: #1f77b4; stroke: #1f77b4"/>
    </g>
   </g>
   <g id="line2d_32">
    <g clip-path="url(#p8065ca7c22)">
     <use xlink:href="#m3fac35a176" x="348.37237" y="233.596603" style="fill: #1f77b4; stroke: #1f77b4"/>
     <use xlink:href="#m3fac35a176" x="383.796936" y="212.02876" style="fill: #1f77b4; stroke: #1f77b4"/>
     <use xlink:href="#m3fac35a176" x="419.221501" y="204.551512" style="fill: #1f77b4; stroke: #1f77b4"/>
     <use xlink:href="#m3fac35a176" x="454.646067" y="204.427759" style="fill: #1f77b4; stroke: #1f77b4"/>
     <use xlink:href="#m3fac35a176" x="490.070633" y="139.281295" style="fill: #1f77b4; stroke: #1f77b4"/>
     <use xlink:href="#m3fac35a176" x="525.495199" y="175.445847" style="fill: #1f77b4; stroke: #1f77b4"/>
     <use xlink:href="#m3fac35a176" x="560.919765" y="44.041818" style="fill: #1f77b4; stroke: #1f77b4"/>
    </g>
   </g>
   <g id="line2d_33">
    <path d="M 348.37237 233.637393 
L 383.796936 212.141452 
L 419.221501 205.181928 
L 454.646067 205.062527 
L 490.070633 139.669171 
L 525.495199 177.386364 
L 560.919765 44.75421 
" clip-path="url(#p8065ca7c22)" style="fill: none; stroke-dasharray: 2.775,1.2; stroke-dashoffset: 0; stroke: #1f77b4; stroke-width: 0.75"/>
    <g clip-path="url(#p8065ca7c22)">
     <use xlink:href="#m699363da25" x="348.37237" y="233.637393" style="stroke: #1f77b4"/>
     <use xlink:href="#m699363da25" x="383.796936" y="212.141452" style="stroke: #1f77b4"/>
     <use xlink:href="#m699363da25" x="419.221501" y="205.181928" style="stroke: #1f77b4"/>
     <use xlink:href="#m699363da25" x="454.646067" y="205.062527" style="stroke: #1f77b4"/>
     <use xlink:href="#m699363da25" x="490.070633" y="139.669171" style="stroke: #1f77b4"/>
     <use xlink:href="#m699363da25" x="525.495199" y="177.386364" style="stroke: #1f77b4"/>
     <use xlink:href="#m699363da25" x="560.919765" y="44.75421" style="stroke: #1f77b4"/>
    </g>
   </g>
   <g id="patch_6">
    <path d="M 337.745 243.16 
L 337.745 34.56 
" style="fill: none; stroke: #000000; stroke-width: 0.8; stroke-linejoin: miter; stroke-linecap: square"/>
   </g>
   <g id="patch_7">
    <path d="M 337.745 243.16 
L 571.547134 243.16 
" style="fill: none; stroke: #000000; stroke-width: 0.8; stroke-linejoin: miter; stroke-linecap: square"/>
   </g>
  </g>
  <g id="axes_3">
   <g id="patch_8">
    <path d="M 621.47 243.16 
L 855.272134 243.16 
L 855.272134 34.56 
L 621.47 34.56 
z
" style="fill: #ffffff"/>
   </g>
   <g id="matplotlib.axis_5">
    <g id="xtick_15">
     <g id="line2d_34">
      <g>
       <use xlink:href="#m235146b286" x="632.09737" y="243.16" style="stroke: #000000; stroke-width: 0.8"/>
      </g>
     </g>
     <g id="text_32">
      <!-- 0.50 -->
      <g transform="translate(620.964557 257.758438) scale(0.1 -0.1)">
       <use xlink:href="#DejaVuSans-30"/>
       <use xlink:href="#DejaVuSans-2e" transform="translate(63.623047 0)"/>
       <use xlink:href="#DejaVuSans-35" transform="translate(95.410156 0)"/>
       <use xlink:href="#DejaVuSans-30" transform="translate(159.033203 0)"/>
      </g>
     </g>
    </g>
    <g id="xtick_16">
     <g id="line2d_35">
      <g>
       <use xlink:href="#m235146b286" x="667.521936" y="243.16" style="stroke: #000000; stroke-width: 0.8"/>
      </g>
     </g>
     <g id="text_33">
      <!-- 0.75 -->
      <g transform="translate(656.389123 257.758438) scale(0.1 -0.1)">
       <use xlink:href="#DejaVuSans-30"/>
       <use xlink:href="#DejaVuSans-2e" transform="translate(63.623047 0)"/>
       <use xlink:href="#DejaVuSans-37" transform="translate(95.410156 0)"/>
       <use xlink:href="#DejaVuSans-35" transform="translate(159.033203 0)"/>
      </g>
     </g>
    </g>
    <g id="xtick_17">
     <g id="line2d_36">
      <g>
       <use xlink:href="#m235146b286" x="702.946501" y="243.16" style="stroke: #000000; stroke-width: 0.8"/>
      </g>
     </g>
     <g id="text_34">
      <!-- 1.00 -->
      <g transform="translate(691.813689 257.758438) scale(0.1 -0.1)">
       <use xlink:href="#DejaVuSans-31"/>
       <use xlink:href="#DejaVuSans-2e" transform="translate(63.623047 0)"/>
       <use xlink:href="#DejaVuSans-30" transform="translate(95.410156 0)"/>
       <use xlink:href="#DejaVuSans-30" transform="translate(159.033203 0)"/>
      </g>
     </g>
    </g>
    <g id="xtick_18">
     <g id="line2d_37">
      <g>
       <use xlink:href="#m235146b286" x="738.371067" y="243.16" style="stroke: #000000; stroke-width: 0.8"/>
      </g>
     </g>
     <g id="text_35">
      <!-- 1.25 -->
      <g transform="translate(727.238255 257.758438) scale(0.1 -0.1)">
       <use xlink:href="#DejaVuSans-31"/>
       <use xlink:href="#DejaVuSans-2e" transform="translate(63.623047 0)"/>
       <use xlink:href="#DejaVuSans-32" transform="translate(95.410156 0)"/>
       <use xlink:href="#DejaVuSans-35" transform="translate(159.033203 0)"/>
      </g>
     </g>
    </g>
    <g id="xtick_19">
     <g id="line2d_38">
      <g>
       <use xlink:href="#m235146b286" x="773.795633" y="243.16" style="stroke: #000000; stroke-width: 0.8"/>
      </g>
     </g>
     <g id="text_36">
      <!-- 1.50 -->
      <g transform="translate(762.662821 257.758438) scale(0.1 -0.1)">
       <use xlink:href="#DejaVuSans-31"/>
       <use xlink:href="#DejaVuSans-2e" transform="translate(63.623047 0)"/>
       <use xlink:href="#DejaVuSans-35" transform="translate(95.410156 0)"/>
       <use xlink:href="#DejaVuSans-30" transform="translate(159.033203 0)"/>
      </g>
     </g>
    </g>
    <g id="xtick_20">
     <g id="line2d_39">
      <g>
       <use xlink:href="#m235146b286" x="809.220199" y="243.16" style="stroke: #000000; stroke-width: 0.8"/>
      </g>
     </g>
     <g id="text_37">
      <!-- 1.75 -->
      <g transform="translate(798.087386 257.758438) scale(0.1 -0.1)">
       <use xlink:href="#DejaVuSans-31"/>
       <use xlink:href="#DejaVuSans-2e" transform="translate(63.623047 0)"/>
       <use xlink:href="#DejaVuSans-37" transform="translate(95.410156 0)"/>
       <use xlink:href="#DejaVuSans-35" transform="translate(159.033203 0)"/>
      </g>
     </g>
    </g>
    <g id="xtick_21">
     <g id="line2d_40">
      <g>
       <use xlink:href="#m235146b286" x="844.644765" y="243.16" style="stroke: #000000; stroke-width: 0.8"/>
      </g>
     </g>
     <g id="text_38">
      <!-- 2.00 -->
      <g transform="translate(833.511952 257.758438) scale(0.1 -0.1)">
       <use xlink:href="#DejaVuSans-32"/>
       <use xlink:href="#DejaVuSans-2e" transform="translate(63.623047 0)"/>
       <use xlink:href="#DejaVuSans-30" transform="translate(95.410156 0)"/>
       <use xlink:href="#DejaVuSans-30" transform="translate(159.033203 0)"/>
      </g>
     </g>
    </g>
    <g id="text_39">
     <!-- Resolution ($\gamma$) -->
     <g transform="translate(703.571067 271.438125) scale(0.1 -0.1)">
      <use xlink:href="#DejaVuSans-52" transform="translate(0 0.015625)"/>
      <use xlink:href="#DejaVuSans-65" transform="translate(69.482422 0.015625)"/>
      <use xlink:href="#DejaVuSans-73" transform="translate(131.005859 0.015625)"/>
      <use xlink:href="#DejaVuSans-6f" transform="translate(183.105469 0.015625)"/>
      <use xlink:href="#DejaVuSans-6c" transform="translate(244.287109 0.015625)"/>
      <use xlink:href="#DejaVuSans-75" transform="translate(272.070312 0.015625)"/>
      <use xlink:href="#DejaVuSans-74" transform="translate(335.449219 0.015625)"/>
      <use xlink:href="#DejaVuSans-69" transform="translate(374.658203 0.015625)"/>
      <use xlink:href="#DejaVuSans-6f" transform="translate(402.441406 0.015625)"/>
      <use xlink:href="#DejaVuSans-6e" transform="translate(463.623047 0.015625)"/>
      <use xlink:href="#DejaVuSans-20" transform="translate(527.001953 0.015625)"/>
      <use xlink:href="#DejaVuSans-28" transform="translate(558.789062 0.015625)"/>
      <use xlink:href="#DejaVuSans-Oblique-3b3" transform="translate(597.802734 0.015625)"/>
      <use xlink:href="#DejaVuSans-29" transform="translate(656.982422 0.015625)"/>
     </g>
    </g>
   </g>
   <g id="matplotlib.axis_6">
    <g id="ytick_14">
     <g id="line2d_41">
      <g>
       <use xlink:href="#m7da1598503" x="621.47" y="210.71896" style="stroke: #000000; stroke-width: 0.8"/>
      </g>
     </g>
     <g id="text_40">
      <!-- 10 -->
      <g transform="translate(601.745 214.518178) scale(0.1 -0.1)">
       <use xlink:href="#DejaVuSans-31"/>
       <use xlink:href="#DejaVuSans-30" transform="translate(63.623047 0)"/>
      </g>
     </g>
    </g>
    <g id="ytick_15">
     <g id="line2d_42">
      <g>
       <use xlink:href="#m7da1598503" x="621.47" y="170.878928" style="stroke: #000000; stroke-width: 0.8"/>
      </g>
     </g>
     <g id="text_41">
      <!-- 15 -->
      <g transform="translate(601.745 174.678147) scale(0.1 -0.1)">
       <use xlink:href="#DejaVuSans-31"/>
       <use xlink:href="#DejaVuSans-35" transform="translate(63.623047 0)"/>
      </g>
     </g>
    </g>
    <g id="ytick_16">
     <g id="line2d_43">
      <g>
       <use xlink:href="#m7da1598503" x="621.47" y="131.038897" style="stroke: #000000; stroke-width: 0.8"/>
      </g>
     </g>
     <g id="text_42">
      <!-- 20 -->
      <g transform="translate(601.745 134.838116) scale(0.1 -0.1)">
       <use xlink:href="#DejaVuSans-32"/>
       <use xlink:href="#DejaVuSans-30" transform="translate(63.623047 0)"/>
      </g>
     </g>
    </g>
    <g id="ytick_17">
     <g id="line2d_44">
      <g>
       <use xlink:href="#m7da1598503" x="621.47" y="91.198866" style="stroke: #000000; stroke-width: 0.8"/>
      </g>
     </g>
     <g id="text_43">
      <!-- 25 -->
      <g transform="translate(601.745 94.998084) scale(0.1 -0.1)">
       <use xlink:href="#DejaVuSans-32"/>
       <use xlink:href="#DejaVuSans-35" transform="translate(63.623047 0)"/>
      </g>
     </g>
    </g>
    <g id="ytick_18">
     <g id="line2d_45">
      <g>
       <use xlink:href="#m7da1598503" x="621.47" y="51.358834" style="stroke: #000000; stroke-width: 0.8"/>
      </g>
     </g>
     <g id="text_44">
      <!-- 30 -->
      <g transform="translate(601.745 55.158053) scale(0.1 -0.1)">
       <use xlink:href="#DejaVuSans-33"/>
       <use xlink:href="#DejaVuSans-30" transform="translate(63.623047 0)"/>
      </g>
     </g>
    </g>
    <g id="text_45">
     <!-- Total Sample Communication Time (s) -->
     <g transform="translate(595.665313 233.789688) rotate(-90) scale(0.1 -0.1)">
      <defs>
       <path id="DejaVuSans-53" d="M 3425 4513 
L 3425 3897 
Q 3066 4069 2747 4153 
Q 2428 4238 2131 4238 
Q 1616 4238 1336 4038 
Q 1056 3838 1056 3469 
Q 1056 3159 1242 3001 
Q 1428 2844 1947 2747 
L 2328 2669 
Q 3034 2534 3370 2195 
Q 3706 1856 3706 1288 
Q 3706 609 3251 259 
Q 2797 -91 1919 -91 
Q 1588 -91 1214 -16 
Q 841 59 441 206 
L 441 856 
Q 825 641 1194 531 
Q 1563 422 1919 422 
Q 2459 422 2753 634 
Q 3047 847 3047 1241 
Q 3047 1584 2836 1778 
Q 2625 1972 2144 2069 
L 1759 2144 
Q 1053 2284 737 2584 
Q 422 2884 422 3419 
Q 422 4038 858 4394 
Q 1294 4750 2059 4750 
Q 2388 4750 2728 4690 
Q 3069 4631 3425 4513 
z
" transform="scale(0.015625)"/>
       <path id="DejaVuSans-70" d="M 1159 525 
L 1159 -1331 
L 581 -1331 
L 581 3500 
L 1159 3500 
L 1159 2969 
Q 1341 3281 1617 3432 
Q 1894 3584 2278 3584 
Q 2916 3584 3314 3078 
Q 3713 2572 3713 1747 
Q 3713 922 3314 415 
Q 2916 -91 2278 -91 
Q 1894 -91 1617 61 
Q 1341 213 1159 525 
z
M 3116 1747 
Q 3116 2381 2855 2742 
Q 2594 3103 2138 3103 
Q 1681 3103 1420 2742 
Q 1159 2381 1159 1747 
Q 1159 1113 1420 752 
Q 1681 391 2138 391 
Q 2594 391 2855 752 
Q 3116 1113 3116 1747 
z
" transform="scale(0.015625)"/>
      </defs>
      <use xlink:href="#DejaVuSans-54"/>
      <use xlink:href="#DejaVuSans-6f" transform="translate(44.083984 0)"/>
      <use xlink:href="#DejaVuSans-74" transform="translate(105.265625 0)"/>
      <use xlink:href="#DejaVuSans-61" transform="translate(144.474609 0)"/>
      <use xlink:href="#DejaVuSans-6c" transform="translate(205.753906 0)"/>
      <use xlink:href="#DejaVuSans-20" transform="translate(233.537109 0)"/>
      <use xlink:href="#DejaVuSans-53" transform="translate(265.324219 0)"/>
      <use xlink:href="#DejaVuSans-61" transform="translate(328.800781 0)"/>
      <use xlink:href="#DejaVuSans-6d" transform="translate(390.080078 0)"/>
      <use xlink:href="#DejaVuSans-70" transform="translate(487.492188 0)"/>
      <use xlink:href="#DejaVuSans-6c" transform="translate(550.96875 0)"/>
      <use xlink:href="#DejaVuSans-65" transform="translate(578.751953 0)"/>
      <use xlink:href="#DejaVuSans-20" transform="translate(640.275391 0)"/>
      <use xlink:href="#DejaVuSans-43" transform="translate(672.0625 0)"/>
      <use xlink:href="#DejaVuSans-6f" transform="translate(741.886719 0)"/>
      <use xlink:href="#DejaVuSans-6d" transform="translate(803.068359 0)"/>
      <use xlink:href="#DejaVuSans-6d" transform="translate(900.480469 0)"/>
      <use xlink:href="#DejaVuSans-75" transform="translate(997.892578 0)"/>
      <use xlink:href="#DejaVuSans-6e" transform="translate(1061.271484 0)"/>
      <use xlink:href="#DejaVuSans-69" transform="translate(1124.650391 0)"/>
      <use xlink:href="#DejaVuSans-63" transform="translate(1152.433594 0)"/>
      <use xlink:href="#DejaVuSans-61" transform="translate(1207.414062 0)"/>
      <use xlink:href="#DejaVuSans-74" transform="translate(1268.693359 0)"/>
      <use xlink:href="#DejaVuSans-69" transform="translate(1307.902344 0)"/>
      <use xlink:href="#DejaVuSans-6f" transform="translate(1335.685547 0)"/>
      <use xlink:href="#DejaVuSans-6e" transform="translate(1396.867188 0)"/>
      <use xlink:href="#DejaVuSans-20" transform="translate(1460.246094 0)"/>
      <use xlink:href="#DejaVuSans-54" transform="translate(1492.033203 0)"/>
      <use xlink:href="#DejaVuSans-69" transform="translate(1549.992188 0)"/>
      <use xlink:href="#DejaVuSans-6d" transform="translate(1577.775391 0)"/>
      <use xlink:href="#DejaVuSans-65" transform="translate(1675.1875 0)"/>
      <use xlink:href="#DejaVuSans-20" transform="translate(1736.710938 0)"/>
      <use xlink:href="#DejaVuSans-28" transform="translate(1768.498047 0)"/>
      <use xlink:href="#DejaVuSans-73" transform="translate(1807.511719 0)"/>
      <use xlink:href="#DejaVuSans-29" transform="translate(1859.611328 0)"/>
     </g>
    </g>
   </g>
   <g id="LineCollection_3">
    <path d="M 632.09737 233.678182 
L 632.09737 233.390418 
" clip-path="url(#paefd393282)" style="fill: none; stroke: #1f77b4; stroke-width: 0.75"/>
    <path d="M 667.521936 199.68532 
L 667.521936 199.473285 
" clip-path="url(#paefd393282)" style="fill: none; stroke: #1f77b4; stroke-width: 0.75"/>
    <path d="M 702.946501 161.100627 
L 702.946501 160.627671 
" clip-path="url(#paefd393282)" style="fill: none; stroke: #1f77b4; stroke-width: 0.75"/>
    <path d="M 738.371067 160.753763 
L 738.371067 160.401836 
" clip-path="url(#paefd393282)" style="fill: none; stroke: #1f77b4; stroke-width: 0.75"/>
    <path d="M 773.795633 124.208926 
L 773.795633 123.811687 
" clip-path="url(#paefd393282)" style="fill: none; stroke: #1f77b4; stroke-width: 0.75"/>
    <path d="M 809.220199 119.590962 
L 809.220199 119.285304 
" clip-path="url(#paefd393282)" style="fill: none; stroke: #1f77b4; stroke-width: 0.75"/>
    <path d="M 844.644765 45.223216 
L 844.644765 44.041818 
" clip-path="url(#paefd393282)" style="fill: none; stroke: #1f77b4; stroke-width: 0.75"/>
   </g>
   <g id="line2d_46">
    <g clip-path="url(#paefd393282)">
     <use xlink:href="#m3fac35a176" x="632.09737" y="233.678182" style="fill: #1f77b4; stroke: #1f77b4"/>
     <use xlink:href="#m3fac35a176" x="667.521936" y="199.68532" style="fill: #1f77b4; stroke: #1f77b4"/>
     <use xlink:href="#m3fac35a176" x="702.946501" y="161.100627" style="fill: #1f77b4; stroke: #1f77b4"/>
     <use xlink:href="#m3fac35a176" x="738.371067" y="160.753763" style="fill: #1f77b4; stroke: #1f77b4"/>
     <use xlink:href="#m3fac35a176" x="773.795633" y="124.208926" style="fill: #1f77b4; stroke: #1f77b4"/>
     <use xlink:href="#m3fac35a176" x="809.220199" y="119.590962" style="fill: #1f77b4; stroke: #1f77b4"/>
     <use xlink:href="#m3fac35a176" x="844.644765" y="45.223216" style="fill: #1f77b4; stroke: #1f77b4"/>
    </g>
   </g>
   <g id="line2d_47">
    <g clip-path="url(#paefd393282)">
     <use xlink:href="#m3fac35a176" x="632.09737" y="233.390418" style="fill: #1f77b4; stroke: #1f77b4"/>
     <use xlink:href="#m3fac35a176" x="667.521936" y="199.473285" style="fill: #1f77b4; stroke: #1f77b4"/>
     <use xlink:href="#m3fac35a176" x="702.946501" y="160.627671" style="fill: #1f77b4; stroke: #1f77b4"/>
     <use xlink:href="#m3fac35a176" x="738.371067" y="160.401836" style="fill: #1f77b4; stroke: #1f77b4"/>
     <use xlink:href="#m3fac35a176" x="773.795633" y="123.811687" style="fill: #1f77b4; stroke: #1f77b4"/>
     <use xlink:href="#m3fac35a176" x="809.220199" y="119.285304" style="fill: #1f77b4; stroke: #1f77b4"/>
     <use xlink:href="#m3fac35a176" x="844.644765" y="44.041818" style="fill: #1f77b4; stroke: #1f77b4"/>
    </g>
   </g>
   <g id="line2d_48">
    <path d="M 632.09737 233.5343 
L 667.521936 199.579303 
L 702.946501 160.864149 
L 738.371067 160.577799 
L 773.795633 124.010306 
L 809.220199 119.438133 
L 844.644765 44.632517 
" clip-path="url(#paefd393282)" style="fill: none; stroke-dasharray: 2.775,1.2; stroke-dashoffset: 0; stroke: #1f77b4; stroke-width: 0.75"/>
    <g clip-path="url(#paefd393282)">
     <use xlink:href="#m699363da25" x="632.09737" y="233.5343" style="stroke: #1f77b4"/>
     <use xlink:href="#m699363da25" x="667.521936" y="199.579303" style="stroke: #1f77b4"/>
     <use xlink:href="#m699363da25" x="702.946501" y="160.864149" style="stroke: #1f77b4"/>
     <use xlink:href="#m699363da25" x="738.371067" y="160.577799" style="stroke: #1f77b4"/>
     <use xlink:href="#m699363da25" x="773.795633" y="124.010306" style="stroke: #1f77b4"/>
     <use xlink:href="#m699363da25" x="809.220199" y="119.438133" style="stroke: #1f77b4"/>
     <use xlink:href="#m699363da25" x="844.644765" y="44.632517" style="stroke: #1f77b4"/>
    </g>
   </g>
   <g id="patch_9">
    <path d="M 621.47 243.16 
L 621.47 34.56 
" style="fill: none; stroke: #000000; stroke-width: 0.8; stroke-linejoin: miter; stroke-linecap: square"/>
   </g>
   <g id="patch_10">
    <path d="M 621.47 243.16 
L 855.272134 243.16 
" style="fill: none; stroke: #000000; stroke-width: 0.8; stroke-linejoin: miter; stroke-linecap: square"/>
   </g>
  </g>
  <g id="axes_4">
   <g id="patch_11">
    <path d="M 905.195 243.16 
L 1138.997134 243.16 
L 1138.997134 34.56 
L 905.195 34.56 
z
" style="fill: #ffffff"/>
   </g>
   <g id="matplotlib.axis_7">
    <g id="xtick_22">
     <g id="line2d_49">
      <g>
       <use xlink:href="#m235146b286" x="915.82237" y="243.16" style="stroke: #000000; stroke-width: 0.8"/>
      </g>
     </g>
     <g id="text_46">
      <!-- 0.50 -->
      <g transform="translate(904.689557 257.758438) scale(0.1 -0.1)">
       <use xlink:href="#DejaVuSans-30"/>
       <use xlink:href="#DejaVuSans-2e" transform="translate(63.623047 0)"/>
       <use xlink:href="#DejaVuSans-35" transform="translate(95.410156 0)"/>
       <use xlink:href="#DejaVuSans-30" transform="translate(159.033203 0)"/>
      </g>
     </g>
    </g>
    <g id="xtick_23">
     <g id="line2d_50">
      <g>
       <use xlink:href="#m235146b286" x="951.246936" y="243.16" style="stroke: #000000; stroke-width: 0.8"/>
      </g>
     </g>
     <g id="text_47">
      <!-- 0.75 -->
      <g transform="translate(940.114123 257.758438) scale(0.1 -0.1)">
       <use xlink:href="#DejaVuSans-30"/>
       <use xlink:href="#DejaVuSans-2e" transform="translate(63.623047 0)"/>
       <use xlink:href="#DejaVuSans-37" transform="translate(95.410156 0)"/>
       <use xlink:href="#DejaVuSans-35" transform="translate(159.033203 0)"/>
      </g>
     </g>
    </g>
    <g id="xtick_24">
     <g id="line2d_51">
      <g>
       <use xlink:href="#m235146b286" x="986.671501" y="243.16" style="stroke: #000000; stroke-width: 0.8"/>
      </g>
     </g>
     <g id="text_48">
      <!-- 1.00 -->
      <g transform="translate(975.538689 257.758438) scale(0.1 -0.1)">
       <use xlink:href="#DejaVuSans-31"/>
       <use xlink:href="#DejaVuSans-2e" transform="translate(63.623047 0)"/>
       <use xlink:href="#DejaVuSans-30" transform="translate(95.410156 0)"/>
       <use xlink:href="#DejaVuSans-30" transform="translate(159.033203 0)"/>
      </g>
     </g>
    </g>
    <g id="xtick_25">
     <g id="line2d_52">
      <g>
       <use xlink:href="#m235146b286" x="1022.096067" y="243.16" style="stroke: #000000; stroke-width: 0.8"/>
      </g>
     </g>
     <g id="text_49">
      <!-- 1.25 -->
      <g transform="translate(1010.963255 257.758438) scale(0.1 -0.1)">
       <use xlink:href="#DejaVuSans-31"/>
       <use xlink:href="#DejaVuSans-2e" transform="translate(63.623047 0)"/>
       <use xlink:href="#DejaVuSans-32" transform="translate(95.410156 0)"/>
       <use xlink:href="#DejaVuSans-35" transform="translate(159.033203 0)"/>
      </g>
     </g>
    </g>
    <g id="xtick_26">
     <g id="line2d_53">
      <g>
       <use xlink:href="#m235146b286" x="1057.520633" y="243.16" style="stroke: #000000; stroke-width: 0.8"/>
      </g>
     </g>
     <g id="text_50">
      <!-- 1.50 -->
      <g transform="translate(1046.387821 257.758438) scale(0.1 -0.1)">
       <use xlink:href="#DejaVuSans-31"/>
       <use xlink:href="#DejaVuSans-2e" transform="translate(63.623047 0)"/>
       <use xlink:href="#DejaVuSans-35" transform="translate(95.410156 0)"/>
       <use xlink:href="#DejaVuSans-30" transform="translate(159.033203 0)"/>
      </g>
     </g>
    </g>
    <g id="xtick_27">
     <g id="line2d_54">
      <g>
       <use xlink:href="#m235146b286" x="1092.945199" y="243.16" style="stroke: #000000; stroke-width: 0.8"/>
      </g>
     </g>
     <g id="text_51">
      <!-- 1.75 -->
      <g transform="translate(1081.812386 257.758438) scale(0.1 -0.1)">
       <use xlink:href="#DejaVuSans-31"/>
       <use xlink:href="#DejaVuSans-2e" transform="translate(63.623047 0)"/>
       <use xlink:href="#DejaVuSans-37" transform="translate(95.410156 0)"/>
       <use xlink:href="#DejaVuSans-35" transform="translate(159.033203 0)"/>
      </g>
     </g>
    </g>
    <g id="xtick_28">
     <g id="line2d_55">
      <g>
       <use xlink:href="#m235146b286" x="1128.369765" y="243.16" style="stroke: #000000; stroke-width: 0.8"/>
      </g>
     </g>
     <g id="text_52">
      <!-- 2.00 -->
      <g transform="translate(1117.236952 257.758438) scale(0.1 -0.1)">
       <use xlink:href="#DejaVuSans-32"/>
       <use xlink:href="#DejaVuSans-2e" transform="translate(63.623047 0)"/>
       <use xlink:href="#DejaVuSans-30" transform="translate(95.410156 0)"/>
       <use xlink:href="#DejaVuSans-30" transform="translate(159.033203 0)"/>
      </g>
     </g>
    </g>
    <g id="text_53">
     <!-- Resolution ($\gamma$) -->
     <g transform="translate(987.296067 271.438125) scale(0.1 -0.1)">
      <use xlink:href="#DejaVuSans-52" transform="translate(0 0.015625)"/>
      <use xlink:href="#DejaVuSans-65" transform="translate(69.482422 0.015625)"/>
      <use xlink:href="#DejaVuSans-73" transform="translate(131.005859 0.015625)"/>
      <use xlink:href="#DejaVuSans-6f" transform="translate(183.105469 0.015625)"/>
      <use xlink:href="#DejaVuSans-6c" transform="translate(244.287109 0.015625)"/>
      <use xlink:href="#DejaVuSans-75" transform="translate(272.070312 0.015625)"/>
      <use xlink:href="#DejaVuSans-74" transform="translate(335.449219 0.015625)"/>
      <use xlink:href="#DejaVuSans-69" transform="translate(374.658203 0.015625)"/>
      <use xlink:href="#DejaVuSans-6f" transform="translate(402.441406 0.015625)"/>
      <use xlink:href="#DejaVuSans-6e" transform="translate(463.623047 0.015625)"/>
      <use xlink:href="#DejaVuSans-20" transform="translate(527.001953 0.015625)"/>
      <use xlink:href="#DejaVuSans-28" transform="translate(558.789062 0.015625)"/>
      <use xlink:href="#DejaVuSans-Oblique-3b3" transform="translate(597.802734 0.015625)"/>
      <use xlink:href="#DejaVuSans-29" transform="translate(656.982422 0.015625)"/>
     </g>
    </g>
   </g>
   <g id="matplotlib.axis_8">
    <g id="ytick_19">
     <g id="line2d_56">
      <g>
       <use xlink:href="#m7da1598503" x="905.195" y="208.449351" style="stroke: #000000; stroke-width: 0.8"/>
      </g>
     </g>
     <g id="text_54">
      <!-- 20 -->
      <g transform="translate(885.47 212.248569) scale(0.1 -0.1)">
       <use xlink:href="#DejaVuSans-32"/>
       <use xlink:href="#DejaVuSans-30" transform="translate(63.623047 0)"/>
      </g>
     </g>
    </g>
    <g id="ytick_20">
     <g id="line2d_57">
      <g>
       <use xlink:href="#m7da1598503" x="905.195" y="172.831374" style="stroke: #000000; stroke-width: 0.8"/>
      </g>
     </g>
     <g id="text_55">
      <!-- 30 -->
      <g transform="translate(885.47 176.630593) scale(0.1 -0.1)">
       <use xlink:href="#DejaVuSans-33"/>
       <use xlink:href="#DejaVuSans-30" transform="translate(63.623047 0)"/>
      </g>
     </g>
    </g>
    <g id="ytick_21">
     <g id="line2d_58">
      <g>
       <use xlink:href="#m7da1598503" x="905.195" y="137.213398" style="stroke: #000000; stroke-width: 0.8"/>
      </g>
     </g>
     <g id="text_56">
      <!-- 40 -->
      <g transform="translate(885.47 141.012617) scale(0.1 -0.1)">
       <defs>
        <path id="DejaVuSans-34" d="M 2419 4116 
L 825 1625 
L 2419 1625 
L 2419 4116 
z
M 2253 4666 
L 3047 4666 
L 3047 1625 
L 3713 1625 
L 3713 1100 
L 3047 1100 
L 3047 0 
L 2419 0 
L 2419 1100 
L 313 1100 
L 313 1709 
L 2253 4666 
z
" transform="scale(0.015625)"/>
       </defs>
       <use xlink:href="#DejaVuSans-34"/>
       <use xlink:href="#DejaVuSans-30" transform="translate(63.623047 0)"/>
      </g>
     </g>
    </g>
    <g id="ytick_22">
     <g id="line2d_59">
      <g>
       <use xlink:href="#m7da1598503" x="905.195" y="101.595422" style="stroke: #000000; stroke-width: 0.8"/>
      </g>
     </g>
     <g id="text_57">
      <!-- 50 -->
      <g transform="translate(885.47 105.39464) scale(0.1 -0.1)">
       <use xlink:href="#DejaVuSans-35"/>
       <use xlink:href="#DejaVuSans-30" transform="translate(63.623047 0)"/>
      </g>
     </g>
    </g>
    <g id="ytick_23">
     <g id="line2d_60">
      <g>
       <use xlink:href="#m7da1598503" x="905.195" y="65.977445" style="stroke: #000000; stroke-width: 0.8"/>
      </g>
     </g>
     <g id="text_58">
      <!-- 60 -->
      <g transform="translate(885.47 69.776664) scale(0.1 -0.1)">
       <defs>
        <path id="DejaVuSans-36" d="M 2113 2584 
Q 1688 2584 1439 2293 
Q 1191 2003 1191 1497 
Q 1191 994 1439 701 
Q 1688 409 2113 409 
Q 2538 409 2786 701 
Q 3034 994 3034 1497 
Q 3034 2003 2786 2293 
Q 2538 2584 2113 2584 
z
M 3366 4563 
L 3366 3988 
Q 3128 4100 2886 4159 
Q 2644 4219 2406 4219 
Q 1781 4219 1451 3797 
Q 1122 3375 1075 2522 
Q 1259 2794 1537 2939 
Q 1816 3084 2150 3084 
Q 2853 3084 3261 2657 
Q 3669 2231 3669 1497 
Q 3669 778 3244 343 
Q 2819 -91 2113 -91 
Q 1303 -91 875 529 
Q 447 1150 447 2328 
Q 447 3434 972 4092 
Q 1497 4750 2381 4750 
Q 2619 4750 2861 4703 
Q 3103 4656 3366 4563 
z
" transform="scale(0.015625)"/>
       </defs>
       <use xlink:href="#DejaVuSans-36"/>
       <use xlink:href="#DejaVuSans-30" transform="translate(63.623047 0)"/>
      </g>
     </g>
    </g>
    <g id="text_59">
     <!-- Total Elapsed Times (s) -->
     <g transform="translate(879.390312 196.290469) rotate(-90) scale(0.1 -0.1)">
      <use xlink:href="#DejaVuSans-54"/>
      <use xlink:href="#DejaVuSans-6f" transform="translate(44.083984 0)"/>
      <use xlink:href="#DejaVuSans-74" transform="translate(105.265625 0)"/>
      <use xlink:href="#DejaVuSans-61" transform="translate(144.474609 0)"/>
      <use xlink:href="#DejaVuSans-6c" transform="translate(205.753906 0)"/>
      <use xlink:href="#DejaVuSans-20" transform="translate(233.537109 0)"/>
      <use xlink:href="#DejaVuSans-45" transform="translate(265.324219 0)"/>
      <use xlink:href="#DejaVuSans-6c" transform="translate(328.507812 0)"/>
      <use xlink:href="#DejaVuSans-61" transform="translate(356.291016 0)"/>
      <use xlink:href="#DejaVuSans-70" transform="translate(417.570312 0)"/>
      <use xlink:href="#DejaVuSans-73" transform="translate(481.046875 0)"/>
      <use xlink:href="#DejaVuSans-65" transform="translate(533.146484 0)"/>
      <use xlink:href="#DejaVuSans-64" transform="translate(594.669922 0)"/>
      <use xlink:href="#DejaVuSans-20" transform="translate(658.146484 0)"/>
      <use xlink:href="#DejaVuSans-54" transform="translate(689.933594 0)"/>
      <use xlink:href="#DejaVuSans-69" transform="translate(747.892578 0)"/>
      <use xlink:href="#DejaVuSans-6d" transform="translate(775.675781 0)"/>
      <use xlink:href="#DejaVuSans-65" transform="translate(873.087891 0)"/>
      <use xlink:href="#DejaVuSans-73" transform="translate(934.611328 0)"/>
      <use xlink:href="#DejaVuSans-20" transform="translate(986.710938 0)"/>
      <use xlink:href="#DejaVuSans-28" transform="translate(1018.498047 0)"/>
      <use xlink:href="#DejaVuSans-73" transform="translate(1057.511719 0)"/>
      <use xlink:href="#DejaVuSans-29" transform="translate(1109.611328 0)"/>
     </g>
    </g>
   </g>
   <g id="LineCollection_4">
    <path d="M 915.82237 233.678182 
L 915.82237 233.493047 
" clip-path="url(#p44bee88e15)" style="fill: none; stroke: #1f77b4; stroke-width: 0.75"/>
    <path d="M 951.246936 200.98732 
L 951.246936 200.648983 
" clip-path="url(#p44bee88e15)" style="fill: none; stroke: #1f77b4; stroke-width: 0.75"/>
    <path d="M 986.671501 171.231179 
L 986.671501 170.864597 
" clip-path="url(#p44bee88e15)" style="fill: none; stroke: #1f77b4; stroke-width: 0.75"/>
    <path d="M 1022.096067 171.37593 
L 1022.096067 171.031989 
" clip-path="url(#p44bee88e15)" style="fill: none; stroke: #1f77b4; stroke-width: 0.75"/>
    <path d="M 1057.520633 126.33451 
L 1057.520633 125.76544 
" clip-path="url(#p44bee88e15)" style="fill: none; stroke: #1f77b4; stroke-width: 0.75"/>
    <path d="M 1092.945199 135.109127 
L 1092.945199 134.697437 
" clip-path="url(#p44bee88e15)" style="fill: none; stroke: #1f77b4; stroke-width: 0.75"/>
    <path d="M 1128.369765 45.144318 
L 1128.369765 44.041818 
" clip-path="url(#p44bee88e15)" style="fill: none; stroke: #1f77b4; stroke-width: 0.75"/>
   </g>
   <g id="line2d_61">
    <g clip-path="url(#p44bee88e15)">
     <use xlink:href="#m3fac35a176" x="915.82237" y="233.678182" style="fill: #1f77b4; stroke: #1f77b4"/>
     <use xlink:href="#m3fac35a176" x="951.246936" y="200.98732" style="fill: #1f77b4; stroke: #1f77b4"/>
     <use xlink:href="#m3fac35a176" x="986.671501" y="171.231179" style="fill: #1f77b4; stroke: #1f77b4"/>
     <use xlink:href="#m3fac35a176" x="1022.096067" y="171.37593" style="fill: #1f77b4; stroke: #1f77b4"/>
     <use xlink:href="#m3fac35a176" x="1057.520633" y="126.33451" style="fill: #1f77b4; stroke: #1f77b4"/>
     <use xlink:href="#m3fac35a176" x="1092.945199" y="135.109127" style="fill: #1f77b4; stroke: #1f77b4"/>
     <use xlink:href="#m3fac35a176" x="1128.369765" y="45.144318" style="fill: #1f77b4; stroke: #1f77b4"/>
    </g>
   </g>
   <g id="line2d_62">
    <g clip-path="url(#p44bee88e15)">
     <use xlink:href="#m3fac35a176" x="915.82237" y="233.493047" style="fill: #1f77b4; stroke: #1f77b4"/>
     <use xlink:href="#m3fac35a176" x="951.246936" y="200.648983" style="fill: #1f77b4; stroke: #1f77b4"/>
     <use xlink:href="#m3fac35a176" x="986.671501" y="170.864597" style="fill: #1f77b4; stroke: #1f77b4"/>
     <use xlink:href="#m3fac35a176" x="1022.096067" y="171.031989" style="fill: #1f77b4; stroke: #1f77b4"/>
     <use xlink:href="#m3fac35a176" x="1057.520633" y="125.76544" style="fill: #1f77b4; stroke: #1f77b4"/>
     <use xlink:href="#m3fac35a176" x="1092.945199" y="134.697437" style="fill: #1f77b4; stroke: #1f77b4"/>
     <use xlink:href="#m3fac35a176" x="1128.369765" y="44.041818" style="fill: #1f77b4; stroke: #1f77b4"/>
    </g>
   </g>
   <g id="line2d_63">
    <path d="M 915.82237 233.585615 
L 951.246936 200.818152 
L 986.671501 171.047888 
L 1022.096067 171.203959 
L 1057.520633 126.049975 
L 1092.945199 134.903282 
L 1128.369765 44.593068 
" clip-path="url(#p44bee88e15)" style="fill: none; stroke-dasharray: 2.775,1.2; stroke-dashoffset: 0; stroke: #1f77b4; stroke-width: 0.75"/>
    <g clip-path="url(#p44bee88e15)">
     <use xlink:href="#m699363da25" x="915.82237" y="233.585615" style="stroke: #1f77b4"/>
     <use xlink:href="#m699363da25" x="951.246936" y="200.818152" style="stroke: #1f77b4"/>
     <use xlink:href="#m699363da25" x="986.671501" y="171.047888" style="stroke: #1f77b4"/>
     <use xlink:href="#m699363da25" x="1022.096067" y="171.203959" style="stroke: #1f77b4"/>
     <use xlink:href="#m699363da25" x="1057.520633" y="126.049975" style="stroke: #1f77b4"/>
     <use xlink:href="#m699363da25" x="1092.945199" y="134.903282" style="stroke: #1f77b4"/>
     <use xlink:href="#m699363da25" x="1128.369765" y="44.593068" style="stroke: #1f77b4"/>
    </g>
   </g>
   <g id="patch_12">
    <path d="M 905.195 243.16 
L 905.195 34.56 
" style="fill: none; stroke: #000000; stroke-width: 0.8; stroke-linejoin: miter; stroke-linecap: square"/>
   </g>
   <g id="patch_13">
    <path d="M 905.195 243.16 
L 1138.997134 243.16 
" style="fill: none; stroke: #000000; stroke-width: 0.8; stroke-linejoin: miter; stroke-linecap: square"/>
   </g>
  </g>
  <g id="text_60">
   <!-- Karate Club (N=34) -->
   <g transform="translate(510.27 14.878125) scale(0.12 -0.12)">
    <defs>
     <path id="DejaVuSans-Bold-4b" d="M 588 4666 
L 1791 4666 
L 1791 2963 
L 3525 4666 
L 4922 4666 
L 2675 2456 
L 5153 0 
L 3647 0 
L 1791 1838 
L 1791 0 
L 588 0 
L 588 4666 
z
" transform="scale(0.015625)"/>
     <path id="DejaVuSans-Bold-61" d="M 2106 1575 
Q 1756 1575 1579 1456 
Q 1403 1338 1403 1106 
Q 1403 894 1545 773 
Q 1688 653 1941 653 
Q 2256 653 2472 879 
Q 2688 1106 2688 1447 
L 2688 1575 
L 2106 1575 
z
M 3816 1997 
L 3816 0 
L 2688 0 
L 2688 519 
Q 2463 200 2181 54 
Q 1900 -91 1497 -91 
Q 953 -91 614 226 
Q 275 544 275 1050 
Q 275 1666 698 1953 
Q 1122 2241 2028 2241 
L 2688 2241 
L 2688 2328 
Q 2688 2594 2478 2717 
Q 2269 2841 1825 2841 
Q 1466 2841 1156 2769 
Q 847 2697 581 2553 
L 581 3406 
Q 941 3494 1303 3539 
Q 1666 3584 2028 3584 
Q 2975 3584 3395 3211 
Q 3816 2838 3816 1997 
z
" transform="scale(0.015625)"/>
     <path id="DejaVuSans-Bold-72" d="M 3138 2547 
Q 2991 2616 2845 2648 
Q 2700 2681 2553 2681 
Q 2122 2681 1889 2404 
Q 1656 2128 1656 1613 
L 1656 0 
L 538 0 
L 538 3500 
L 1656 3500 
L 1656 2925 
Q 1872 3269 2151 3426 
Q 2431 3584 2822 3584 
Q 2878 3584 2943 3579 
Q 3009 3575 3134 3559 
L 3138 2547 
z
" transform="scale(0.015625)"/>
     <path id="DejaVuSans-Bold-74" d="M 1759 4494 
L 1759 3500 
L 2913 3500 
L 2913 2700 
L 1759 2700 
L 1759 1216 
Q 1759 972 1856 886 
Q 1953 800 2241 800 
L 2816 800 
L 2816 0 
L 1856 0 
Q 1194 0 917 276 
Q 641 553 641 1216 
L 641 2700 
L 84 2700 
L 84 3500 
L 641 3500 
L 641 4494 
L 1759 4494 
z
" transform="scale(0.015625)"/>
     <path id="DejaVuSans-Bold-65" d="M 4031 1759 
L 4031 1441 
L 1416 1441 
Q 1456 1047 1700 850 
Q 1944 653 2381 653 
Q 2734 653 3104 758 
Q 3475 863 3866 1075 
L 3866 213 
Q 3469 63 3072 -14 
Q 2675 -91 2278 -91 
Q 1328 -91 801 392 
Q 275 875 275 1747 
Q 275 2603 792 3093 
Q 1309 3584 2216 3584 
Q 3041 3584 3536 3087 
Q 4031 2591 4031 1759 
z
M 2881 2131 
Q 2881 2450 2695 2645 
Q 2509 2841 2209 2841 
Q 1884 2841 1681 2658 
Q 1478 2475 1428 2131 
L 2881 2131 
z
" transform="scale(0.015625)"/>
     <path id="DejaVuSans-Bold-20" transform="scale(0.015625)"/>
     <path id="DejaVuSans-Bold-43" d="M 4288 256 
Q 3956 84 3597 -3 
Q 3238 -91 2847 -91 
Q 1681 -91 1000 561 
Q 319 1213 319 2328 
Q 319 3447 1000 4098 
Q 1681 4750 2847 4750 
Q 3238 4750 3597 4662 
Q 3956 4575 4288 4403 
L 4288 3438 
Q 3953 3666 3628 3772 
Q 3303 3878 2944 3878 
Q 2300 3878 1931 3465 
Q 1563 3053 1563 2328 
Q 1563 1606 1931 1193 
Q 2300 781 2944 781 
Q 3303 781 3628 887 
Q 3953 994 4288 1222 
L 4288 256 
z
" transform="scale(0.015625)"/>
     <path id="DejaVuSans-Bold-6c" d="M 538 4863 
L 1656 4863 
L 1656 0 
L 538 0 
L 538 4863 
z
" transform="scale(0.015625)"/>
     <path id="DejaVuSans-Bold-75" d="M 500 1363 
L 500 3500 
L 1625 3500 
L 1625 3150 
Q 1625 2866 1622 2436 
Q 1619 2006 1619 1863 
Q 1619 1441 1641 1255 
Q 1663 1069 1716 984 
Q 1784 875 1895 815 
Q 2006 756 2150 756 
Q 2500 756 2700 1025 
Q 2900 1294 2900 1772 
L 2900 3500 
L 4019 3500 
L 4019 0 
L 2900 0 
L 2900 506 
Q 2647 200 2364 54 
Q 2081 -91 1741 -91 
Q 1134 -91 817 281 
Q 500 653 500 1363 
z
" transform="scale(0.015625)"/>
     <path id="DejaVuSans-Bold-62" d="M 2400 722 
Q 2759 722 2948 984 
Q 3138 1247 3138 1747 
Q 3138 2247 2948 2509 
Q 2759 2772 2400 2772 
Q 2041 2772 1848 2508 
Q 1656 2244 1656 1747 
Q 1656 1250 1848 986 
Q 2041 722 2400 722 
z
M 1656 2988 
Q 1888 3294 2169 3439 
Q 2450 3584 2816 3584 
Q 3463 3584 3878 3070 
Q 4294 2556 4294 1747 
Q 4294 938 3878 423 
Q 3463 -91 2816 -91 
Q 2450 -91 2169 54 
Q 1888 200 1656 506 
L 1656 0 
L 538 0 
L 538 4863 
L 1656 4863 
L 1656 2988 
z
" transform="scale(0.015625)"/>
     <path id="DejaVuSans-Bold-28" d="M 2413 -844 
L 1484 -844 
Q 1006 -72 778 623 
Q 550 1319 550 2003 
Q 550 2688 779 3389 
Q 1009 4091 1484 4856 
L 2413 4856 
Q 2013 4116 1813 3408 
Q 1613 2700 1613 2009 
Q 1613 1319 1811 609 
Q 2009 -100 2413 -844 
z
" transform="scale(0.015625)"/>
     <path id="DejaVuSans-Bold-4e" d="M 588 4666 
L 1931 4666 
L 3628 1466 
L 3628 4666 
L 4769 4666 
L 4769 0 
L 3425 0 
L 1728 3200 
L 1728 0 
L 588 0 
L 588 4666 
z
" transform="scale(0.015625)"/>
     <path id="DejaVuSans-Bold-3d" d="M 678 3084 
L 4684 3084 
L 4684 2350 
L 678 2350 
L 678 3084 
z
M 678 1663 
L 4684 1663 
L 4684 922 
L 678 922 
L 678 1663 
z
" transform="scale(0.015625)"/>
     <path id="DejaVuSans-Bold-33" d="M 2981 2516 
Q 3453 2394 3698 2092 
Q 3944 1791 3944 1325 
Q 3944 631 3412 270 
Q 2881 -91 1863 -91 
Q 1503 -91 1142 -33 
Q 781 25 428 141 
L 428 1069 
Q 766 900 1098 814 
Q 1431 728 1753 728 
Q 2231 728 2486 893 
Q 2741 1059 2741 1369 
Q 2741 1688 2480 1852 
Q 2219 2016 1709 2016 
L 1228 2016 
L 1228 2791 
L 1734 2791 
Q 2188 2791 2409 2933 
Q 2631 3075 2631 3366 
Q 2631 3634 2415 3781 
Q 2200 3928 1806 3928 
Q 1516 3928 1219 3862 
Q 922 3797 628 3669 
L 628 4550 
Q 984 4650 1334 4700 
Q 1684 4750 2022 4750 
Q 2931 4750 3382 4451 
Q 3834 4153 3834 3553 
Q 3834 3144 3618 2883 
Q 3403 2622 2981 2516 
z
" transform="scale(0.015625)"/>
     <path id="DejaVuSans-Bold-34" d="M 2356 3675 
L 1038 1722 
L 2356 1722 
L 2356 3675 
z
M 2156 4666 
L 3494 4666 
L 3494 1722 
L 4159 1722 
L 4159 850 
L 3494 850 
L 3494 0 
L 2356 0 
L 2356 850 
L 288 850 
L 288 1881 
L 2156 4666 
z
" transform="scale(0.015625)"/>
     <path id="DejaVuSans-Bold-29" d="M 513 -844 
Q 913 -100 1113 609 
Q 1313 1319 1313 2009 
Q 1313 2700 1113 3408 
Q 913 4116 513 4856 
L 1441 4856 
Q 1916 4091 2145 3389 
Q 2375 2688 2375 2003 
Q 2375 1319 2147 623 
Q 1919 -72 1441 -844 
L 513 -844 
z
" transform="scale(0.015625)"/>
    </defs>
    <use xlink:href="#DejaVuSans-Bold-4b"/>
    <use xlink:href="#DejaVuSans-Bold-61" transform="translate(77.490234 0)"/>
    <use xlink:href="#DejaVuSans-Bold-72" transform="translate(144.970703 0)"/>
    <use xlink:href="#DejaVuSans-Bold-61" transform="translate(194.287109 0)"/>
    <use xlink:href="#DejaVuSans-Bold-74" transform="translate(261.767578 0)"/>
    <use xlink:href="#DejaVuSans-Bold-65" transform="translate(309.570312 0)"/>
    <use xlink:href="#DejaVuSans-Bold-20" transform="translate(377.392578 0)"/>
    <use xlink:href="#DejaVuSans-Bold-43" transform="translate(412.207031 0)"/>
    <use xlink:href="#DejaVuSans-Bold-6c" transform="translate(485.595703 0)"/>
    <use xlink:href="#DejaVuSans-Bold-75" transform="translate(519.873047 0)"/>
    <use xlink:href="#DejaVuSans-Bold-62" transform="translate(591.064453 0)"/>
    <use xlink:href="#DejaVuSans-Bold-20" transform="translate(662.646484 0)"/>
    <use xlink:href="#DejaVuSans-Bold-28" transform="translate(697.460938 0)"/>
    <use xlink:href="#DejaVuSans-Bold-4e" transform="translate(743.164062 0)"/>
    <use xlink:href="#DejaVuSans-Bold-3d" transform="translate(826.855469 0)"/>
    <use xlink:href="#DejaVuSans-Bold-33" transform="translate(910.644531 0)"/>
    <use xlink:href="#DejaVuSans-Bold-34" transform="translate(980.224609 0)"/>
    <use xlink:href="#DejaVuSans-Bold-29" transform="translate(1049.804688 0)"/>
   </g>
  </g>
 </g>
 <defs>
  <clipPath id="p9226b15172">
   <rect x="54.02" y="34.56" width="233.802134" height="208.6"/>
  </clipPath>
  <clipPath id="p8065ca7c22">
   <rect x="337.745" y="34.56" width="233.802134" height="208.6"/>
  </clipPath>
  <clipPath id="paefd393282">
   <rect x="621.47" y="34.56" width="233.802134" height="208.6"/>
  </clipPath>
  <clipPath id="p44bee88e15">
   <rect x="905.195" y="34.56" width="233.802134" height="208.6"/>
  </clipPath>
 </defs>
</svg>
